SplineFontDB: 3.2
FontName: TemporaSerif-Italic
FullName: Tempora Serif Italic
FamilyName: Tempora Serif
Weight: Regular
Copyright: Copyright Copyright 2012-2024 The Libertinus Project Authors.
Version: 5.0
ItalicAngle: -12
UnderlinePosition: -95
UnderlineWidth: 40
Ascent: 800
Descent: 200
InvalidEm: 0
sfntRevision: 0x00070d0e
LayerCount: 2
Layer: 0 0 "Atr+AOEA-s" 1
Layer: 1 0 "Fore" 0
XUID: [1021 149 -1843968052 7816872]
StyleMap: 0x0001
FSType: 0
OS2Version: 4
OS2_WeightWidthSlopeOnly: 0
OS2_UseTypoMetrics: 1
CreationTime: 1155510122
ModificationTime: 1759735890
PfmFamily: 81
TTFWeight: 400
TTFWidth: 5
LineGap: 0
VLineGap: 0
Panose: 0 0 0 0 0 0 0 0 0 0
OS2TypoAscent: 894
OS2TypoAOffset: 0
OS2TypoDescent: -246
OS2TypoDOffset: 0
OS2TypoLinegap: 0
OS2WinAscent: 894
OS2WinAOffset: 0
OS2WinDescent: 246
OS2WinDOffset: 0
HheadAscent: 894
HheadAOffset: 0
HheadDescent: -246
HheadDOffset: 0
OS2SubXSize: 650
OS2SubYSize: 600
OS2SubXOff: -16
OS2SubYOff: 75
OS2SupXSize: 650
OS2SupYSize: 600
OS2SupXOff: 74
OS2SupYOff: 350
OS2StrikeYSize: 40
OS2StrikeYPos: 257
OS2CapHeight: 645
OS2XHeight: 429
OS2FamilyClass: 261
OS2Vendor: 'QUE '
OS2CodePages: 600001bf.00000000
OS2UnicodeRanges: e0000aff.5200e0fb.01000020.00000000
Lookup: 1 0 0 "'locl' Formas localizadas in Cir+AO0A-lico lookup 0" { "'locl' Formas localizadas in Cir+AO0A-lico lookup 0 subtable"  } ['locl' ('cyrl' <'MKD ' 'SRB ' > ) ]
Lookup: 1 0 0 "'locl' Formas localizadas in Latin lookup 1" { "'locl' Formas localizadas in Latin lookup 1 subtable"  } ['locl' ('latn' <'FIN ' 'ISM ' 'LSM ' 'NOR ' 'NSM ' 'SKS ' 'SSM ' 'SVE ' 'TRK ' > ) ]
Lookup: 4 0 0 "'locl' Formas localizadas in Latin lookup 2" { "'locl' Formas localizadas in Latin lookup 2 subtable"  } ['locl' ('latn' <'NLD ' > ) ]
Lookup: 1 0 0 "Single Substitution lookup 3" { "Single Substitution lookup 3 subtable"  } []
Lookup: 1 0 0 "Single Substitution lookup 4" { "Single Substitution lookup 4 subtable"  } []

StartChar: .notdef
Encoding: 1114112 -1 0
Width: 500
GlyphClass: 1
Flags: MW
HStem: 0 50<48 388 48 463> 650 50<112 452 112 112>
VStem: 0 50 450 50
LayerCount: 2
Fore
SplineSet
-37 0 m 1
 37 700 l 1
 537 700 l 1
 463 0 l 1
 -37 0 l 1
48 50 m 1
 388 50 l 1
 245 305 l 1
 48 50 l 1
77 605 m 1
 23 95 l 1
 220 350 l 1
 77 605 l 1
280 350 m 1
 423 95 l 1
 477 605 l 1
 280 350 l 1
255 395 m 1
 452 650 l 1
 112 650 l 1
 255 395 l 1
EndSplineSet
EndChar

StartChar: exclam
Encoding: 33 33 2
Width: 227
GlyphClass: 2
Flags: MW
HStem: -13 106<83 140> -13 678<83 299.5>
VStem: 87 109 178 119
LayerCount: 2
Fore
SplineSet
288 665 m 0x50
 311 665 331 647 327 611 c 0
 326 605 326 599 323 592 c 0
 305 527 278 484 243 398 c 0
 201 291 181 231 177 217 c 0
 173 206 166 197 156 197 c 0
 146 197 145 202 146 208 c 2
 146 210 l 1
 150 230 170 321 184 398 c 0
 189 425 192 447 194 466 c 0
 196 482 196 496 197 510 c 0
 200 535 204 559 213 592 c 0
 229 646 266 665 288 665 c 0x50
58 40 m 0xa0
 67 69 98 93 127 93 c 0
 153 93 170 74 167 49 c 0
 167 46 165 43 165 40 c 0
 157 11 126 -13 96 -13 c 0
 70 -13 53 6 56 31 c 0
 56 34 58 37 58 40 c 0xa0
EndSplineSet
EndChar

StartChar: quotedbl
Encoding: 34 34 3
Width: 336
GlyphClass: 2
Flags: MW
HStem: 625 20G<351 377>
VStem: 164 27 291 27
LayerCount: 2
Fore
SplineSet
280 427 m 1
 280 427 297 586 300 595 c 0
 305 617 336 645 366 645 c 0
 388 645 393 632 392 619 c 2
 391 612 l 2
 386 596 307 431 307 431 c 1
 280 427 l 1
152 426 m 1
 152 426 171 585 173 594 c 0
 179 616 208 644 239 644 c 0
 261 644 267 631 266 618 c 0
 266 615 265 613 264 611 c 0
 259 595 180 430 180 430 c 1
 152 426 l 1
EndSplineSet
EndChar

StartChar: numbersign
Encoding: 35 35 4
Width: 438
GlyphClass: 2
Flags: MW
HStem: 183 48<66 135 45 157 190 279 66 169 333 403> 341 49<136 205 115 227 136 239 260 349 403 472>
VStem: 56 426
LayerCount: 2
Fore
SplineSet
382 341 m 1
 333 231 l 1
 423 231 l 1
 403 183 l 1
 313 183 l 1
 237 13 l 1
 204 13 l 1
 279 183 l 1
 169 183 l 1
 94 13 l 1
 61 13 l 1
 135 183 l 1
 45 183 l 1
 66 231 l 1
 157 231 l 1
 205 341 l 1
 115 341 l 1
 136 390 l 1
 227 390 l 1
 301 560 l 1
 335 560 l 1
 260 390 l 1
 370 390 l 1
 445 560 l 1
 478 560 l 1
 403 390 l 1
 493 390 l 1
 472 341 l 1
 382 341 l 1
301 231 m 1
 349 341 l 1
 239 341 l 1
 190 231 l 1
 301 231 l 1
EndSplineSet
EndChar

StartChar: dollar
Encoding: 36 36 5
Width: 438
GlyphClass: 2
Flags: MW
HStem: -81 103<175 175 175 178 144 175> -12 21G<165 165> -1 21G<27 37.5> 541 31<364 373>
VStem: 69 27 355 75 421 28
LayerCount: 2
Fore
SplineSet
64 10 m 0x3a
 49 10 48 -1 27 -1 c 1x3a
 38 36 47 90 56 146 c 1
 83 149 l 1
 82 88 109 30 175 22 c 1
 247 264 l 1
 196 291 118 336 146 434 c 0
 172 521 271 565 339 571 c 1
 356 627 l 1
 390 627 l 1
 373 572 l 1
 394 571 414 569 431 567 c 0
 454 564 473 562 488 564 c 1
 476 519 471 470 465 421 c 1
 437 417 l 1
 437 435 l 2
 438 501 418 536 364 541 c 1x9a
 301 327 l 1
 351 306 448 258 418 156 c 0
 408 123 361 -3 199 -11 c 1
 178 -81 l 1
 144 -81 l 1x9c
 165 -12 l 1x5a
 111 -8 84 10 64 10 c 0x3a
209 22 m 1x9c
 251 28 314 54 337 127 c 0
 361 207 313 235 278 251 c 1
 209 22 l 1x9c
330 541 m 1
 281 533 229 497 211 438 c 0
 197 391 237 359 270 341 c 1
 330 541 l 1
EndSplineSet
EndChar

StartChar: percent
Encoding: 37 37 6
Width: 637
GlyphClass: 2
Flags: MW
HStem: -19 29<447 484 447 488.5> -5 21G<73 73> 218 32<499.5 531> 297 29<223.5 260 223.5 266> 478 37<452 462.5> 533 32<276 307 256.5 309> 549 20G<617 617>
VStem: 131 51 318 31 388 51 575 30
LayerCount: 2
Fore
SplineSet
461 515 m 0x7be0
 503 515 571 525 617 569 c 1
 648 548 l 1
 109 -14 l 1
 73 -5 l 1
 553 497 l 1
 512 481 477 478 448 478 c 0
 424 478 388 488 370 499 c 1x7be0
 371 491 371 482 370 474 c 0
 363 409 308 297 224 297 c 0
 161 297 140 354 145 406 c 0
 153 482 220 565 293 565 c 0x7de0
 321 565 348 552 357 540 c 1
 408 515 443 515 461 515 c 0x7be0
369 91 m 0xbbe0
 377 167 443 250 517 250 c 0
 557 250 601 231 593 159 c 0
 586 91 530 -19 447 -19 c 0
 386 -19 364 39 369 91 c 0xbbe0
418 77 m 0
 413 25 438 10 456 10 c 0
 512 10 557 102 563 157 c 0
 568 209 538 218 524 218 c 0
 475 218 424 134 418 77 c 0
194 392 m 0x7de0
 189 340 214 326 233 326 c 0
 287 326 333 415 339 473 c 0
 344 522 318 533 300 533 c 0
 252 533 200 450 194 392 c 0x7de0
EndSplineSet
EndChar

StartChar: ampersand
Encoding: 38 38 7
Width: 705
GlyphClass: 2
Flags: MW
HStem: -9 34<188.5 242> 396 26<569 576 576 576 576 600> 610 34<445.5 482.5>
VStem: 69 79 267 73 488 66
LayerCount: 2
Fore
SplineSet
579 556 m 0
 571 482 463 413 381 372 c 1
 388 354 391 333 456 190 c 1
 550 288 608 359 611 385 c 0
 612 392 609 396 600 396 c 2
 571 396 l 2
 567 396 568 400 569 403 c 2
 574 420 l 1
 576 422 l 1
 576 422 628 420 662 420 c 0
 696 420 750 422 750 422 c 1
 751 420 l 1
 746 404 l 2
 744 398 739 396 735 396 c 2
 707 396 l 2
 655 396 622 320 471 156 c 1
 492 111 l 2
 510 67 533 45 550 45 c 0
 583 45 611 62 643 102 c 1
 656 94 l 1
 614 23 564 -9 529 -9 c 0
 499 -9 462 -4 434 60 c 2
 415 98 l 1
 351 35 284 -9 200 -9 c 0
 105 -9 38 28 48 121 c 0
 59 223 132 295 300 377 c 1
 286 424 282 458 285 488 c 0
 295 582 387 644 479 644 c 0
 543 644 585 609 579 556 c 0
313 340 m 1
 248 309 141 253 127 122 c 0
 120 52 161 25 216 25 c 0
 287 25 332 64 400 132 c 1
 365 207 317 319 313 340 c 1
465 610 m 0
 426 610 366 565 360 504 c 0
 358 482 361 452 370 412 c 1
 506 488 511 541 513 558 c 0
 516 591 500 610 465 610 c 0
EndSplineSet
Substitution2: "'ss06' Style Set 6 lookup 45 subtable" ampersand.alt
Substitution2: "'salt' Alternativas estil+AO0A-sticas lookup 22 subtable" ampersand.alt
EndChar

StartChar: quotesingle
Encoding: 39 39 8
Width: 190
GlyphClass: 2
Flags: MW
HStem: 426 218<143 240>
VStem: 154 28
LayerCount: 2
Fore
SplineSet
143 426 m 1
 143 426 161 585 164 594 c 0
 169 616 199 644 229 644 c 0
 251 644 257 631 256 618 c 2
 255 611 l 2
 250 595 171 430 171 430 c 1
 143 426 l 1
EndSplineSet
EndChar

StartChar: parenleft
Encoding: 40 40 9
Width: 306
GlyphClass: 2
Flags: MW
HStem: 669 20G<448 448>
VStem: 86 73
LayerCount: 2
Fore
SplineSet
82 0 m 0
 72 50 71 102 76 154 c 0
 79 187 86 219 94 252 c 0
 120 343 162 425 223 503 c 0
 258 549 326 632 435 707 c 1
 448 689 l 1
 355 610 303 533 278 492 c 0
 231 417 196 338 172 252 c 0
 159 205 150 159 145 115 c 0
 141 79 140 44 143 11 c 0
 145 -32 153 -108 201 -187 c 1
 178 -204 l 1
 127 -145 96 -80 82 0 c 0
EndSplineSet
MultipleSubs2: "'c2sc' May+APoA-sculas a min+APoA-sculas lookup 12 subtable" parenleft.sc
Substitution2: "'case' Formas sensible a may+APoA-sculas lookup 8 subtable" parenleft.sc
Substitution2: "'subs' Sub+AO0A-ndice lookup 7 subtable" uni208D
Substitution2: "'sups' Supra+AO0A-ndice lookup 6 subtable" uni207D
Substitution2: "Single Substitution lookup 4 subtable" uni207D
Substitution2: "Single Substitution lookup 3 subtable" uni208D
EndChar

StartChar: parenright
Encoding: 41 41 10
Width: 313
GlyphClass: 2
Flags: MW
HStem: 671 20G<219 219>
VStem: 261 73
LayerCount: 2
Fore
SplineSet
338 504 m 0
 348 454 349 402 344 350 c 0
 341 317 334 285 326 252 c 0
 299 161 257 79 196 0 c 0
 161 -45 94 -128 -15 -203 c 1
 -28 -186 l 1
 65 -106 117 -29 142 12 c 0
 189 87 224 166 248 252 c 0
 261 299 270 345 275 389 c 0
 279 425 279 459 277 493 c 0
 275 536 267 612 219 691 c 1
 242 708 l 1
 293 649 324 583 338 504 c 0
EndSplineSet
MultipleSubs2: "'c2sc' May+APoA-sculas a min+APoA-sculas lookup 12 subtable" parenright.sc
Substitution2: "'case' Formas sensible a may+APoA-sculas lookup 8 subtable" parenright.sc
Substitution2: "'subs' Sub+AO0A-ndice lookup 7 subtable" uni208E
Substitution2: "'sups' Supra+AO0A-ndice lookup 6 subtable" uni207E
Substitution2: "Single Substitution lookup 4 subtable" uni207E
Substitution2: "Single Substitution lookup 3 subtable" uni208E
EndChar

StartChar: asterisk
Encoding: 42 42 11
Width: 433
GlyphClass: 2
Flags: MW
HStem: 547 20G 571 67<232.5 243 214.5 262.5>
VStem: 308 20<587 587> 326 73
LayerCount: 2
Fore
SplineSet
296 567 m 1x50
 284 570 270 571 255 571 c 0
 210 571 181 577 184 602 c 2
 184 608 l 1
 188 622 203 638 226 638 c 0
 260 638 269 605 308 587 c 1
 309 598 l 2
 312 626 306 648 308 668 c 0
 308 672 310 675 310 679 c 0
 316 700 334 718 352 718 c 0
 368 718 378 709 376 691 c 2
 375 683 l 1
 367 656 339 616 328 586 c 1x60
 379 606 405 638 439 638 c 0
 462 638 465 623 464 612 c 2
 463 608 l 2
 455 578 419 571 385 571 c 0x50
 365 571 347 570 329 567 c 1
 349 533 392 521 389 488 c 0
 389 485 388 483 387 480 c 0x90
 382 462 364 451 350 451 c 0
 311 451 322 516 308 555 c 1
 270 510 246 451 209 451 c 0
 194 451 185 462 186 475 c 2
 187 479 l 2
 200 522 252 530 296 567 c 1x50
EndSplineSet
EndChar

StartChar: plus
Encoding: 43 43 12
Width: 527
GlyphClass: 2
Flags: MW
HStem: 207 49<114 273 100 288 337 495 114 322> 410 20G<336 385 385 385>
VStem: 103 404
LayerCount: 2
Fore
SplineSet
337 256 m 1
 510 256 l 1
 495 207 l 1
 322 207 l 1
 273 34 l 1
 224 34 l 1
 273 207 l 1
 100 207 l 1
 114 256 l 1
 288 256 l 1
 336 430 l 1
 385 430 l 1
 337 256 l 1
EndSplineSet
Substitution2: "'subs' Sub+AO0A-ndice lookup 7 subtable" uni208A
Substitution2: "'sups' Supra+AO0A-ndice lookup 6 subtable" uni207A
Substitution2: "Single Substitution lookup 4 subtable" uni207A
Substitution2: "Single Substitution lookup 3 subtable" uni208A
EndChar

StartChar: comma
Encoding: 44 44 13
Width: 219
GlyphClass: 2
Flags: MW
HStem: -132 227
VStem: 127 48
LayerCount: 2
Fore
SplineSet
69 45 m 0
 72 76 103 95 133 95 c 0
 164 95 184 71 180 31 c 0
 175 -21 137 -111 19 -132 c 1
 12 -126 9 -118 13 -109 c 1
 67 -97 124 -50 127 -22 c 0
 129 -4 114 0 98 4 c 0
 80 9 66 21 69 45 c 0
EndSplineSet
EndChar

StartChar: hyphen
Encoding: 45 45 14
Width: 333
GlyphClass: 2
Flags: MW
HStem: 223 60<80.5 341 112 311>
VStem: 77 272
LayerCount: 2
Fore
SplineSet
311 223 m 2
 84 223 l 2
 77 223 75 232 76 240 c 0
 78 257 102 283 112 283 c 2
 341 283 l 2
 349 283 352 278 351 271 c 0
 349 256 326 223 311 223 c 2
EndSplineSet
MultipleSubs2: "'c2sc' May+APoA-sculas a min+APoA-sculas lookup 12 subtable" hyphen.sc
MultipleSubs2: "'smcp' Min+APoA-sculas a may+APoA-sculas peque+APEA-as lookup 10 subtable" hyphen.sc
Substitution2: "'case' Formas sensible a may+APoA-sculas lookup 8 subtable" hyphen.cap
Substitution2: "'subs' Sub+AO0A-ndice lookup 7 subtable" uni208B
Substitution2: "'sups' Supra+AO0A-ndice lookup 6 subtable" uni207B
Substitution2: "Single Substitution lookup 4 subtable" uni207B
Substitution2: "Single Substitution lookup 3 subtable" uni208B
EndChar

StartChar: period
Encoding: 46 46 15
Width: 219
GlyphClass: 2
Flags: MW
HStem: -11 106<113 120.5>
VStem: 63 108
LayerCount: 2
Fore
SplineSet
131 95 m 0
 157 95 175 76 172 51 c 0
 169 21 138 -11 103 -11 c 0
 77 -11 59 9 62 35 c 0
 65 62 95 95 131 95 c 0
EndSplineSet
EndChar

StartChar: slash
Encoding: 47 47 16
Width: 291
GlyphClass: 2
Flags: MW
HStem: -21 703<-37 439 -37 439>
VStem: 0 402
LayerCount: 2
Fore
SplineSet
439 682 m 1
 5 -21 l 1
 -37 -21 l 1
 398 682 l 1
 439 682 l 1
EndSplineSet
Substitution2: "'sups' Supra+AO0A-ndice lookup 6 subtable" fraction
Substitution2: "Single Substitution lookup 4 subtable" fraction
EndChar

StartChar: zero
Encoding: 48 48 17
Width: 444
GlyphClass: 2
Flags: MW
HStem: -10 32<177.5 213 177.5 215.5> 578 32<370.5 382.5>
VStem: 95 70 413 70
LayerCount: 2
Fore
SplineSet
193 -10 m 0
 97 -10 73 90 84 192 c 0
 103 372 208 525 297 581 c 0
 327 600 357 610 384 610 c 0
 484 610 506 513 495 412 c 0
 482 288 422 163 371 99 c 0
 308 20 238 -10 193 -10 c 0
374 578 m 0
 356 578 333 571 307 545 c 0
 263 502 165 302 148 141 c 0
 141 76 151 22 204 22 c 0
 222 22 273 30 320 113 c 0
 357 177 419 348 430 457 c 0
 436 512 427 545 413 561 c 0
 404 572 391 578 374 578 c 0
EndSplineSet
Substitution2: "'zero' Cero con barra diagonal lookup 19 subtable" zero.slash
Substitution2: "'pnum' Cifras proporcionales lookup 17 subtable" zero.fitted
Substitution2: "'onum' Cifras estilo antiguo lookup 15 subtable" zero.oldstyle
Substitution2: "'case' Formas sensible a may+APoA-sculas lookup 8 subtable" zero.cap
Substitution2: "'subs' Sub+AO0A-ndice lookup 7 subtable" uni2080
Substitution2: "'sups' Supra+AO0A-ndice lookup 6 subtable" uni2070
Substitution2: "Single Substitution lookup 4 subtable" uni2070
Substitution2: "Single Substitution lookup 3 subtable" uni2080
EndChar

StartChar: one
Encoding: 49 49 18
Width: 444
GlyphClass: 2
Flags: MW
HStem: -1 30
VStem: 235 73
LayerCount: 2
Fore
SplineSet
284 77 m 2
 276 50 284 33 326 30 c 2
 359 28 l 1
 361 23 357 3 353 -1 c 1
 303 0 277 0 229 0 c 0
 175 0 142 0 93 -1 c 1
 90 8 94 24 98 28 c 2
 134 30 l 2
 180 33 203 49 211 77 c 2
 322 449 l 2
 325 462 328 469 329 478 c 0
 331 494 327 503 317 503 c 0
 298 503 255 498 223 487 c 1
 219 496 217 505 218 516 c 1
 304 542 365 570 410 594 c 0
 420 599 428 604 437 609 c 0
 438 610 439 610 440 610 c 0
 443 610 445 608 445 606 c 2
 284 77 l 2
EndSplineSet
Substitution2: "'pnum' Cifras proporcionales lookup 17 subtable" one.fitted
Substitution2: "'onum' Cifras estilo antiguo lookup 15 subtable" one.oldstyle
Substitution2: "'case' Formas sensible a may+APoA-sculas lookup 8 subtable" one.cap
Substitution2: "'subs' Sub+AO0A-ndice lookup 7 subtable" uni2081
Substitution2: "'sups' Supra+AO0A-ndice lookup 6 subtable" uni00B9
Substitution2: "Single Substitution lookup 4 subtable" uni00B9
Substitution2: "Single Substitution lookup 3 subtable" uni2081
EndChar

StartChar: two
Encoding: 50 50 19
Width: 444
GlyphClass: 2
Flags: MW
HStem: 0 60<85 286 118 267> 579 31<356 375.5>
VStem: 149 78 407 78
LayerCount: 2
Fore
SplineSet
274 587 m 0
 303 601 337 610 375 610 c 0
 439 610 514 582 505 492 c 0
 496 406 405 322 350 279 c 2
 226 181 l 2
 219 176 133 109 118 60 c 1
 286 60 l 2
 320 60 343 80 375 140 c 1
 385 140 394 137 400 132 c 1
 400 132 368 50 340 -1 c 1
 340 -1 297 0 267 0 c 2
 100 0 l 2
 70 0 23 -1 23 -1 c 1
 28 15 33 31 42 47 c 0
 64 88 104 132 191 202 c 2
 284 276 l 2
 351 330 417 398 426 484 c 0
 433 550 390 579 361 579 c 0
 281 579 249 534 246 510 c 0
 245 504 247 492 246 485 c 0
 245 477 244 468 239 461 c 0
 231 447 215 434 198 434 c 0
 179 434 164 454 166 470 c 0
 170 507 214 559 274 587 c 0
EndSplineSet
Substitution2: "'pnum' Cifras proporcionales lookup 17 subtable" two.fitted
Substitution2: "'onum' Cifras estilo antiguo lookup 15 subtable" two.oldstyle
Substitution2: "'case' Formas sensible a may+APoA-sculas lookup 8 subtable" two.cap
Substitution2: "'subs' Sub+AO0A-ndice lookup 7 subtable" uni2082
Substitution2: "'sups' Supra+AO0A-ndice lookup 6 subtable" uni00B2
Substitution2: "Single Substitution lookup 4 subtable" uni00B2
Substitution2: "Single Substitution lookup 3 subtable" uni2082
EndChar

StartChar: three
Encoding: 51 51 20
Width: 444
GlyphClass: 2
Flags: MW
HStem: -10 31<162 193.5 162 228.5> 315 26 579 31<355 381.5>
VStem: 376 73 405 64
LayerCount: 2
Fore
SplineSet
362 579 m 0xe8
 335 579 261 560 244 500 c 0
 239 481 219 449 192 449 c 0
 177 449 173 461 174 473 c 0
 176 492 193 523 226 551 c 0
 262 582 319 610 391 610 c 0
 458 610 497 563 492 519 c 0xa8
 487 470 458 419 355 358 c 1
 409 348 449 302 441 228 c 0
 428 100 299 -10 158 -10 c 0
 121 -10 72 1 47 19 c 0
 37 27 31 35 32 45 c 0
 34 65 61 86 78 86 c 0
 105 86 109 62 124 43 c 0
 134 31 148 21 176 21 c 0
 211 21 257 42 296 77 c 0
 333 111 361 158 367 213 c 0xf0
 375 293 324 315 274 315 c 0
 261 315 248 313 232 311 c 1
 235 341 l 1
 313 351 418 432 426 504 c 0
 431 552 401 579 362 579 c 0xe8
EndSplineSet
Substitution2: "'pnum' Cifras proporcionales lookup 17 subtable" three.fitted
Substitution2: "'onum' Cifras estilo antiguo lookup 15 subtable" three.oldstyle
Substitution2: "'case' Formas sensible a may+APoA-sculas lookup 8 subtable" three.cap
Substitution2: "'subs' Sub+AO0A-ndice lookup 7 subtable" uni2083
Substitution2: "'sups' Supra+AO0A-ndice lookup 6 subtable" uni00B3
Substitution2: "Single Substitution lookup 4 subtable" uni00B3
Substitution2: "Single Substitution lookup 3 subtable" uni2083
EndChar

StartChar: four
Encoding: 52 52 21
Width: 445
GlyphClass: 2
Flags: MW
HStem: -2 30 171 42<82.5 315 112 303 381 434>
VStem: 75 407
LayerCount: 2
Fore
SplineSet
459 213 m 2
 467 213 472 210 471 203 c 0
 470 189 448 171 434 171 c 2
 369 171 l 1
 341 77 l 2
 332 44 342 31 367 29 c 2
 392 27 l 1
 394 22 389 2 386 -2 c 1
 356 -1 322 0 283 0 c 0
 241 0 208 -1 178 -2 c 1
 175 6 179 23 183 27 c 2
 209 29 l 2
 239 32 266 45 275 77 c 2
 303 171 l 1
 94 171 l 2
 71 171 60 190 66 209 c 1
 198 326 300 418 437 593 c 0
 442 598 462 610 473 610 c 2
 501 610 l 1
 497 600 487 563 471 510 c 2
 381 213 l 1
 459 213 l 2
403 504 m 1
 304 383 213 304 112 213 c 1
 315 213 l 1
 403 504 l 1
EndSplineSet
Substitution2: "'pnum' Cifras proporcionales lookup 17 subtable" four.fitted
Substitution2: "'onum' Cifras estilo antiguo lookup 15 subtable" four.oldstyle
Substitution2: "'case' Formas sensible a may+APoA-sculas lookup 8 subtable" four.cap
Substitution2: "'subs' Sub+AO0A-ndice lookup 7 subtable" uni2084
Substitution2: "'sups' Supra+AO0A-ndice lookup 6 subtable" uni2074
Substitution2: "Single Substitution lookup 4 subtable" uni2074
Substitution2: "Single Substitution lookup 3 subtable" uni2084
EndChar

StartChar: five
Encoding: 53 53 22
Width: 444
GlyphClass: 2
Flags: MW
HStem: -10 32<163 195 163 233.5> 346 44<290.5 305> 538 63<377.5 386 343.5 410>
VStem: 367 73
LayerCount: 2
Fore
SplineSet
358 217 m 0
 366 289 330 346 280 346 c 0
 244 346 200 342 144 323 c 1
 261 605 l 1
 294 603 326 601 361 601 c 0
 411 601 471 604 526 612 c 1
 498 545 l 1
 456 540 424 538 396 538 c 0
 359 538 317 541 281 546 c 1
 209 376 l 1
 231 384 269 390 312 390 c 0
 399 390 442 315 433 230 c 0
 420 102 300 -10 167 -10 c 0
 127 -10 80 1 55 20 c 0
 44 29 38 39 39 51 c 0
 41 71 63 89 84 89 c 0
 104 89 111 71 122 54 c 0
 132 38 147 22 179 22 c 0
 211 22 245 37 276 62 c 0
 318 97 351 152 358 217 c 0
EndSplineSet
Substitution2: "'pnum' Cifras proporcionales lookup 17 subtable" five.fitted
Substitution2: "'onum' Cifras estilo antiguo lookup 15 subtable" five.oldstyle
Substitution2: "'case' Formas sensible a may+APoA-sculas lookup 8 subtable" five.cap
Substitution2: "'subs' Sub+AO0A-ndice lookup 7 subtable" uni2085
Substitution2: "'sups' Supra+AO0A-ndice lookup 6 subtable" uni2075
Substitution2: "Single Substitution lookup 4 subtable" uni2075
Substitution2: "Single Substitution lookup 3 subtable" uni2085
EndChar

StartChar: six
Encoding: 54 54 23
Width: 444
GlyphClass: 2
Flags: MW
HStem: -10 30<204.5 261 204.5 264.5> 324 36<293.5 324> 584 28
VStem: 88 72 384 73
LayerCount: 2
Fore
SplineSet
535 584 m 1
 462 575 373 538 310 482 c 0
 260 438 211 376 182 309 c 1
 219 337 275 360 312 360 c 0
 437 360 455 279 448 215 c 0
 437 109 327 -10 202 -10 c 0
 128 -10 59 25 74 164 c 0
 77 194 97 351 242 483 c 0
 328 562 441 609 537 612 c 1
 539 603 538 594 535 584 c 1
173 279 m 1
 163 255 149 201 145 159 c 0
 134 54 185 20 224 20 c 0
 298 20 367 134 374 205 c 0
 379 255 365 324 283 324 c 0
 258 324 226 315 173 279 c 1
EndSplineSet
Substitution2: "'pnum' Cifras proporcionales lookup 17 subtable" six.fitted
Substitution2: "'onum' Cifras estilo antiguo lookup 15 subtable" six.oldstyle
Substitution2: "'case' Formas sensible a may+APoA-sculas lookup 8 subtable" six.cap
Substitution2: "'subs' Sub+AO0A-ndice lookup 7 subtable" uni2086
Substitution2: "'sups' Supra+AO0A-ndice lookup 6 subtable" uni2076
Substitution2: "Single Substitution lookup 4 subtable" uni2076
Substitution2: "Single Substitution lookup 3 subtable" uni2086
EndChar

StartChar: seven
Encoding: 55 55 24
Width: 444
GlyphClass: 2
Flags: MW
HStem: -10 21G<173 173> -6 21G<102 102> 544 57<274 298 298 481>
VStem: 134 402
LayerCount: 2
Fore
SplineSet
298 544 m 2x70
 246 544 228 531 195 473 c 1
 185 472 177 473 168 476 c 1
 191 526 209 565 225 611 c 0
 225 613 230 614 234 614 c 0
 238 614 242 613 243 611 c 0
 244 606 247 601 274 601 c 2
 482 601 l 2
 518 601 539 607 557 612 c 1
 567 600 l 1
 379 327 278 160 173 -10 c 1xb0
 107 -13 l 1
 102 -6 l 1
 213 148 348 347 481 544 c 1
 298 544 l 2x70
EndSplineSet
Substitution2: "'pnum' Cifras proporcionales lookup 17 subtable" seven.fitted
Substitution2: "'onum' Cifras estilo antiguo lookup 15 subtable" seven.oldstyle
Substitution2: "'case' Formas sensible a may+APoA-sculas lookup 8 subtable" seven.cap
Substitution2: "'subs' Sub+AO0A-ndice lookup 7 subtable" uni2087
Substitution2: "'sups' Supra+AO0A-ndice lookup 6 subtable" uni2077
Substitution2: "Single Substitution lookup 4 subtable" uni2077
Substitution2: "Single Substitution lookup 3 subtable" uni2087
EndChar

StartChar: eight
Encoding: 56 56 25
Width: 444
GlyphClass: 2
Flags: MW
HStem: -10 28<190.5 252.5 190.5 263> 582 28<335.5 392>
VStem: 79 60 159 65 374 69 423 61
LayerCount: 2
Fore
SplineSet
438 399 m 0xf4
 414 381 384 362 348 339 c 1
 386 312 l 2
 426 284 436 242 432 200 c 0
 420 82 325 -10 201 -10 c 0
 116 -10 51 28 60 118 c 0xe8
 72 228 176 279 250 323 c 1
 232 338 l 2
 190 372 170 403 174 443 c 0
 183 527 281 610 379 610 c 0
 462 610 512 563 505 500 c 0
 501 458 477 429 438 399 c 0xf4
211 18 m 0
 294 18 351 84 360 170 c 0
 364 209 348 245 306 278 c 2
 277 301 l 1
 204 257 129 200 121 124 c 0
 113 48 170 18 211 18 c 0
365 582 m 0xf4
 306 582 247 518 242 471 c 0
 239 442 246 417 299 376 c 2
 320 360 l 1
 425 436 441 467 444 496 c 0
 448 533 419 582 365 582 c 0xf4
EndSplineSet
Substitution2: "'pnum' Cifras proporcionales lookup 17 subtable" eight.fitted
Substitution2: "'onum' Cifras estilo antiguo lookup 15 subtable" eight.oldstyle
Substitution2: "'case' Formas sensible a may+APoA-sculas lookup 8 subtable" eight.cap
Substitution2: "'subs' Sub+AO0A-ndice lookup 7 subtable" uni2088
Substitution2: "'sups' Supra+AO0A-ndice lookup 6 subtable" uni2078
Substitution2: "Single Substitution lookup 4 subtable" uni2078
Substitution2: "Single Substitution lookup 3 subtable" uni2088
EndChar

StartChar: nine
Encoding: 57 57 26
Width: 444
GlyphClass: 2
Flags: MW
HStem: -12 28 240 36<258 288.5> 580 30<322 377.5>
VStem: 125 73 422 72
LayerCount: 2
Fore
SplineSet
47 16 m 1
 120 25 209 62 272 118 c 0
 322 162 371 224 400 291 c 1
 363 263 307 240 270 240 c 0
 145 240 127 321 134 385 c 0
 145 491 255 610 380 610 c 0
 454 610 523 575 508 436 c 0
 505 406 485 249 340 117 c 0
 254 38 141 -9 45 -12 c 1
 43 -3 44 6 47 16 c 1
409 321 m 1
 419 345 433 399 437 441 c 0
 448 546 397 580 358 580 c 0
 286 580 215 466 208 395 c 0
 203 345 217 276 299 276 c 0
 324 276 356 285 409 321 c 1
EndSplineSet
Substitution2: "'pnum' Cifras proporcionales lookup 17 subtable" nine.fitted
Substitution2: "'onum' Cifras estilo antiguo lookup 15 subtable" nine.oldstyle
Substitution2: "'case' Formas sensible a may+APoA-sculas lookup 8 subtable" nine.cap
Substitution2: "'subs' Sub+AO0A-ndice lookup 7 subtable" uni2089
Substitution2: "'sups' Supra+AO0A-ndice lookup 6 subtable" uni2079
Substitution2: "Single Substitution lookup 4 subtable" uni2079
Substitution2: "Single Substitution lookup 3 subtable" uni2089
EndChar

StartChar: colon
Encoding: 58 58 27
Width: 219
GlyphClass: 2
Flags: MW
HStem: 7 106<104 112.5> 306 106<199 207.5>
VStem: 70 108 134 108
LayerCount: 2
Fore
SplineSet
217 412 m 0xd0
 243 412 262 393 259 368 c 0
 256 338 225 306 190 306 c 0
 164 306 146 326 149 352 c 0
 152 379 181 412 217 412 c 0xd0
122 113 m 0xe0
 148 113 166 94 163 69 c 0
 160 39 130 7 95 7 c 0
 69 7 51 27 54 53 c 0
 57 80 86 113 122 113 c 0xe0
EndSplineSet
EndChar

StartChar: semicolon
Encoding: 59 59 28
Width: 219
GlyphClass: 2
Flags: MW
HStem: 301 106<197 205.5>
VStem: 125 108 136 48
LayerCount: 2
Fore
SplineSet
61 45 m 0xa0
 64 76 96 95 126 95 c 0
 157 95 177 71 173 31 c 0
 168 -21 130 -111 12 -132 c 1
 5 -126 2 -118 6 -109 c 1
 60 -97 116 -50 119 -22 c 0
 121 -4 107 0 91 4 c 0
 73 9 58 21 61 45 c 0xa0
215 407 m 0xc0
 241 407 260 388 257 363 c 0
 254 333 223 301 188 301 c 0
 162 301 144 321 147 347 c 0
 150 374 179 407 215 407 c 0xc0
EndSplineSet
EndChar

StartChar: less
Encoding: 60 60 29
Width: 487
GlyphClass: 2
Flags: MW
HStem: 73 331<435 527>
VStem: 87 423
LayerCount: 2
Fore
SplineSet
164 239 m 1
 448 123 l 1
 435 73 l 1
 85 215 l 1
 98 263 l 1
 527 404 l 1
 513 354 l 1
 164 239 l 1
EndSplineSet
EndChar

StartChar: equal
Encoding: 61 61 30
Width: 527
GlyphClass: 2
Flags: MW
HStem: 144 49<96 478 82 492> 269 49<131 513 117 527>
VStem: 91 427
LayerCount: 2
Fore
SplineSet
492 193 m 1
 478 144 l 1
 82 144 l 1
 96 193 l 1
 492 193 l 1
527 318 m 1
 513 269 l 1
 117 269 l 1
 131 318 l 1
 527 318 l 1
EndSplineSet
Substitution2: "'subs' Sub+AO0A-ndice lookup 7 subtable" uni208C
Substitution2: "'sups' Supra+AO0A-ndice lookup 6 subtable" uni207C
Substitution2: "Single Substitution lookup 4 subtable" uni207C
Substitution2: "Single Substitution lookup 3 subtable" uni208C
EndChar

StartChar: greater
Encoding: 62 62 31
Width: 487
GlyphClass: 2
Flags: MW
HStem: 71 331<45 137>
VStem: 62 423
LayerCount: 2
Fore
SplineSet
407 236 m 1
 123 352 l 1
 137 402 l 1
 487 260 l 1
 474 212 l 1
 45 71 l 1
 58 121 l 1
 407 236 l 1
EndSplineSet
EndChar

StartChar: question
Encoding: 63 63 32
Width: 405
GlyphClass: 2
Flags: MW
HStem: -11 21G<163 193.5> -11 106<185 193.5> 629 30<320.5 380>
VStem: 146 81 165 108 228 26 408 78
LayerCount: 2
Fore
SplineSet
167 520 m 0xb2
 172 568 242 659 373 659 c 0
 463 659 517 612 509 539 c 0
 494 398 330 355 287 301 c 0
 266 276 255 252 247 228 c 2
 235 184 l 2
 233 177 227 174 219 174 c 0
 212 174 207 177 209 184 c 2xa6
 222 230 l 2
 277 419 415 390 430 530 c 0
 436 584 405 629 355 629 c 0
 286 629 247 593 244 563 c 0
 243 557 245 551 247 546 c 0
 249 542 250 537 249 532 c 0
 247 512 228 487 197 487 c 0
 183 487 164 493 167 520 c 0xb2
203 95 m 0x6a
 229 95 247 76 244 51 c 0
 241 21 211 -11 176 -11 c 0
 150 -11 132 9 135 35 c 0
 138 62 167 95 203 95 c 0x6a
EndSplineSet
EndChar

StartChar: at
Encoding: 64 64 33
Width: 829
GlyphClass: 2
Flags: MW
HStem: -158 33<255 399.5> 27 35<546 595 546 597> 29 41<363 368> 379 31<556 580.5> 581 30<515.5 644.5>
VStem: 91 77 282 69 493 64 772 75
LayerCount: 2
Fore
SplineSet
541 74 m 0xdf80
 538 64 545 62 547 62 c 0
 643 62 717 109 769 275 c 0
 835 481 703 581 586 581 c 0
 445 581 257 478 181 241 c 0
 133 91 135 -125 375 -125 c 0
 454 -125 519 -102 583 -59 c 1
 590 -77 l 1
 519 -123 452 -158 347 -158 c 0
 126 -158 33 10 101 223 c 0
 169 438 395 611 605 611 c 0
 805 611 905 469 845 282 c 0
 808 168 698 27 496 27 c 0
 470 27 470 52 476 68 c 0xdf80
 481 83 494 106 510 131 c 1
 508 132 l 1
 443 58 384 29 352 29 c 0xbf80
 259 29 265 113 277 153 c 0
 322 296 477 410 576 410 c 0
 606 410 633 393 634 367 c 1
 646 391 l 1
 700 404 l 1
 711 399 l 1
 574 141 l 2
 560 114 544 83 541 74 c 0xdf80
605 316 m 0
 617 354 597 379 564 379 c 0
 548 379 506 370 468 339 c 0
 404 288 368 224 348 162 c 0
 333 114 334 70 392 70 c 0xbf80
 424 70 488 127 539 200 c 0
 562 231 593 282 605 316 c 0
EndSplineSet
EndChar

StartChar: A
Encoding: 65 65 34
Width: 667
GlyphClass: 2
Flags: MW
HStem: -2 29<-31 -17 627 627> 241 42<261.5 469 302 469 302 473> 638 20G<504 518>
VStem: 3 663
AnchorPoint: "Anchor-5" 83 5 basechar 0
AnchorPoint: "Anchor-2" 262 -108 basechar 0
AnchorPoint: "Anchor-0" 560 850 basechar 0
LayerCount: 2
Fore
SplineSet
135 79 m 2
 129 71 126 63 125 56 c 0
 123 41 134 31 159 29 c 2
 185 27 l 2
 189 27 193 24 191 19 c 2
 187 0 l 1
 183 -2 l 1
 148 -1 98 0 59 0 c 0
 22 0 5 -1 -31 -2 c 1
 -31 0 l 1
 -26 19 l 2
 -24 24 -22 27 -17 27 c 0
 25 30 54 40 98 102 c 2
 468 622 l 2
 487 649 497 658 511 658 c 0
 525 658 527 647 528 628 c 2
 563 86 l 2
 565 47 578 32 616 28 c 2
 626 27 l 2
 631 27 636 24 634 19 c 2
 630 0 l 1
 627 -2 l 1
 592 -1 554 0 515 0 c 0
 478 0 423 -1 387 -2 c 1
 387 0 l 1
 391 19 l 2
 393 24 395 27 399 27 c 2
 428 29 l 2
 461 32 478 41 480 63 c 0
 480 66 481 69 480 72 c 2
 473 241 l 1
 273 241 l 2
 250 241 242 237 234 224 c 2
 135 79 l 2
302 283 m 2
 469 283 l 1
 456 550 l 1
 454 550 l 1
 283 296 l 2
 282 294 280 292 280 290 c 0
 279 285 286 283 302 283 c 2
EndSplineSet
MultipleSubs2: "'c2sc' May+APoA-sculas a min+APoA-sculas lookup 12 subtable" a.sc
Position2: "'cpsp' Espaciado de may+APoA-sculas lookup 3 subtable" dx=2 dy=0 dh=5 dv=1
EndChar

StartChar: B
Encoding: 66 66 35
Width: 557
GlyphClass: 2
Flags: MW
HStem: -2 29<-16 -3> -2 34<206 307 206 338.5> 332 34<245 326 255 311> 613 34<399 436.5> 618 29<171.5 178>
VStem: 137 7 470 89 486 76
AnchorPoint: "Anchor-5" 216 0 basechar 0
AnchorPoint: "Anchor-2" 193 -108 basechar 0
AnchorPoint: "Anchor-0" 502 850 basechar 0
LayerCount: 2
Fore
SplineSet
-12 19 m 2x75
 -10 24 -8 27 -3 27 c 2
 26 29 l 2
 67 32 78 36 89 71 c 2
 239 574 l 2
 242 581 242 587 243 592 c 0
 245 610 235 614 202 616 c 2
 174 618 l 2
 169 618 169 621 169 625 c 2xad
 175 645 l 1
 178 647 l 1
 223 646 262 645 299 645 c 0
 338 645 382 647 416 647 c 0
 563 647 590 588 584 530 c 0
 583 517 579 505 576 493 c 0x75
 560 439 503 387 447 362 c 1
 447 360 l 1
 513 338 556 294 548 221 c 0
 547 209 543 197 540 184 c 0x76
 514 98 434 -2 243 -2 c 0
 157 -2 144 0 106 0 c 0
 68 0 29 -1 -16 -2 c 1
 -18 0 l 1
 -12 19 l 2x75
245 332 m 1
 168 78 l 2
 166 73 166 68 166 64 c 0
 164 41 178 32 234 32 c 0
 380 32 426 92 449 165 c 0
 452 178 456 190 457 202 c 0x76
 465 275 424 332 311 332 c 2
 245 332 l 1
316 570 m 2
 255 366 l 1
 326 366 l 2
 406 366 473 396 499 481 c 0
 503 494 505 505 506 516 c 0x75
 514 590 460 613 413 613 c 0
 329 613 325 603 316 570 c 2
EndSplineSet
MultipleSubs2: "'c2sc' May+APoA-sculas a min+APoA-sculas lookup 12 subtable" b.sc
Position2: "'cpsp' Espaciado de may+APoA-sculas lookup 3 subtable" dx=2 dy=0 dh=5 dv=1
EndChar

StartChar: C
Encoding: 67 67 36
Width: 616
GlyphClass: 2
Flags: MW
HStem: -10 41<254 349.5> 621 37<444 548.5>
VStem: 89 86 632 29
AnchorPoint: "Anchor-5" 321 -7 basechar 0
AnchorPoint: "Anchor-2" 287 -110 basechar 0
AnchorPoint: "Anchor-0" 555 850 basechar 0
LayerCount: 2
Fore
SplineSet
303 -10 m 0
 129 -10 66 108 80 241 c 0
 83 266 87 290 95 315 c 0
 154 512 345 658 504 658 c 0
 622 658 646 616 700 613 c 1
 688 559 681 510 675 458 c 1
 646 454 l 1
 647 540 615 621 482 621 c 0
 406 621 245 537 184 334 c 0
 176 306 170 277 167 250 c 0
 155 133 194 31 314 31 c 0
 403 31 479 62 570 140 c 1
 581 140 585 134 587 125 c 1
 496 36 396 -10 303 -10 c 0
EndSplineSet
MultipleSubs2: "'c2sc' May+APoA-sculas a min+APoA-sculas lookup 12 subtable" c.sc
Position2: "'cpsp' Espaciado de may+APoA-sculas lookup 3 subtable" dx=2 dy=0 dh=5 dv=1
EndChar

StartChar: D
Encoding: 68 68 37
Width: 667
GlyphClass: 2
Flags: MW
HStem: -2 29<-16 -3> -2 34<229.5 326.5 219 347> 613 34<425.5 493.5> 618 29<173.5 178>
VStem: 215 76 603 91
AnchorPoint: "Anchor-5" 246 4 basechar 0
AnchorPoint: "Anchor-2" 234 -107 basechar 0
AnchorPoint: "Anchor-0" 451 850 basechar 0
LayerCount: 2
Fore
SplineSet
-13 18 m 2x6c
 -11 23 -7 27 -3 27 c 2
 26 29 l 2
 60 31 81 42 90 74 c 2
 239 572 l 2
 241 579 242 585 243 590 c 0
 245 610 234 614 202 616 c 2
 176 618 l 2
 171 618 168 621 170 626 c 2x9c
 175 645 l 1
 178 647 l 1
 223 646 262 645 299 645 c 0
 338 645 395 647 456 647 c 0
 617 647 716 530 700 375 c 0
 698 354 692 331 685 308 c 0
 612 62 415 -2 279 -2 c 0
 180 -2 143 0 106 0 c 0
 67 0 29 -1 -16 -2 c 1
 -18 0 l 1
 -13 18 l 2x6c
167 73 m 2
 165 68 164 64 164 60 c 0
 162 39 179 32 259 32 c 0
 394 32 530 82 590 284 c 0
 599 314 605 344 608 374 c 0
 621 499 577 613 410 613 c 0
 363 613 328 609 317 574 c 2
 167 73 l 2
EndSplineSet
MultipleSubs2: "'c2sc' May+APoA-sculas a min+APoA-sculas lookup 12 subtable" d.sc
Position2: "'cpsp' Espaciado de may+APoA-sculas lookup 3 subtable" dx=2 dy=0 dh=5 dv=1
EndChar

StartChar: E
Encoding: 69 69 38
Width: 526
GlyphClass: 2
Flags: MW
HStem: 0 27<-23 -7> 0 39<187 307> 323 38<249 359 237 371> 412 20G<474 474> 416 20G<451 472 472 472> 605 40<345.5 357 357 457> 618 27<166.5 171> 629 20G<583 584.5>
VStem: 400 29 517 36
AnchorPoint: "Anchor-5" 245 4 basechar 0
AnchorPoint: "Anchor-2" 224 -107 basechar 0
AnchorPoint: "Anchor-0" 468 850 basechar 0
LayerCount: 2
Fore
SplineSet
587 646 m 0x69c0
 586 638 572 542 564 501 c 1
 535 496 l 1
 534 565 529 605 457 605 c 2
 357 605 l 2
 334 605 319 595 311 571 c 2
 249 361 l 1
 371 361 l 2
 404 361 419 375 431 403 c 2
 441 428 l 2
 442 432 447 436 451 436 c 2x6cc0
 472 436 l 1
 474 432 l 1
 459 392 449 362 444 342 c 0
 438 322 430 295 422 255 c 1
 416 252 l 1
 395 252 l 2
 390 252 390 257 391 260 c 2
 396 285 l 2
 396 288 398 291 398 293 c 0
 400 316 389 323 359 323 c 2
 237 323 l 1
 162 72 l 2
 161 68 160 65 160 62 c 0
 158 43 169 39 187 39 c 2
 317 39 l 2
 390 39 445 98 486 170 c 1
 514 165 l 1
 487 113 455 50 429 -2 c 1
 429 -2 353 0 307 0 c 2
 101 0 l 2
 64 0 24 -1 -21 -2 c 1
 -23 0 l 1x74c0
 -17 20 l 2
 -16 23 -13 27 -7 27 c 2
 22 29 l 2
 60 32 76 44 85 72 c 2
 234 571 l 2
 236 576 237 581 237 585 c 0
 239 606 228 614 198 616 c 2
 170 618 l 2
 163 618 164 622 165 625 c 2xaac0
 171 645 l 1
 173 647 l 1
 218 646 257 645 294 645 c 2
 537 645 l 2x6cc0
 560 645 566 646 583 649 c 0
 586 649 587 648 587 646 c 0x69c0
EndSplineSet
MultipleSubs2: "'c2sc' May+APoA-sculas a min+APoA-sculas lookup 12 subtable" e.sc
Position2: "'cpsp' Espaciado de may+APoA-sculas lookup 3 subtable" dx=2 dy=0 dh=5 dv=1
EndChar

StartChar: F
Encoding: 70 70 39
Width: 457
GlyphClass: 2
Flags: MW
HStem: -2 29<-20 -6> 323 38<249 359 237 371> 412 20G<474 474> 416 20G<451 472 472 472> 605 40<345.5 357 357 457> 618 27<166.5 171> 629 20G<584 585>
VStem: 400 29 517 36
AnchorPoint: "Anchor-5" 111 -1 basechar 0
AnchorPoint: "Anchor-2" 85 -111 basechar 0
AnchorPoint: "Anchor-0" 461 850 basechar 0
LayerCount: 2
Fore
SplineSet
359 323 m 2xd980
 237 323 l 1
 163 74 l 2
 161 69 160 65 160 61 c 0
 158 40 170 32 202 29 c 2
 226 27 l 2
 231 27 234 24 232 19 c 2
 226 0 l 1
 224 -2 l 1
 179 -1 140 0 101 0 c 0
 64 0 25 -1 -20 -2 c 1
 -22 0 l 1
 -16 19 l 2
 -14 24 -11 27 -6 27 c 2
 20 29 l 2
 61 32 77 46 85 74 c 2
 234 571 l 2
 236 577 237 581 238 586 c 0
 240 606 229 614 198 616 c 2
 170 618 l 2
 163 618 164 622 165 625 c 2xd580
 171 645 l 1
 173 647 l 1
 218 646 257 645 294 645 c 2
 538 645 l 2xd980
 561 645 566 646 584 649 c 0
 586 649 587 648 587 646 c 0xd380
 586 638 571 542 564 501 c 1
 535 496 l 1
 534 565 529 605 457 605 c 2
 357 605 l 2
 334 605 319 595 311 571 c 2
 249 361 l 1
 371 361 l 2
 404 361 419 375 431 403 c 2
 441 428 l 2
 442 432 447 436 451 436 c 2xd980
 472 436 l 1
 474 432 l 1
 459 392 449 362 444 342 c 0xe980
 438 322 430 295 422 255 c 1
 416 252 l 1
 395 252 l 2
 390 252 390 257 391 260 c 2
 396 285 l 2
 396 288 398 291 398 293 c 0
 400 316 389 323 359 323 c 2xd980
EndSplineSet
MultipleSubs2: "'c2sc' May+APoA-sculas a min+APoA-sculas lookup 12 subtable" f.sc
Position2: "'cpsp' Espaciado de may+APoA-sculas lookup 3 subtable" dx=2 dy=0 dh=5 dv=1
EndChar

StartChar: G
Encoding: 71 71 40
Width: 664
GlyphClass: 2
Flags: MW
HStem: -10 36<278 374.5> 271 36<485 492> 621 37<439.5 567.5>
VStem: 84 88 649 30
AnchorPoint: "Anchor-5" 331 2 basechar 0
AnchorPoint: "Anchor-2" 299 -110 basechar 0
AnchorPoint: "Anchor-0" 568 850 basechar 0
LayerCount: 2
Fore
SplineSet
522 658 m 0
 639 658 660 613 718 613 c 1
 703 541 697 501 693 459 c 1
 663 453 l 1
 664 539 637 621 498 621 c 0
 368 621 229 502 177 327 c 0
 171 308 168 288 166 268 c 0
 154 150 205 26 351 26 c 0
 403 26 464 42 506 74 c 1
 552 227 l 2
 554 232 554 236 554 240 c 0
 556 260 543 267 511 269 c 2
 487 271 l 2
 483 271 480 274 482 279 c 2
 490 305 l 1
 492 307 l 1
 537 306 576 305 613 305 c 0
 652 305 673 306 702 307 c 1
 704 305 l 1
 696 279 l 2
 694 274 690 272 685 271 c 0
 657 268 640 262 630 227 c 2
 595 111 l 2
 592 100 594 92 602 83 c 1
 519 25 431 -10 318 -10 c 0
 149 -10 60 100 75 243 c 0
 77 264 82 285 88 307 c 0
 154 527 357 658 522 658 c 0
EndSplineSet
MultipleSubs2: "'c2sc' May+APoA-sculas a min+APoA-sculas lookup 12 subtable" g.sc
Position2: "'cpsp' Espaciado de may+APoA-sculas lookup 3 subtable" dx=2 dy=0 dh=5 dv=1
EndChar

StartChar: H
Encoding: 72 72 41
Width: 673
GlyphClass: 2
Flags: MW
HStem: -2 30 321 42<254 554 241 567> 616 30
VStem: 19 758
AnchorPoint: "Anchor-5" 116 0 basechar 0
AnchorPoint: "Anchor-2" 275 -107 basechar 0
AnchorPoint: "Anchor-0" 536 850 basechar 0
LayerCount: 2
Fore
SplineSet
629 569 m 2
 638 599 629 612 590 615 c 2
 556 618 l 1
 554 623 559 642 562 646 c 1
 606 645 651 645 689 645 c 0
 728 645 764 645 809 646 c 1
 812 637 808 622 804 618 c 2
 773 615 l 2
 732 611 715 597 706 569 c 2
 557 76 l 2
 548 46 557 33 596 30 c 2
 630 27 l 1
 632 22 627 2 624 -2 c 1
 580 -1 535 0 497 0 c 0
 458 0 422 -1 377 -2 c 1
 374 7 378 23 382 27 c 2
 413 30 l 2
 454 34 471 48 480 76 c 2
 554 321 l 1
 241 321 l 1
 167 76 l 2
 158 46 167 33 206 30 c 2
 240 27 l 1
 242 22 237 2 234 -2 c 1
 190 -1 145 0 107 0 c 0
 68 0 32 -1 -13 -2 c 1
 -16 7 -12 23 -8 27 c 2
 23 30 l 2
 64 34 81 48 90 76 c 2
 239 569 l 2
 248 599 239 612 200 615 c 2
 166 618 l 1
 164 623 169 642 172 646 c 1
 216 645 261 645 299 645 c 0
 338 645 374 645 419 646 c 1
 422 637 418 622 414 618 c 2
 383 615 l 2
 342 611 325 597 316 569 c 2
 254 363 l 1
 567 363 l 1
 629 569 l 2
EndSplineSet
MultipleSubs2: "'c2sc' May+APoA-sculas a min+APoA-sculas lookup 12 subtable" h.sc
Position2: "'cpsp' Espaciado de may+APoA-sculas lookup 3 subtable" dx=2 dy=0 dh=5 dv=1
EndChar

StartChar: I
Encoding: 73 73 42
Width: 280
GlyphClass: 2
Flags: MW
HStem: -2 30 616 30
VStem: 19 368
AnchorPoint: "Anchor-5" 111 1 basechar 0
AnchorPoint: "Anchor-2" 82 -109 basechar 0
AnchorPoint: "Anchor-0" 371 850 basechar 0
LayerCount: 2
Fore
SplineSet
239 569 m 2
 248 599 239 612 200 615 c 2
 166 618 l 1
 164 623 169 642 172 646 c 1
 216 645 261 645 299 645 c 0
 338 645 374 645 419 646 c 1
 422 637 418 622 414 618 c 2
 383 615 l 2
 342 611 325 597 316 569 c 2
 167 76 l 2
 158 46 167 33 206 30 c 2
 240 27 l 1
 242 22 237 2 234 -2 c 1
 190 -1 145 0 107 0 c 0
 68 0 32 -1 -13 -2 c 1
 -16 7 -12 23 -8 27 c 2
 23 30 l 2
 64 34 81 48 90 76 c 2
 239 569 l 2
EndSplineSet
MultipleSubs2: "'c2sc' May+APoA-sculas a min+APoA-sculas lookup 12 subtable" i.sc
Position2: "'cpsp' Espaciado de may+APoA-sculas lookup 3 subtable" dx=2 dy=0 dh=5 dv=1
EndChar

StartChar: J
Encoding: 74 74 43
Width: 315
GlyphClass: 2
Flags: MW
HStem: -172 45<-71.5 16.5> 618 29
VStem: 253 168
AnchorPoint: "Anchor-6" 255 315 basechar 0
AnchorPoint: "Anchor-0" 411 850 basechar 0
LayerCount: 2
Fore
SplineSet
356 523 m 2
 229 103 l 2
 185 -42 115 -93 63 -130 c 0
 14 -165 -20 -172 -62 -172 c 0
 -81 -172 -123 -156 -120 -124 c 0
 -117 -97 -83 -79 -69 -79 c 0
 -40 -79 -31 -96 -26 -109 c 0
 -22 -119 -12 -127 1 -127 c 0
 32 -127 89 -100 144 81 c 2
 277 523 l 2
 283 543 287 558 288 570 c 0
 292 608 271 616 215 618 c 1
 210 627 215 643 220 647 c 1
 266 646 299 645 349 645 c 0
 393 645 415 646 461 647 c 1
 466 638 461 622 456 618 c 0
 400 615 382 607 356 523 c 2
EndSplineSet
Substitution2: "'ss02' Estilo 2 lookup 41 subtable" J.alt
Substitution2: "'salt' Alternativas estil+AO0A-sticas lookup 20 subtable" J.alt
MultipleSubs2: "'c2sc' May+APoA-sculas a min+APoA-sculas lookup 12 subtable" j.sc
Position2: "'cpsp' Espaciado de may+APoA-sculas lookup 3 subtable" dx=2 dy=0 dh=5 dv=1
EndChar

StartChar: K
Encoding: 75 75 44
Width: 637
GlyphClass: 2
Flags: MW
HStem: -2 30<567 570> -2 30<567 570> 309 38<249 249 249 255> 616 30<548 564> 618 29
VStem: 19 703
AnchorPoint: "Anchor-5" 114 -1 basechar 0
AnchorPoint: "Anchor-2" 247 -110 basechar 0
AnchorPoint: "Anchor-0" 521 850 basechar 0
LayerCount: 2
Fore
SplineSet
239 569 m 2x74
 248 599 239 612 200 615 c 2
 166 618 l 1
 164 623 169 642 172 646 c 1
 216 645 261 645 299 645 c 0
 338 645 374 645 419 646 c 1
 422 637 418 622 414 618 c 2
 383 615 l 2
 342 611 325 597 316 569 c 2x74
 249 347 l 1
 286 349 312 364 338 386 c 2
 552 562 l 2
 572 579 584 593 585 602 c 0
 586 609 580 614 564 616 c 2
 545 618 l 2
 541 618 538 621 540 626 c 2x6c
 545 645 l 1
 548 646 l 1
 593 645 620 645 659 645 c 0
 697 645 708 645 753 646 c 1
 756 645 l 1x74
 750 626 l 2
 748 621 742 618 737 618 c 0
 696 613 658 607 599 558 c 2
 419 407 l 2
 377 372 372 365 369 358 c 0
 367 350 367 343 373 333 c 2
 506 73 l 2
 521 42 540 32 567 28 c 2
 573 27 l 2
 577 26 581 24 579 19 c 2xac
 574 0 l 1
 570 -2 l 1
 525 -1 508 0 471 0 c 0
 442 0 423 -1 403 -2 c 1
 402 0 l 1
 404 6 l 2
 407 15 410 24 411 35 c 0
 412 47 411 60 405 73 c 2
 308 271 l 2
 296 298 272 309 238 309 c 1
 241 322 l 1
 167 76 l 2
 158 46 167 33 206 30 c 2
 240 27 l 1
 242 22 237 2 234 -2 c 1
 190 -1 145 0 107 0 c 0
 68 0 32 -1 -13 -2 c 1
 -16 7 -12 23 -8 27 c 2
 23 30 l 2
 64 34 81 48 90 76 c 2
 239 569 l 2x74
EndSplineSet
Substitution2: "'ss02' Estilo 2 lookup 41 subtable" K.alt
Substitution2: "'salt' Alternativas estil+AO0A-sticas lookup 20 subtable" K.alt
MultipleSubs2: "'c2sc' May+APoA-sculas a min+APoA-sculas lookup 12 subtable" k.sc
Position2: "'cpsp' Espaciado de may+APoA-sculas lookup 3 subtable" dx=2 dy=0 dh=5 dv=1
EndChar

StartChar: L
Encoding: 76 76 45
Width: 519
GlyphClass: 2
Flags: MW
HStem: 0 28 0 39<202 311> 163 7 616 30
VStem: 20 497
AnchorPoint: "Anchor-5" 226 1 basechar 0
AnchorPoint: "Anchor-2" 207 -110 basechar 0
AnchorPoint: "Anchor-0" 444 850 basechar 0
LayerCount: 2
Fore
SplineSet
91 76 m 2x98
 239 569 l 2
 248 599 239 612 200 615 c 2
 166 618 l 1
 164 623 169 642 172 646 c 1
 216 645 261 645 299 645 c 0
 338 645 374 645 419 646 c 1
 422 637 418 622 414 618 c 2
 383 615 l 2
 342 611 325 597 316 569 c 2
 171 89 l 2
 169 84 169 80 169 76 c 0
 167 53 178 39 202 39 c 2
 312 39 l 2
 385 39 439 109 473 170 c 1
 483 172 495 169 500 163 c 1
 474 111 446 54 425 -2 c 1
 425 -2 337 0 311 0 c 2
 108 0 l 2
 69 0 33 -1 -12 -2 c 1x78
 -15 7 -11 23 -7 27 c 2
 24 30 l 2
 65 34 83 48 91 76 c 2x98
EndSplineSet
MultipleSubs2: "'c2sc' May+APoA-sculas a min+APoA-sculas lookup 12 subtable" l.sc
Position2: "'cpsp' Espaciado de may+APoA-sculas lookup 3 subtable" dx=2 dy=0 dh=5 dv=1
EndChar

StartChar: M
Encoding: 77 77 46
Width: 804
GlyphClass: 2
Flags: MW
HStem: -6 21G<342 347.5> -2 29<-16 -3 157 157 753 753> 618 29<219 219 219 220 891 893.5>
VStem: 16 858
AnchorPoint: "Anchor-5" 76 2 basechar 0
AnchorPoint: "Anchor-2" 318 -110 basechar 0
AnchorPoint: "Anchor-0" 613 850 basechar 0
LayerCount: 2
Fore
SplineSet
630 87 m 2x70
 737 534 l 1
 735 534 l 1
 361 5 l 2
 355 -3 350 -6 345 -6 c 0
 339 -6 334 -2 333 5 c 2xb0
 290 524 l 1
 288 524 l 1
 116 86 l 2
 112 77 111 68 110 60 c 0
 108 43 113 30 132 29 c 2
 156 27 l 2
 161 27 164 24 163 19 c 2
 160 0 l 1
 157 -2 l 1
 129 -1 92 0 69 0 c 0
 46 0 13 -1 -16 -2 c 1
 -18 0 l 1
 -14 19 l 2
 -12 24 -9 27 -3 27 c 2
 23 29 l 2
 53 31 69 59 79 86 c 2
 272 574 l 2
 275 582 276 588 277 594 c 0
 278 608 270 614 247 616 c 2
 220 618 l 2
 213 618 213 621 213 625 c 2
 217 645 l 1
 219 647 l 1
 363 646 l 1
 408 137 l 2
 408 128 408 124 411 124 c 0
 413 124 417 128 424 138 c 2
 780 647 l 1
 906 647 l 1
 908 645 l 1
 904 625 l 2
 902 619 896 618 891 618 c 2
 865 616 l 2
 836 614 822 600 816 574 c 2
 703 87 l 2
 701 79 700 72 699 65 c 0
 697 44 701 31 725 29 c 2
 751 27 l 2
 757 27 761 24 759 19 c 2
 755 0 l 1
 753 -2 l 1
 708 -1 674 0 645 0 c 0
 617 0 588 -1 542 -2 c 1
 540 0 l 1
 544 19 l 2
 546 24 551 27 555 27 c 2
 581 29 l 2
 608 31 624 61 630 87 c 2x70
EndSplineSet
MultipleSubs2: "'c2sc' May+APoA-sculas a min+APoA-sculas lookup 12 subtable" m.sc
Position2: "'cpsp' Espaciado de may+APoA-sculas lookup 3 subtable" dx=2 dy=0 dh=5 dv=1
EndChar

StartChar: N
Encoding: 78 78 47
Width: 666
GlyphClass: 2
Flags: MW
HStem: -10 21G<514 528.5> -2 29<-20 -3> -2 30 618 29
VStem: 12 776
AnchorPoint: "Anchor-5" 93 -4 basechar 0
AnchorPoint: "Anchor-2" 283 -109 basechar 0
AnchorPoint: "Anchor-0" 532 850 basechar 0
LayerCount: 2
Fore
SplineSet
712 557 m 2x58
 552 21 l 2
 546 2 535 -10 522 -10 c 0
 506 -10 496 -1 491 14 c 2x98
 288 455 l 2
 277 477 271 488 265 488 c 0
 258 488 252 473 241 439 c 2
 136 88 l 2
 134 83 133 78 132 73 c 0
 130 50 141 31 171 29 c 2
 195 27 l 2
 200 27 203 25 201 19 c 2
 197 0 l 1
 194 -2 l 1
 149 -1 115 0 91 0 c 0
 67 0 25 -1 -20 -2 c 1
 -21 0 l 1
 -18 18 l 2x58
 -16 23 -12 26 -3 27 c 2
 23 29 l 2
 63 32 84 61 93 88 c 2x38
 231 550 l 1
 233 576 216 615 185 618 c 0
 178 619 171 621 172 626 c 2
 176 645 l 1
 180 647 l 1
 312 647 l 1
 508 203 l 2
 525 166 532 148 540 148 c 0
 546 148 549 159 555 178 c 2
 669 557 l 2
 671 562 672 567 673 572 c 0
 675 594 666 614 634 616 c 2
 610 618 l 2
 605 618 598 622 599 626 c 2
 604 645 l 1
 607 647 l 1
 652 646 692 645 716 645 c 0
 739 645 776 646 821 647 c 1
 822 645 l 1
 818 626 l 2
 817 621 811 618 808 618 c 2
 781 616 l 2
 743 613 721 587 712 557 c 2x58
EndSplineSet
MultipleSubs2: "'c2sc' May+APoA-sculas a min+APoA-sculas lookup 12 subtable" n.sc
Position2: "'cpsp' Espaciado de may+APoA-sculas lookup 3 subtable" dx=2 dy=0 dh=5 dv=1
EndChar

StartChar: O
Encoding: 79 79 48
Width: 668
GlyphClass: 2
Flags: MW
HStem: -10 34<276.5 380 276.5 388> 624 34<424.5 522>
VStem: 87 91 617 89
AnchorPoint: "Anchor-5" 316 0 basechar 0
AnchorPoint: "Anchor-2" 264 -113 basechar 0
AnchorPoint: "Anchor-1" 760 606 basechar 0
AnchorPoint: "Anchor-0" 570 850 basechar 0
LayerCount: 2
Fore
SplineSet
700 329 m 0
 640 129 480 -10 296 -10 c 0
 153 -10 62 82 78 234 c 0
 81 258 86 283 94 310 c 0
 153 506 319 658 490 658 c 0
 636 658 730 559 714 403 c 0
 712 380 708 355 700 329 c 0
468 624 m 0
 381 624 249 537 187 327 c 0
 178 297 173 270 170 244 c 0
 155 103 228 24 325 24 c 0
 435 24 552 131 606 310 c 0
 617 347 623 380 626 410 c 0
 641 552 576 624 468 624 c 0
EndSplineSet
MultipleSubs2: "'c2sc' May+APoA-sculas a min+APoA-sculas lookup 12 subtable" o.sc
Position2: "'cpsp' Espaciado de may+APoA-sculas lookup 3 subtable" dx=2 dy=0 dh=5 dv=1
EndChar

StartChar: P
Encoding: 80 80 49
Width: 499
GlyphClass: 2
Flags: MW
HStem: -2 29<-16 -2> 282 34<296 354.5 296 389.5> 618 27<171 175> 620 34<413.5 437.5>
VStem: 214 77 489 85
AnchorPoint: "Anchor-5" 115 -3 basechar 0
AnchorPoint: "Anchor-2" 94 -110 basechar 0
AnchorPoint: "Anchor-0" 481 850 basechar 0
LayerCount: 2
Fore
SplineSet
88 71 m 2xd4
 239 574 l 2
 240 577 241 581 241 584 c 0
 244 608 223 615 209 616 c 2
 173 618 l 2
 169 618 167 620 168 624 c 2
 175 645 l 1
 178 647 l 1
 213 646 262 645 300 645 c 0xec
 339 645 401 654 426 654 c 0
 574 654 600 577 594 518 c 0
 593 506 591 496 588 486 c 0
 563 401 477 282 302 282 c 0
 268 282 251 285 232 292 c 1
 166 71 l 2
 164 66 164 62 164 59 c 0
 162 38 175 31 206 29 c 2
 241 27 l 2
 245 27 248 24 246 19 c 2
 240 0 l 1
 238 -2 l 1
 193 -1 145 0 107 0 c 0
 67 0 19 -1 -16 -2 c 1
 -18 0 l 1
 -12 19 l 2
 -10 24 -7 27 -2 27 c 2
 23 29 l 2
 62 32 80 43 88 71 c 2xd4
317 574 m 2xdc
 241 321 l 1
 251 318 284 316 308 316 c 0
 401 316 466 360 498 468 c 0
 504 488 507 505 509 520 c 0
 518 602 466 620 409 620 c 0
 340 620 325 603 317 574 c 2xdc
EndSplineSet
MultipleSubs2: "'c2sc' May+APoA-sculas a min+APoA-sculas lookup 12 subtable" p.sc
Position2: "'cpsp' Espaciado de may+APoA-sculas lookup 3 subtable" dx=2 dy=0 dh=5 dv=1
EndChar

StartChar: Q
Encoding: 81 81 50
Width: 668
GlyphClass: 2
Flags: MW
HStem: -209 57 -114 44 -8 32 624 34<431.5 529>
VStem: 87 91 617 89
AnchorPoint: "Anchor-1" 757 606 basechar 0
AnchorPoint: "Anchor-0" 561 850 basechar 0
LayerCount: 2
Fore
SplineSet
104 -76 m 0
 151 -34 201 -39 268 -8 c 1
 146 7 70 95 85 234 c 0
 88 258 93 283 101 310 c 0
 160 506 327 658 498 658 c 0
 644 658 738 559 722 403 c 0
 720 380 715 355 707 329 c 0
 655 154 531 37 377 0 c 0
 343 -8 352 -6 290 -9 c 1
 297 -8 287 -10 292 -13 c 0
 377 -65 414 -100 498 -100 c 0
 526 -100 564 -90 593 -63 c 1
 606 -75 l 1
 552 -131 503 -157 443 -157 c 0
 318 -157 286 -62 197 -62 c 0
 190 -62 176 -65 160 -74 c 0
 143 -88 126 -104 109 -121 c 1
 78 -101 l 1
 86 -92 94 -84 104 -76 c 0
475 624 m 0
 388 624 257 537 195 327 c 0
 186 297 180 270 177 244 c 0
 162 103 236 24 333 24 c 0
 443 24 559 131 613 310 c 0
 624 347 631 380 634 410 c 0
 649 552 583 624 475 624 c 0
EndSplineSet
MultipleSubs2: "'c2sc' May+APoA-sculas a min+APoA-sculas lookup 12 subtable" q.sc
Position2: "'cpsp' Espaciado de may+APoA-sculas lookup 3 subtable" dx=2 dy=0 dh=5 dv=1
EndChar

StartChar: R
Encoding: 82 82 51
Width: 555
GlyphClass: 2
Flags: MW
HStem: -10 31<457 534> -2 29<-16 -2> 291 34<242 273> 618 27<171 175> 620 34<410 437.5>
VStem: 214 77 490 84
AnchorPoint: "Anchor-5" 114 -1 basechar 0
AnchorPoint: "Anchor-2" 202 -111 basechar 0
AnchorPoint: "Anchor-0" 474 850 basechar 0
LayerCount: 2
Fore
SplineSet
422 654 m 0x6e
 482 654 541 649 573 604 c 0
 591 579 597 550 594 517 c 0
 593 505 591 492 587 479 c 0
 555 374 453 322 408 308 c 1
 465 98 l 2
 477 55 491 21 534 21 c 1
 529 -3 l 1
 517 -8 500 -10 486 -10 c 0
 428 -10 399 32 385 79 c 2xae
 336 253 l 2
 328 276 313 291 233 291 c 1
 167 72 l 2
 165 67 164 63 164 59 c 0
 162 39 174 32 206 29 c 2
 231 27 l 2
 235 27 238 24 236 19 c 2
 231 0 l 1
 228 -2 l 1
 183 -1 144 0 106 0 c 0
 68 0 29 -1 -16 -2 c 1
 -18 0 l 1
 -12 19 l 2
 -10 24 -7 27 -2 27 c 2
 23 29 l 2
 64 32 81 44 89 72 c 2
 239 574 l 2
 240 577 242 581 242 584 c 0
 245 608 224 615 210 616 c 2
 173 618 l 2
 169 618 168 620 169 624 c 2
 175 645 l 1
 178 647 l 1
 223 646 261 645 299 645 c 0x76
 337 645 398 654 422 654 c 0x6e
412 620 m 0
 344 620 325 603 317 574 c 2
 242 325 l 1
 290 325 l 2
 383 325 464 353 501 478 c 0
 506 494 510 509 511 521 c 0
 520 602 463 620 412 620 c 0
EndSplineSet
Substitution2: "'ss02' Estilo 2 lookup 41 subtable" R.alt
Substitution2: "'salt' Alternativas estil+AO0A-sticas lookup 20 subtable" R.alt
MultipleSubs2: "'c2sc' May+APoA-sculas a min+APoA-sculas lookup 12 subtable" r.sc
Position2: "'cpsp' Espaciado de may+APoA-sculas lookup 3 subtable" dx=2 dy=0 dh=5 dv=1
EndChar

StartChar: S
Encoding: 83 83 52
Width: 454
GlyphClass: 2
Flags: MW
HStem: -10 36<156.5 235.5 156.5 235.5> 5 162 624 34<352 421>
VStem: 64 30 142 72 372 84 454 31
AnchorPoint: "Anchor-5" 190 2 basechar 0
AnchorPoint: "Anchor-2" 158 -111 basechar 0
AnchorPoint: "Anchor-0" 457 850 basechar 0
LayerCount: 2
Fore
SplineSet
525 626 m 1xba
 516 572 508 545 503 497 c 1
 472 499 l 1xba
 473 565 467 624 375 624 c 0
 312 624 255 583 237 522 c 0
 235 515 234 508 233 502 c 0
 226 433 294 391 325 376 c 0
 389 345 453 301 444 212 c 0
 443 200 440 187 436 174 c 0
 405 72 291 -10 180 -10 c 0xbc
 99 -10 75 5 17 5 c 1
 30 56 36 89 47 165 c 1x7c
 78 168 l 1
 68 68 114 26 199 26 c 0
 272 26 324 58 349 139 c 0
 353 153 355 165 356 176 c 0xbc
 362 236 330 268 286 291 c 0
 220 326 148 373 157 462 c 0
 158 472 160 483 163 495 c 0
 195 601 310 658 394 658 c 0
 483 658 475 634 525 626 c 1xba
EndSplineSet
MultipleSubs2: "'c2sc' May+APoA-sculas a min+APoA-sculas lookup 12 subtable" s.sc
Position2: "'cpsp' Espaciado de may+APoA-sculas lookup 3 subtable" dx=2 dy=0 dh=5 dv=1
EndChar

StartChar: T
Encoding: 84 84 53
Width: 544
GlyphClass: 2
Flags: MW
HStem: -2 30 606 39<262 277 277 346 500 517 517 571> 638 20G
VStem: 111 545
AnchorPoint: "Anchor-5" 265 10 basechar 0
AnchorPoint: "Anchor-2" 231 -109 basechar 0
AnchorPoint: "Anchor-0" 512 850 basechar 0
LayerCount: 2
Fore
SplineSet
262 645 m 2xd0
 596 645 l 2xd0
 632 645 646 653 680 658 c 1xb0
 674 618 671 575 676 518 c 1
 663 513 655 513 645 513 c 1
 635 580 623 606 571 606 c 2
 517 606 l 2
 483 606 470 598 459 564 c 2
 313 76 l 2
 304 46 313 33 352 30 c 2
 385 27 l 1
 387 22 382 2 379 -2 c 1
 335 -1 291 0 253 0 c 0
 214 0 177 -1 132 -2 c 1
 129 7 133 23 137 27 c 2
 169 30 l 2
 210 34 227 48 236 76 c 2
 382 567 l 2
 390 596 385 606 346 606 c 2
 277 606 l 2
 224 606 197 586 161 521 c 1
 152 521 139 523 132 528 c 1xd0
 160 581 175 609 193 658 c 1xb0
 217 654 236 645 262 645 c 2xd0
EndSplineSet
MultipleSubs2: "'c2sc' May+APoA-sculas a min+APoA-sculas lookup 12 subtable" t.sc
Position2: "'cpsp' Espaciado de may+APoA-sculas lookup 3 subtable" dx=2 dy=0 dh=5 dv=1
EndChar

StartChar: U
Encoding: 85 85 54
Width: 634
GlyphClass: 2
Flags: MW
HStem: -10 41<281 369.5> 618 29<157 163>
VStem: 124 79
AnchorPoint: "Anchor-5" 295 4 basechar 0
AnchorPoint: "Anchor-2" 263 -109 basechar 0
AnchorPoint: "Anchor-0" 542 850 basechar 0
LayerCount: 2
Fore
SplineSet
271 -10 m 0
 196 -10 93 22 108 166 c 0
 110 187 114 210 122 236 c 2
 224 572 l 2
 226 577 226 581 226 585 c 0
 228 606 215 614 184 616 c 2
 159 618 l 2
 155 618 152 621 154 626 c 2
 159 645 l 1
 163 647 l 1
 208 646 245 645 283 645 c 0
 321 645 362 646 407 647 c 1
 408 645 l 1
 402 626 l 2
 400 621 397 618 392 618 c 2
 367 616 l 2
 327 613 310 600 301 572 c 2
 210 269 l 2
 201 237 190 203 187 171 c 0
 184 139 187 108 205 81 c 0
 225 52 258 31 304 31 c 0
 467 31 521 165 555 277 c 2
 642 570 l 2
 644 575 646 580 646 584 c 0
 648 605 636 614 604 616 c 2
 578 618 l 2
 575 618 571 621 573 626 c 2
 579 645 l 1
 582 647 l 1
 627 646 664 645 686 645 c 0
 708 645 748 646 793 647 c 1
 794 645 l 1
 788 626 l 2
 786 621 783 618 778 618 c 2
 753 616 l 2
 712 613 694 598 686 570 c 2
 604 295 l 2
 551 117 468 -10 271 -10 c 0
EndSplineSet
MultipleSubs2: "'c2sc' May+APoA-sculas a min+APoA-sculas lookup 12 subtable" u.sc
Position2: "'cpsp' Espaciado de may+APoA-sculas lookup 3 subtable" dx=2 dy=0 dh=5 dv=1
EndChar

StartChar: V
Encoding: 86 86 55
Width: 597
GlyphClass: 2
Flags: MW
HStem: -12 21G<247 257> 618 29
VStem: 580 146
AnchorPoint: "Anchor-5" 270 3 basechar 0
AnchorPoint: "Anchor-2" 218 -110 basechar 0
AnchorPoint: "Anchor-0" 537 850 basechar 0
LayerCount: 2
Fore
SplineSet
642 553 m 2
 282 11 l 2
 272 -4 262 -12 252 -12 c 0
 242 -12 237 -4 237 11 c 2
 213 556 l 2
 211 612 187 613 146 618 c 1
 141 624 142 641 149 647 c 1
 189 646 214 645 254 645 c 0
 293 645 343 646 376 647 c 1
 381 641 380 624 373 618 c 1
 338 616 294 605 296 572 c 2
 313 127 l 2
 316 124 318 125 320 127 c 2
 599 561 l 2
 624 600 599 614 549 618 c 1
 544 624 545 641 552 647 c 1
 592 646 635 645 661 645 c 0
 687 645 719 646 756 647 c 1
 761 641 760 624 753 618 c 1
 699 612 664 586 642 553 c 2
EndSplineSet
MultipleSubs2: "'c2sc' May+APoA-sculas a min+APoA-sculas lookup 12 subtable" v.sc
Position2: "'cpsp' Espaciado de may+APoA-sculas lookup 3 subtable" dx=2 dy=0 dh=5 dv=1
EndChar

StartChar: W
Encoding: 87 87 56
Width: 909
GlyphClass: 2
Flags: MW
HStem: -10 21G<578.5 607> 618 29
VStem: 135 906 895 146
AnchorPoint: "Anchor-5" 257 0 basechar 0
AnchorPoint: "Anchor-2" 394 -107 basechar 0
AnchorPoint: "Anchor-0" 666 850 basechar 0
LayerCount: 2
Fore
SplineSet
241 546 m 2xe0
 241 600 217 610 170 618 c 1
 165 624 167 641 174 647 c 1
 210 646 248 645 281 645 c 0
 318 645 369 646 402 647 c 1
 407 641 405 624 398 618 c 1
 363 616 323 605 323 572 c 2
 319 218 l 1
 320 152 l 1
 364 216 l 1
 600 584 l 1
 643 584 l 1
 643 584 644 520 644 486 c 2
 646 207 l 1
 647 146 l 1
 691 215 l 1
 914 561 l 2
 940 600 906 614 856 618 c 1
 851 624 853 641 860 647 c 1
 900 646 946 645 972 645 c 0
 998 645 1038 646 1071 647 c 1
 1076 641 1074 624 1067 618 c 1
 1013 612 987 586 965 553 c 2xd0
 607 11 l 2
 595 -7 591 -10 583 -10 c 0
 574 -10 569 -6 569 12 c 2
 564 367 l 2
 564 402 562 413 562 435 c 0
 561 437 558 437 557 437 c 0
 549 426 531 397 513 370 c 2
 280 12 l 2
 268 -6 264 -10 256 -10 c 0
 246 -10 245 -5 245 12 c 2
 241 546 l 2xe0
EndSplineSet
Substitution2: "'ss05' Estilo 5 lookup 44 subtable" W.alt
Substitution2: "'salt' Alternativas estil+AO0A-sticas lookup 20 subtable" W.alt
MultipleSubs2: "'c2sc' May+APoA-sculas a min+APoA-sculas lookup 12 subtable" w.sc
Position2: "'cpsp' Espaciado de may+APoA-sculas lookup 3 subtable" dx=2 dy=0 dh=5 dv=1
EndChar

StartChar: X
Encoding: 88 88 57
Width: 628
GlyphClass: 2
Flags: MW
HStem: -2 29<-31 -12> 618 29<175 179 175 177>
VStem: 192 7
AnchorPoint: "Anchor-5" 68 0 basechar 0
AnchorPoint: "Anchor-2" 242 -107 basechar 0
AnchorPoint: "Anchor-0" 537 850 basechar 0
LayerCount: 2
Fore
SplineSet
166 625 m 2
 172 644 l 1
 175 647 l 1
 213 646 251 645 274 645 c 0
 297 645 346 646 391 647 c 1
 391 647 391 644 392 644 c 1
 387 625 l 2
 385 620 382 618 380 618 c 2
 348 616 l 2
 331 615 324 610 323 601 c 0
 322 594 325 584 330 572 c 2
 392 396 l 2
 395 389 398 385 400 385 c 0
 403 385 408 389 416 397 c 2
 592 572 l 2
 606 586 616 598 617 605 c 0
 618 611 613 615 600 616 c 2
 572 618 l 2
 568 618 565 620 567 625 c 2
 573 645 l 1
 575 647 l 1
 614 646 648 645 670 645 c 0
 692 645 725 646 764 647 c 1
 766 645 l 1
 760 625 l 2
 760 622 757 618 749 618 c 0
 691 616 661 588 624 552 c 2
 446 375 l 2
 434 363 426 354 423 345 c 2
 423 340 l 2
 422 332 424 323 429 312 c 2
 514 102 l 2
 529 63 551 30 593 27 c 0
 598 27 598 23 598 20 c 2
 592 0 l 1
 590 -2 l 1
 551 -1 511 0 489 0 c 0
 467 0 414 -1 369 -2 c 1
 366 0 l 1
 372 20 l 2
 373 24 376 27 380 27 c 2
 400 29 l 2
 423 31 433 34 434 44 c 0
 435 50 432 59 426 73 c 2
 356 261 l 2
 353 269 349 272 345 272 c 0
 343 272 335 266 326 258 c 2
 145 77 l 2
 134 64 124 53 123 44 c 0
 122 36 128 31 145 29 c 2
 163 27 l 2
 168 26 167 23 167 20 c 2
 161 0 l 1
 158 -2 l 1
 113 -1 88 0 50 0 c 0
 22 0 -2 -1 -31 -2 c 1
 -31 0 l 1
 -25 20 l 2
 -23 25 -18 27 -12 27 c 0
 44 30 91 74 121 104 c 2
 309 291 l 2
 317 299 323 308 325 314 c 0
 325 316 327 318 327 320 c 0
 328 328 325 335 320 344 c 2
 244 549 l 2
 222 607 195 615 179 618 c 2
 177 618 l 2
 169 620 165 621 166 625 c 2
EndSplineSet
MultipleSubs2: "'c2sc' May+APoA-sculas a min+APoA-sculas lookup 12 subtable" x.sc
Position2: "'cpsp' Espaciado de may+APoA-sculas lookup 3 subtable" dx=2 dy=0 dh=5 dv=1
EndChar

StartChar: Y
Encoding: 89 89 58
Width: 552
GlyphClass: 2
Flags: MW
HStem: -2 30 616 30 617 30
VStem: 123 540
AnchorPoint: "Anchor-5" 259 1 basechar 0
AnchorPoint: "Anchor-2" 225 -109 basechar 0
AnchorPoint: "Anchor-0" 490 850 basechar 0
LayerCount: 2
Fore
SplineSet
310 76 m 2xd0
 301 46 310 33 349 30 c 2
 383 27 l 1
 385 22 380 2 377 -2 c 1
 333 -1 288 0 250 0 c 0
 211 0 175 -1 130 -2 c 1
 127 7 131 23 135 27 c 2
 166 30 l 2
 207 34 225 48 233 76 c 2
 287 259 l 2
 290 269 292 279 293 284 c 0
 293 288 293 296 292 302 c 2
 226 547 l 2
 212 600 206 612 172 616 c 2
 157 618 l 1xb0
 155 623 154 641 158 646 c 1
 186 645 225 645 262 645 c 0
 300 645 330 645 369 646 c 1
 371 642 368 623 364 618 c 1
 331 615 l 2
 298 612 300 603 306 577 c 1
 306 576 l 1
 365 335 l 1
 369 335 l 1
 553 576 l 2
 576 605 576 613 552 615 c 2
 520 618 l 2
 518 622 522 642 525 646 c 1
 563 645 594 645 616 645 c 0
 638 645 667 645 696 646 c 1xd0
 699 642 693 623 689 618 c 1
 663 616 l 2
 628 613 612 595 588 565 c 2xb0
 387 310 l 2
 379 299 373 285 368 268 c 2
 310 76 l 2xd0
EndSplineSet
MultipleSubs2: "'c2sc' May+APoA-sculas a min+APoA-sculas lookup 12 subtable" y.sc
Position2: "'cpsp' Espaciado de may+APoA-sculas lookup 3 subtable" dx=2 dy=0 dh=5 dv=1
EndChar

StartChar: Z
Encoding: 90 90 59
Width: 578
GlyphClass: 2
Flags: MW
HStem: 0 39<158 373> 605 40<315 343 343 564> 635 20G<681 695>
VStem: 41 632
AnchorPoint: "Anchor-5" 253 4 basechar 0
AnchorPoint: "Anchor-2" 221 -107 basechar 0
AnchorPoint: "Anchor-0" 505 850 basechar 0
LayerCount: 2
Fore
SplineSet
493 -2 m 1xd0
 493 -2 398 0 373 0 c 2
 23 0 l 2
 11 0 7 4 8 12 c 0
 9 20 16 31 24 38 c 2
 558 579 l 2
 565 586 569 592 571 597 c 0
 574 603 571 605 564 605 c 2
 343 605 l 2
 271 605 239 555 198 486 c 1
 170 491 l 1
 190 532 221 604 242 658 c 1
 277 655 270 645 315 645 c 2
 623 645 l 2xd0
 653 648 675 655 687 655 c 0
 703 655 708 653 707 647 c 0
 706 638 696 621 667 591 c 2xb0
 151 72 l 2
 144 63 140 57 138 52 c 0
 135 43 142 39 158 39 c 2
 382 39 l 2
 455 39 499 98 540 170 c 1
 569 165 l 1
 543 113 514 54 493 -2 c 1xd0
EndSplineSet
MultipleSubs2: "'c2sc' May+APoA-sculas a min+APoA-sculas lookup 12 subtable" z.sc
Position2: "'cpsp' Espaciado de may+APoA-sculas lookup 3 subtable" dx=2 dy=0 dh=5 dv=1
EndChar

StartChar: bracketleft
Encoding: 91 91 60
Width: 334
GlyphClass: 2
Flags: MW
HStem: -200 44<87 221> 646 43<312 459 312 312>
VStem: 53 371
LayerCount: 2
Fore
SplineSet
471 689 m 1
 459 646 l 1
 312 646 l 1
 87 -156 l 1
 233 -156 l 1
 221 -200 l 1
 6 -200 l 1
 256 689 l 1
 471 689 l 1
EndSplineSet
MultipleSubs2: "'c2sc' May+APoA-sculas a min+APoA-sculas lookup 12 subtable" bracketleft.sc
Substitution2: "'case' Formas sensible a may+APoA-sculas lookup 8 subtable" bracketleft.sc
EndChar

StartChar: backslash
Encoding: 92 92 61
Width: 321
GlyphClass: 2
Flags: MW
HStem: 678 20G<173 217 217 217>
VStem: 134 177
LayerCount: 2
Fore
SplineSet
217 698 m 1
 272 -48 l 1
 228 -48 l 1
 173 698 l 1
 217 698 l 1
EndSplineSet
EndChar

StartChar: bracketright
Encoding: 93 93 62
Width: 334
GlyphClass: 2
Flags: MW
HStem: -200 44<-50 109 -38 109 -38 164> 646 43<200 334 188 415>
VStem: -3 371
LayerCount: 2
Fore
SplineSet
-50 -200 m 1
 -38 -156 l 1
 109 -156 l 1
 334 646 l 1
 188 646 l 1
 200 689 l 1
 415 689 l 1
 164 -200 l 1
 -50 -200 l 1
EndSplineSet
MultipleSubs2: "'c2sc' May+APoA-sculas a min+APoA-sculas lookup 12 subtable" bracketright.sc
Substitution2: "'case' Formas sensible a may+APoA-sculas lookup 8 subtable" bracketright.sc
EndChar

StartChar: asciicircum
Encoding: 94 94 63
Width: 518
GlyphClass: 2
Flags: MW
HStem: 593 57<373 373>
VStem: 173 294
LayerCount: 2
Fore
SplineSet
373 593 m 1
 201 347 l 1
 157 347 l 1
 369 650 l 1
 411 650 l 1
 451 347 l 1
 407 347 l 1
 373 593 l 1
EndSplineSet
EndChar

StartChar: underscore
Encoding: 95 95 64
Width: 486
GlyphClass: 2
Flags: MW
HStem: -154 44<-13 453 -24 465>
VStem: -22 485
LayerCount: 2
Fore
SplineSet
465 -110 m 1
 453 -154 l 1
 -24 -154 l 1
 -13 -110 l 1
 465 -110 l 1
EndSplineSet
EndChar

StartChar: grave
Encoding: 96 96 65
Width: 392
GlyphClass: 2
Flags: MW
HStem: 678 20G<309 309>
VStem: 214 138
LayerCount: 2
Fore
SplineSet
309 698 m 2
 344 573 l 2
 345 567 346 562 346 558 c 0
 346 555 345 552 344 549 c 0
 342 544 333 538 326 538 c 0
 319 538 314 543 303 558 c 2
 219 667 l 1
 224 677 l 1
 236 683 260 701 296 701 c 0
 301 701 306 700 309 698 c 2
EndSplineSet
EndChar

StartChar: a
Encoding: 97 97 66
Width: 486
GlyphClass: 2
Flags: MW
HStem: -10 55<167 177.5> 408 31<307 363.5> 411 20G<483 503 503 503>
VStem: 78 80 323 78
AnchorPoint: "Anchor-5" 143 -3 basechar 0
AnchorPoint: "Anchor-4" 392 16 basechar 0
AnchorPoint: "Anchor-2" 140 -108 basechar 0
AnchorPoint: "Anchor-0" 386 647 basechar 0
LayerCount: 2
Fore
SplineSet
433 433 m 0xd8
 448 429 465 430 483 431 c 2
 503 431 l 1xb8
 401 120 l 2
 395 101 386 73 385 64 c 0
 384 52 393 50 396 50 c 0
 406 50 426 66 457 103 c 1
 470 103 475 96 479 87 c 1
 447 30 402 -10 340 -10 c 0
 306 -10 302 16 304 35 c 0
 305 47 311 67 320 90 c 2
 337 132 l 1
 336 134 l 1
 267 45 204 -10 151 -10 c 0
 67 -10 63 69 69 125 c 0
 86 282 247 439 354 439 c 0
 394 439 406 436 433 433 c 0xd8
360 219 m 1
 392 283 413 389 413 389 c 1
 395 401 374 408 353 408 c 0
 261 408 161 247 150 141 c 0
 144 85 150 45 184 45 c 0
 216 45 302 129 360 219 c 1
EndSplineSet
MultipleSubs2: "'smcp' Min+APoA-sculas a may+APoA-sculas peque+APEA-as lookup 10 subtable" a.sc
Substitution2: "'subs' Sub+AO0A-ndice lookup 7 subtable" uni2090
Substitution2: "'sups' Supra+AO0A-ndice lookup 6 subtable" uni1D43
Substitution2: "Single Substitution lookup 4 subtable" uni1D43
Substitution2: "Single Substitution lookup 3 subtable" uni2090
EndChar

StartChar: b
Encoding: 98 98 67
Width: 478
GlyphClass: 2
Flags: MW
HStem: -10 35<157 182.5> 392 47<362.5 377> 641 31<192 228.5> 678 20G<335 339.5> 688 10<335 346>
VStem: 99 76 410 82
AnchorPoint: "Anchor-2" 166 -108 basechar 0
LayerCount: 2
Fore
SplineSet
310 583 m 2xd6
 229 336 l 1
 231 335 l 1
 270 376 328 439 397 439 c 0
 488 439 496 388 489 320 c 0
 478 218 374 90 276 27 c 0
 238 3 198 -10 167 -10 c 0
 77 -10 56 44 77 106 c 2
 228 563 l 2
 235 585 239 602 240 613 c 0
 242 635 235 641 222 641 c 2
 191 643 l 2
 187 643 187 645 187 648 c 2
 192 672 l 1xe6
 233 675 307 688 335 698 c 0
 344 698 347 695 346 688 c 2xce
 346 688 332 648 310 583 c 2xd6
405 301 m 0
 412 369 392 392 362 392 c 0
 314 392 263 331 210 276 c 1
 161 132 l 2
 138 64 139 25 175 25 c 0
 251 25 390 156 405 301 c 0
EndSplineSet
MultipleSubs2: "'smcp' Min+APoA-sculas a may+APoA-sculas peque+APEA-as lookup 10 subtable" b.sc
Substitution2: "'subs' Sub+AO0A-ndice lookup 7 subtable" b.inferior
Substitution2: "'sups' Supra+AO0A-ndice lookup 6 subtable" uni1D47
Substitution2: "Single Substitution lookup 4 subtable" uni1D47
Substitution2: "Single Substitution lookup 3 subtable" b.inferior
EndChar

StartChar: c
Encoding: 99 99 68
Width: 389
GlyphClass: 2
Flags: MW
HStem: -10 59<214.5 221> 408 31<315 339>
VStem: 83 82 354 69
AnchorPoint: "Anchor-5" 189 -2 basechar 0
AnchorPoint: "Anchor-4" 322 42 basechar 0
AnchorPoint: "Anchor-2" 129 -113 basechar 0
AnchorPoint: "Anchor-0" 388 645 basechar 0
LayerCount: 2
Fore
SplineSet
185 -10 m 0
 144 -10 112 9 94 38 c 0
 74 71 73 116 76 149 c 0
 85 239 126 316 181 369 c 0
 228 413 295 439 335 439 c 0
 444 439 441 382 437 343 c 0
 434 318 407 298 380 298 c 0
 363 298 354 314 356 330 c 0
 357 336 360 347 363 351 c 0
 367 356 369 364 370 370 c 0
 373 403 346 408 332 408 c 0
 255 408 176 320 160 171 c 0
 154 111 162 91 175 72 c 0
 187 53 206 49 223 49 c 0
 276 49 319 82 363 126 c 1
 372 126 381 119 383 109 c 1
 328 42 257 -10 185 -10 c 0
EndSplineSet
MultipleSubs2: "'smcp' Min+APoA-sculas a may+APoA-sculas peque+APEA-as lookup 10 subtable" c.sc
Substitution2: "'subs' Sub+AO0A-ndice lookup 7 subtable" c.inferior
Substitution2: "'sups' Supra+AO0A-ndice lookup 6 subtable" uni1D9C
Substitution2: "Single Substitution lookup 4 subtable" uni1D9C
Substitution2: "Single Substitution lookup 3 subtable" c.inferior
EndChar

StartChar: d
Encoding: 100 100 69
Width: 489
GlyphClass: 2
Flags: MW
HStem: -10 46<152 172> 403 36<288 353> 641 31<429 465.5> 678 20G<572 576.5> 688 10<572 583>
VStem: 81 80 328 78
AnchorPoint: "Anchor-4" 278 20 basechar 0
AnchorPoint: "Anchor-2" 174 -107 basechar 0
AnchorPoint: "Anchor-0" 250 645 basechar 0
LayerCount: 2
Fore
SplineSet
321 116 m 1xd6
 318 118 l 1xd6
 249 30 198 -10 146 -10 c 0
 58 -10 53 79 59 134 c 0
 76 291 228 439 335 439 c 0
 373 439 399 414 408 384 c 1
 409 384 l 1
 465 563 l 2
 472 585 476 602 477 613 c 0
 479 635 472 641 459 641 c 2
 428 643 l 2
 424 643 424 645 424 648 c 2
 429 672 l 1xe6
 470 675 544 688 572 698 c 0
 581 698 584 695 583 688 c 2xce
 583 688 569 648 547 583 c 2
 392 120 l 2
 386 101 378 73 377 64 c 0
 376 52 384 50 387 50 c 0
 397 50 418 66 449 103 c 1
 462 103 466 96 470 87 c 1
 438 30 394 -10 332 -10 c 0
 298 -10 294 16 296 35 c 0
 297 47 302 66 311 90 c 2
 321 116 l 1xd6
329 194 m 0
 364 247 386 293 388 316 c 0
 392 351 372 403 334 403 c 0
 242 403 152 256 141 150 c 0
 135 94 136 36 168 36 c 0
 207 36 271 104 329 194 c 0
EndSplineSet
MultipleSubs2: "'smcp' Min+APoA-sculas a may+APoA-sculas peque+APEA-as lookup 10 subtable" d.sc
Substitution2: "'subs' Sub+AO0A-ndice lookup 7 subtable" d.inferior
Substitution2: "'sups' Supra+AO0A-ndice lookup 6 subtable" uni1D48
Substitution2: "Single Substitution lookup 4 subtable" uni1D48
Substitution2: "Single Substitution lookup 3 subtable" d.inferior
EndChar

StartChar: e
Encoding: 101 101 70
Width: 401
GlyphClass: 2
Flags: MW
HStem: -10 60<202.5 215.5> 408 31<305 344>
VStem: 83 83 355 69
AnchorPoint: "Anchor-4" 326 41 basechar 0
AnchorPoint: "Anchor-2" 124 -108 basechar 0
AnchorPoint: "Anchor-0" 377 645 basechar 0
LayerCount: 2
Fore
SplineSet
165 199 m 1
 163 191 162 170 161 165 c 0
 151 74 180 50 225 50 c 0
 273 50 297 59 360 117 c 1
 372 117 377 112 381 101 c 1
 314 25 249 -10 182 -10 c 0
 99 -10 66 57 75 142 c 0
 88 269 179 439 353 439 c 0
 425 439 443 390 440 365 c 2
 440 363 l 1
 436 325 427 249 165 199 c 1
371 370 m 0
 374 399 362 408 326 408 c 0
 284 408 226 379 176 237 c 1
 253 247 362 280 371 370 c 0
EndSplineSet
MultipleSubs2: "'smcp' Min+APoA-sculas a may+APoA-sculas peque+APEA-as lookup 10 subtable" e.sc
Substitution2: "'subs' Sub+AO0A-ndice lookup 7 subtable" uni2091
Substitution2: "'sups' Supra+AO0A-ndice lookup 6 subtable" uni1D49
Substitution2: "Single Substitution lookup 4 subtable" uni1D49
Substitution2: "Single Substitution lookup 3 subtable" uni2091
EndChar

StartChar: f
Encoding: 102 102 71
Width: 314
GlyphClass: 2
Flags: MW
HStem: -238 33<-20 -14.5> 390 39<123 219 297 379> 402 27<406 406> 665 33<443 457.5>
VStem: -78 601
AnchorPoint: "Anchor-3" 465 750 basechar 0
AnchorPoint: "Anchor-2" 186 -111 basechar 0
LayerCount: 2
Fore
SplineSet
205 390 m 1xd8
 123 390 l 2
 120 390 117 390 117 392 c 0
 117 394 122 406 123 409 c 0
 126 417 134 425 153 426 c 2
 219 429 l 1
 246 516 280 593 319 634 c 0
 366 683 429 698 457 698 c 0
 528 698 568 664 564 624 c 0
 563 614 554 590 523 590 c 0
 489 590 484 617 482 639 c 0
 479 660 469 665 446 665 c 0
 429 665 386 647 354 585 c 0
 339 558 325 524 314 486 c 2
 297 429 l 1xd8
 407 429 l 2
 412 429 413 427 413 424 c 0xb8
 413 423 406 402 406 402 c 2
 403 394 388 390 379 390 c 2
 286 390 l 1
 281 373 l 2
 257 289 232 208 208 130 c 0
 149 -60 119 -136 87 -175 c 0
 51 -218 6 -238 -35 -238 c 0
 -103 -238 -124 -214 -122 -192 c 0
 -120 -175 -110 -156 -82 -156 c 0
 -60 -156 -43 -175 -35 -188 c 0
 -30 -198 -27 -205 -13 -205 c 0
 2 -205 23 -192 36 -175 c 0
 78 -118 115 43 138 141 c 0
 156 216 173 276 205 390 c 1xd8
EndSplineSet
MultipleSubs2: "'smcp' Min+APoA-sculas a may+APoA-sculas peque+APEA-as lookup 10 subtable" f.sc
Substitution2: "'subs' Sub+AO0A-ndice lookup 7 subtable" f.inferior
Substitution2: "'sups' Supra+AO0A-ndice lookup 6 subtable" uni1DA0
Substitution2: "Single Substitution lookup 4 subtable" uni1DA0
Substitution2: "Single Substitution lookup 3 subtable" f.inferior
EndChar

StartChar: g
Encoding: 103 103 72
Width: 477
GlyphClass: 2
Flags: MW
HStem: -238 33<152 231.5> -3 21G 132 30<252 304 243.5 309.5> 409 30<275 329.5>
VStem: 7 67 116 56 124 74 341 74 362 65
AnchorPoint: "Anchor-2" 153 -319 basechar 0
AnchorPoint: "Anchor-0" 417 645 basechar 0
LayerCount: 2
Fore
SplineSet
435 291 m 0xfb
 425 192 353 132 266 132 c 0
 238 132 215 139 200 149 c 1
 189 132 173 108 171 88 c 0
 166 40 239 38 316 14 c 0
 368 -2 413 -35 406 -100 c 0
 396 -199 300 -238 163 -238 c 0
 82 -238 -27 -217 -18 -136 c 0
 -12 -76 76 -21 132 8 c 1
 108 23 110 46 111 56 c 0xfc80
 115 91 149 139 177 165 c 1
 153 197 138 239 143 283 c 0
 151 363 204 439 316 439 c 0
 360 439 390 423 409 397 c 1
 447 429 487 439 513 439 c 0
 536 439 550 423 548 405 c 0
 546 386 532 372 514 372 c 0
 498 372 491 381 487 389 c 0
 485 394 482 399 473 399 c 0
 466 399 440 388 424 374 c 1
 436 354 438 318 435 291 c 0xfb
150 -3 m 1
 123 -21 57 -65 52 -113 c 0
 46 -168 96 -205 208 -205 c 0
 296 -205 334 -165 338 -127 c 0
 342 -92 320 -70 267 -44 c 0xfa80
 236 -29 168 -7 150 -3 c 1
361 291 m 0
 368 359 351 409 308 409 c 0
 242 409 225 354 217 282 c 0
 212 234 213 162 274 162 c 0
 334 162 354 229 361 291 c 0
EndSplineSet
MultipleSubs2: "'smcp' Min+APoA-sculas a may+APoA-sculas peque+APEA-as lookup 10 subtable" g.sc
Substitution2: "'subs' Sub+AO0A-ndice lookup 7 subtable" g.inferior
Substitution2: "'sups' Supra+AO0A-ndice lookup 6 subtable" uni1D4D
Substitution2: "Single Substitution lookup 4 subtable" uni1D4D
Substitution2: "Single Substitution lookup 3 subtable" g.inferior
EndChar

StartChar: h
Encoding: 104 104 73
Width: 519
GlyphClass: 2
Flags: MW
HStem: -10 21G<77 112 337 376> -10 60<337 414> 379 60<364 455.5> 641 31<198 234.5> 678 20G<341 345.5> 688 10<341 352>
VStem: 413 79
AnchorPoint: "Anchor-5" 93 9 basechar 0
AnchorPoint: "Anchor-4" 386 10 basechar 0
AnchorPoint: "Anchor-2" 181 -111 basechar 0
AnchorPoint: "Anchor-0" 441 645 basechar 0
LayerCount: 2
Fore
SplineSet
147 72 m 2xaa
 134 34 131 -10 93 -10 c 0
 61 -10 53 1 55 17 c 0
 56 27 66 52 73 72 c 2
 234 563 l 2
 241 585 245 602 246 613 c 0
 248 635 241 641 228 641 c 2
 197 643 l 2
 193 643 193 645 193 648 c 2
 198 672 l 1xb2
 239 675 313 688 341 698 c 0
 350 698 353 695 352 688 c 2
 352 688 338 648 316 583 c 2
 227 312 l 1
 330 418 384 439 436 439 c 0
 475 439 500 419 494 359 c 0
 492 341 485 318 473 283 c 2
 418 124 l 2
 409 98 402 76 401 67 c 0
 400 55 402 50 409 50 c 0
 419 50 450 70 479 100 c 1x66
 493 100 499 92 501 83 c 1
 449 24 400 -10 352 -10 c 0
 322 -10 312 4 314 23 c 0
 316 42 330 83 341 115 c 2
 396 275 l 2
 408 309 412 328 413 342 c 0
 416 373 403 379 382 379 c 0
 346 379 275 320 203 238 c 1
 147 72 l 2xaa
EndSplineSet
Substitution2: "'salt' Alternativas estil+AO0A-sticas lookup 20 subtable" h.alt
MultipleSubs2: "'smcp' Min+APoA-sculas a may+APoA-sculas peque+APEA-as lookup 10 subtable" h.sc
Substitution2: "'subs' Sub+AO0A-ndice lookup 7 subtable" h.inferior
Substitution2: "'sups' Supra+AO0A-ndice lookup 6 subtable" uni02B0
Substitution2: "Single Substitution lookup 4 subtable" uni02B0
Substitution2: "Single Substitution lookup 3 subtable" h.inferior
EndChar

StartChar: i
Encoding: 105 105 74
Width: 276
GlyphClass: 2
Flags: MW
HStem: -10 21G<100 139> -10 60<100 177> 394 42 416 20G<243 265.5> 522 96<269 285>
VStem: 117 149 180 86 201 96
AnchorPoint: "Anchor-5" 106 12 basechar 0
AnchorPoint: "Anchor-4" 178 10 basechar 0
AnchorPoint: "Anchor-2" 93 -107 basechar 0
LayerCount: 2
Fore
SplineSet
247 320 m 2x9c
 181 124 l 2
 172 98 165 76 164 67 c 0
 163 55 165 50 172 50 c 0
 182 50 214 70 243 100 c 1x5c
 257 100 262 92 264 83 c 1x9c
 212 24 163 -10 115 -10 c 0
 85 -10 75 4 77 23 c 0
 79 42 94 83 104 115 c 2
 173 321 l 2
 183 349 186 363 187 372 c 0
 188 382 183 391 171 392 c 2xaa
 132 395 l 1xac
 127 404 126 415 134 423 c 1
 182 429 227 436 259 436 c 0
 272 436 279 429 278 415 c 0
 276 398 260 359 247 320 c 2x9c
229 570 m 0x99
 232 596 256 618 282 618 c 0
 308 618 328 596 325 570 c 0
 322 544 298 522 272 522 c 0
 246 522 226 544 229 570 c 0x99
EndSplineSet
Substitution2: "Single Substitution lookup 25 subtable" dotlessi
Substitution2: "'smcp' Min+APoA-sculas a may+APoA-sculas peque+APEA-as in Latin lookup 11 subtable" idotaccent.sc
Substitution2: "'smcp' Min+APoA-sculas a may+APoA-sculas peque+APEA-as lookup 9 subtable" i.sc
Substitution2: "'subs' Sub+AO0A-ndice lookup 7 subtable" i.inferior
Substitution2: "'sups' Supra+AO0A-ndice lookup 6 subtable" uni2071
Substitution2: "Single Substitution lookup 4 subtable" uni2071
Substitution2: "Single Substitution lookup 3 subtable" i.inferior
EndChar

StartChar: j
Encoding: 106 106 75
Width: 259
GlyphClass: 2
Flags: MW
HStem: -196 36<-30.5 -8 -30.5 23.5> 394 42 416 20G<258 280.5> 522 96<284 300>
VStem: 122 149 206 96
AnchorPoint: "Anchor-2" -56 -319 basechar 0
LayerCount: 2
Fore
SplineSet
262 320 m 2xa8
 235 234 l 2
 158 -9 86 -196 -39 -196 c 0
 -83 -196 -119 -180 -116 -148 c 0
 -114 -127 -96 -117 -83 -117 c 0
 -34 -117 -44 -160 -17 -160 c 0
 1 -160 37 -142 68 -56 c 0
 94 16 110 79 141 176 c 2
 189 321 l 2
 198 349 201 363 202 372 c 0
 203 382 198 391 186 392 c 2
 146 395 l 1xc8
 141 404 140 415 148 423 c 1
 196 430 242 436 274 436 c 0
 287 436 293 429 292 415 c 0
 291 402 275 360 262 320 c 2xa8
244 570 m 0xb4
 247 596 271 618 297 618 c 0
 323 618 343 596 340 570 c 0
 337 544 313 522 287 522 c 0
 261 522 241 544 244 570 c 0xb4
EndSplineSet
Substitution2: "Single Substitution lookup 25 subtable" uni0237
MultipleSubs2: "'smcp' Min+APoA-sculas a may+APoA-sculas peque+APEA-as lookup 10 subtable" j.sc
Substitution2: "'subs' Sub+AO0A-ndice lookup 7 subtable" j.inferior
Substitution2: "'sups' Supra+AO0A-ndice lookup 6 subtable" uni02B2
Substitution2: "Single Substitution lookup 4 subtable" uni02B2
Substitution2: "Single Substitution lookup 3 subtable" j.inferior
EndChar

StartChar: k
Encoding: 107 107 76
Width: 486
GlyphClass: 2
Flags: MW
HStem: -10 52<331.5 389.5> 237 35<206.5 209.5 199 214> 354 85<465 482> 368 71<411 494.5> 641 31<186 222.5> 678 20G<329 333.5> 688 10<329 340>
VStem: 76 444
AnchorPoint: "Anchor-5" 90 9 basechar 0
AnchorPoint: "Anchor-2" 176 -107 basechar 0
AnchorPoint: "Anchor-0" 437 646 basechar 0
LayerCount: 2
Fore
SplineSet
60 72 m 2xe5
 222 563 l 2
 229 585 233 602 234 613 c 0
 236 635 229 641 216 641 c 2
 185 643 l 2
 181 643 181 645 181 648 c 2
 186 672 l 1xe9
 227 675 301 688 329 698 c 0
 338 698 341 695 340 688 c 2
 340 688 326 648 304 583 c 2
 199 272 l 1
 220 272 243 288 262 303 c 2
 305 337 l 2
 384 401 449 439 481 439 c 0
 508 439 529 432 526 404 c 0
 523 373 489 354 475 354 c 0xe3
 441 354 447 368 421 368 c 0
 401 368 372 350 318 306 c 2xd5
 261 260 l 1
 261 256 l 1
 293 247 297 233 310 202 c 0
 321 174 330 135 352 80 c 0
 360 60 365 42 384 42 c 0
 395 42 418 61 441 90 c 1
 452 90 456 85 462 77 c 1
 424 21 386 -10 352 -10 c 0
 311 -10 289 21 264 93 c 0
 249 138 243 189 228 221 c 0
 224 230 218 237 210 237 c 0
 203 237 195 237 187 234 c 1
 134 72 l 2
 122 35 118 -10 80 -10 c 0
 48 -10 40 1 42 17 c 0
 43 27 53 52 60 72 c 2xe5
EndSplineSet
MultipleSubs2: "'smcp' Min+APoA-sculas a may+APoA-sculas peque+APEA-as lookup 10 subtable" k.sc
Substitution2: "'subs' Sub+AO0A-ndice lookup 7 subtable" k.inferior
Substitution2: "'sups' Supra+AO0A-ndice lookup 6 subtable" uni1D4F
Substitution2: "Single Substitution lookup 4 subtable" uni1D4F
Substitution2: "Single Substitution lookup 3 subtable" k.inferior
EndChar

StartChar: l
Encoding: 108 108 77
Width: 266
GlyphClass: 2
Flags: MW
HStem: -10 21G<79.5 120.5> -10 60<79.5 159> 641 31<193 229.5> 678 20G<336 340.5> 688 10<336 347>
VStem: 93 79 93 218
AnchorPoint: "Anchor-5" 96 10 basechar 0
AnchorPoint: "Anchor-2" 68 -107 basechar 0
AnchorPoint: "Anchor-0" 349 890 basechar 0
LayerCount: 2
Fore
SplineSet
311 583 m 2x92
 161 127 l 2
 148 87 144 72 143 64 c 0
 142 56 145 50 153 50 c 0
 165 50 199 72 233 108 c 1x54
 246 108 250 101 253 91 c 1
 200 16 143 -10 98 -10 c 0
 61 -10 58 15 60 34 c 0
 62 53 73 87 83 119 c 2x94
 229 563 l 2
 236 585 240 602 241 613 c 0
 243 635 236 641 223 641 c 2
 192 643 l 2
 188 643 188 645 188 648 c 2
 193 672 l 1xa2
 234 675 308 688 336 698 c 0
 345 698 348 695 347 688 c 2x8a
 347 688 333 648 311 583 c 2x92
EndSplineSet
MultipleSubs2: "'smcp' Min+APoA-sculas a may+APoA-sculas peque+APEA-as lookup 10 subtable" l.sc
Substitution2: "'subs' Sub+AO0A-ndice lookup 7 subtable" l.inferior
Substitution2: "'sups' Supra+AO0A-ndice lookup 6 subtable" uni02E1
Substitution2: "Single Substitution lookup 4 subtable" uni02E1
Substitution2: "Single Substitution lookup 3 subtable" l.inferior
EndChar

StartChar: m
Encoding: 109 109 78
Width: 783
GlyphClass: 2
Flags: MW
HStem: -10 21G<113 148 363 398 607 643.5> -10 60<607 686> 379 60<406 488> 394 42 416 20G<263 285.5>
VStem: 128 149 431 77 606 81 672 77
AnchorPoint: "Anchor-5" 135 9 basechar 0
AnchorPoint: "Anchor-2" 348 -105 basechar 0
AnchorPoint: "Anchor-0" 567 645 basechar 0
LayerCount: 2
Fore
SplineSet
193 321 m 2xa280
 202 349 207 363 208 372 c 0
 209 382 204 391 192 392 c 2
 152 395 l 1x9680
 147 404 146 415 154 423 c 1
 202 429 247 436 279 436 c 0
 292 436 299 429 298 415 c 0x8e80
 296 398 279 359 265 320 c 2
 262 311 l 1
 264 310 l 1
 331 386 402 439 474 439 c 0
 502 439 529 422 522 352 c 0
 521 339 519 321 514 305 c 1
 580 378 641 439 712 439 c 0
 743 439 770 415 763 352 c 0
 761 333 754 302 746 279 c 2xa680
 680 101 l 2
 676 90 671 65 671 61 c 0
 670 56 672 50 677 50 c 0
 695 50 726 77 754 115 c 1x63
 767 115 773 110 774 101 c 1
 731 19 673 -10 614 -10 c 0
 600 -10 584 3 586 23 c 0
 587 32 599 73 613 114 c 2xa3
 669 271 l 2
 680 302 684 331 685 342 c 0
 688 372 679 379 660 379 c 0
 628 379 587 348 489 229 c 1
 434 72 l 2
 421 34 417 -10 379 -10 c 0
 347 -10 339 1 341 17 c 0
 342 27 353 52 360 72 c 2
 429 275 l 2
 439 306 443 330 444 342 c 0
 447 372 442 379 422 379 c 0
 390 379 331 346 241 233 c 1
 184 72 l 2
 170 34 167 -10 129 -10 c 0
 97 -10 89 1 91 17 c 0
 92 27 103 52 110 72 c 2
 193 321 l 2xa280
EndSplineSet
MultipleSubs2: "'smcp' Min+APoA-sculas a may+APoA-sculas peque+APEA-as lookup 10 subtable" m.sc
Substitution2: "'subs' Sub+AO0A-ndice lookup 7 subtable" m.inferior
Substitution2: "'sups' Supra+AO0A-ndice lookup 6 subtable" uni1D50
Substitution2: "Single Substitution lookup 4 subtable" uni1D50
Substitution2: "Single Substitution lookup 3 subtable" m.inferior
EndChar

StartChar: n
Encoding: 110 110 79
Width: 518
GlyphClass: 2
Flags: MW
HStem: -10 21G<92 127 339 378> -10 60<339 420> 379 60<369 461.5> 394 42 416 20G<241 263.5>
VStem: 104 151 405 79
AnchorPoint: "Anchor-5" 106 9 basechar 0
AnchorPoint: "Anchor-2" 201 -111 basechar 0
AnchorPoint: "Anchor-0" 439 646 basechar 0
LayerCount: 2
Fore
SplineSet
423 124 m 2x8e
 414 98 407 76 406 67 c 0
 405 55 408 50 415 50 c 0
 425 50 456 70 485 100 c 1x4e
 499 100 504 92 506 83 c 1
 454 24 402 -10 354 -10 c 0
 324 -10 315 4 317 23 c 0
 319 42 333 83 344 115 c 2
 398 275 l 2
 408 303 418 331 419 343 c 0
 422 374 408 379 387 379 c 0xa6
 351 379 290 320 218 238 c 1
 163 72 l 2
 150 34 146 -10 108 -10 c 0
 76 -10 66 1 68 17 c 0
 69 27 80 52 87 72 c 2
 169 321 l 2
 178 349 183 364 184 372 c 0
 185 382 180 391 168 392 c 2
 128 395 l 1x96
 123 404 122 415 130 423 c 1
 178 430 225 436 257 436 c 0
 270 436 277 429 276 415 c 0x8e
 274 400 261 357 244 320 c 2
 240 311 l 1
 241 310 l 1
 344 418 390 439 442 439 c 0
 481 439 505 419 499 359 c 0xa6
 497 341 490 318 478 283 c 2
 423 124 l 2x8e
EndSplineSet
MultipleSubs2: "'smcp' Min+APoA-sculas a may+APoA-sculas peque+APEA-as lookup 10 subtable" n.sc
Substitution2: "'subs' Sub+AO0A-ndice lookup 7 subtable" n.inferior
Substitution2: "'sups' Supra+AO0A-ndice lookup 6 subtable" uni207F
Substitution2: "Single Substitution lookup 4 subtable" uni207F
Substitution2: "Single Substitution lookup 3 subtable" n.inferior
EndChar

StartChar: o
Encoding: 111 111 80
Width: 447
GlyphClass: 2
Flags: MW
HStem: -10 37<198.5 210> 406 33<273 341>
VStem: 78 83 382 83
AnchorPoint: "Anchor-5" 207 -3 basechar 0
AnchorPoint: "Anchor-4" 353 44 basechar 0
AnchorPoint: "Anchor-2" 152 -107 basechar 0
AnchorPoint: "Anchor-1" 510 396 basechar 0
AnchorPoint: "Anchor-0" 404 645 basechar 0
LayerCount: 2
Fore
SplineSet
72 162 m 0
 85 282 181 439 348 439 c 0
 471 439 480 349 472 277 c 0
 460 159 380 53 288 9 c 0
 257 -6 226 -10 194 -10 c 0
 67 -10 66 109 72 162 c 0
156 170 m 0
 145 65 184 27 213 27 c 0
 251 27 293 45 326 88 c 0
 369 144 384 230 388 270 c 0
 391 300 392 337 383 362 c 0
 371 390 356 406 326 406 c 0
 220 406 165 260 156 170 c 0
EndSplineSet
MultipleSubs2: "'smcp' Min+APoA-sculas a may+APoA-sculas peque+APEA-as lookup 10 subtable" o.sc
Substitution2: "'subs' Sub+AO0A-ndice lookup 7 subtable" uni2092
Substitution2: "'sups' Supra+AO0A-ndice lookup 6 subtable" uni1D52
Substitution2: "Single Substitution lookup 4 subtable" uni1D52
Substitution2: "Single Substitution lookup 3 subtable" uni2092
EndChar

StartChar: p
Encoding: 112 112 81
Width: 460
GlyphClass: 2
Flags: HMW
HStem: -234 33 -10 34<219 243.5> 385 28 393 46<356.5 367>
AnchorPoint: "Anchor-6" 281 215 basechar 0
AnchorPoint: "Anchor-3" 564 580 basechar 0
AnchorPoint: "Anchor-2" 31 -319 basechar 0
AnchorPoint: "Anchor-0" 460 646 basechar 0
LayerCount: 2
Fore
SplineSet
265 368 m 0xe0
 262 358 265 358 272 364 c 0
 322 409 373 439 410 439 c 0xd0
 493 439 518 341 479 235 c 0
 449 154 405 92 350 46 c 0
 302 7 254 -10 209 -10 c 0
 183 -10 163 -4 146 6 c 0
 139 10 136 11 131 -2 c 2
 91 -110 l 2
 60 -193 67 -197 124 -201 c 1
 127 -207 119 -228 112 -234 c 1
 85 -233 34 -232 2 -232 c 0
 -30 -232 -61 -233 -90 -234 c 1
 -93 -228 -84 -207 -77 -201 c 1
 -27 -198 -16 -193 15 -110 c 2
 171 317 l 2
 192 375 185 380 144 385 c 1
 145 391 146 407 151 413 c 1
 210 422 249 431 276 442 c 0
 282 442 284 439 283 434 c 0
 284 424 275 398 265 368 c 0xe0
267 331 m 0
 252 317 244 308 237 287 c 2
 170 105 l 2
 156 69 158 63 168 45 c 0
 177 29 204 24 218 24 c 0
 309 24 369 126 400 208 c 0
 442 321 423 393 371 393 c 0
 348 393 299 363 267 331 c 0
EndSplineSet
MultipleSubs2: "'smcp' Min+APoA-sculas a may+APoA-sculas peque+APEA-as lookup 10 subtable" p.sc
Substitution2: "'subs' Sub+AO0A-ndice lookup 7 subtable" p.inferior
Substitution2: "'sups' Supra+AO0A-ndice lookup 6 subtable" uni1D56
Substitution2: "Single Substitution lookup 4 subtable" uni1D56
Substitution2: "Single Substitution lookup 3 subtable" p.inferior
EndChar

StartChar: q
Encoding: 113 113 82
Width: 491
GlyphClass: 2
Flags: MW
HStem: -235 21G<391 391> -233 26 -233 30 -10 42<191.5 210.5> 403 36<324 393>
VStem: 81 84
AnchorPoint: "Anchor-2" 147 -110 basechar 0
AnchorPoint: "Anchor-0" 426 645 basechar 0
LayerCount: 2
Fore
SplineSet
267 -161 m 2x5c
 360 99 l 1
 358 100 l 1
 287 14 235 -10 186 -10 c 0
 92 -10 78 72 86 147 c 0
 104 319 269 439 375 439 c 0
 416 439 446 418 466 386 c 1
 499 427 l 2
 512 443 525 446 532 446 c 0
 535 446 543 444 542 436 c 0
 541 431 540 426 538 421 c 2
 343 -161 l 2
 331 -195 357 -200 372 -202 c 2
 391 -205 l 2
 395 -206 397 -208 396 -213 c 2
 394 -233 l 1
 391 -235 l 1
 391 -235 324 -233 285 -233 c 0x3c
 249 -233 179 -238 179 -238 c 1
 177 -236 l 1
 179 -217 l 2
 180 -211 185 -210 190 -209 c 2
 209 -206 l 2
 242 -201 257 -189 267 -161 c 2x5c
429 330 m 0
 433 371 411 403 375 403 c 0
 273 403 184 278 171 158 c 0
 165 102 172 32 211 32 c 0
 248 32 345 115 375 180 c 0
 400 236 427 314 429 330 c 0
EndSplineSet
MultipleSubs2: "'smcp' Min+APoA-sculas a may+APoA-sculas peque+APEA-as lookup 10 subtable" q.sc
Substitution2: "'subs' Sub+AO0A-ndice lookup 7 subtable" q.inferior
Substitution2: "'sups' Supra+AO0A-ndice lookup 6 subtable" q.superior
Substitution2: "Single Substitution lookup 4 subtable" q.superior
Substitution2: "Single Substitution lookup 3 subtable" q.inferior
EndChar

StartChar: r
Encoding: 114 114 83
Width: 357
GlyphClass: 2
Flags: MW
HStem: -10 21G<88.5 120.5> 336 103<390 410.5> 369 70<333.5 419.5> 394 42 416 20G<232 254.5>
VStem: 89 340 101 146 164 83
AnchorPoint: "Anchor-5" 112 7 basechar 0
AnchorPoint: "Anchor-2" 79 -110 basechar 0
AnchorPoint: "Anchor-0" 357 646 basechar 0
LayerCount: 2
Fore
SplineSet
228 285 m 1xc2
 232 284 l 1xc2
 286 377 351 439 401 439 c 0
 438 439 450 413 448 392 c 0
 445 365 424 336 397 336 c 0xc4
 383 336 371 349 365 357 c 0
 360 364 355 369 345 369 c 0xa1
 322 369 256 276 199 189 c 1
 158 72 l 2
 144 33 138 -10 103 -10 c 0
 74 -10 66 1 68 17 c 0
 70 33 80 51 87 72 c 2
 168 321 l 2
 178 349 180 363 181 372 c 0
 182 382 177 391 165 392 c 2x91
 125 395 l 1x92
 120 404 119 415 127 423 c 1
 175 429 216 436 248 436 c 0
 261 436 270 426 268 411 c 0x8a
 266 394 253 359 240 320 c 2
 228 285 l 1xc2
EndSplineSet
MultipleSubs2: "'smcp' Min+APoA-sculas a may+APoA-sculas peque+APEA-as lookup 10 subtable" r.sc
Substitution2: "'subs' Sub+AO0A-ndice lookup 7 subtable" r.inferior
Substitution2: "'sups' Supra+AO0A-ndice lookup 6 subtable" uni02B3
Substitution2: "Single Substitution lookup 4 subtable" uni02B3
Substitution2: "Single Substitution lookup 3 subtable" r.inferior
EndChar

StartChar: s
Encoding: 115 115 84
Width: 353
GlyphClass: 2
Flags: MW
HStem: -10 33<150 188.5 153 165> 406 33<248.5 282.5>
VStem: 123 64 271 75
AnchorPoint: "Anchor-5" 162 -1 basechar 0
AnchorPoint: "Anchor-4" 255 13 basechar 0
AnchorPoint: "Anchor-2" 135 -111 basechar 0
AnchorPoint: "Anchor-0" 372 645 basechar 0
LayerCount: 2
Fore
SplineSet
150 -10 m 1
 81 -6 40 31 44 68 c 0
 45 79 55 103 84 103 c 0
 114 103 125 73 126 50 c 0
 127 28 140 23 166 23 c 0
 211 23 253 42 259 97 c 0
 261 118 256 151 207 187 c 0
 147 231 129 274 133 314 c 0
 139 375 200 439 287 439 c 0
 349 439 396 395 392 359 c 0
 390 343 381 325 353 325 c 0
 327 325 312 353 312 377 c 0
 311 398 295 406 270 406 c 0
 227 406 204 370 200 335 c 0
 197 310 205 292 233 272 c 0
 319 211 341 165 336 118 c 0
 328 44 263 -10 165 -10 c 2
 150 -10 l 1
EndSplineSet
MultipleSubs2: "'smcp' Min+APoA-sculas a may+APoA-sculas peque+APEA-as lookup 10 subtable" s.sc
Substitution2: "'subs' Sub+AO0A-ndice lookup 7 subtable" s.inferior
Substitution2: "'sups' Supra+AO0A-ndice lookup 6 subtable" uni02E2
Substitution2: "Single Substitution lookup 4 subtable" uni02E2
Substitution2: "Single Substitution lookup 3 subtable" s.inferior
EndChar

StartChar: t
Encoding: 116 116 85
Width: 307
GlyphClass: 2
Flags: MW
HStem: -10 21G<105.5 143.5> -10 60<105.5 178> 390 39<119 202 276 361>
VStem: 102 79
AnchorPoint: "Anchor-5" 120 -3 basechar 0
AnchorPoint: "Anchor-4" 184 15 basechar 0
AnchorPoint: "Anchor-2" 93 -107 basechar 0
LayerCount: 2
Fore
SplineSet
202 429 m 1xb0
 220 479 l 2
 234 516 237 561 273 561 c 0
 305 561 312 551 310 534 c 0
 309 522 297 493 291 474 c 2
 276 429 l 1
 375 429 l 1
 385 421 374 395 361 390 c 1
 263 390 l 1
 176 127 l 2
 164 93 160 73 159 64 c 0
 158 52 167 50 170 50 c 0
 186 50 206 60 257 112 c 1x70
 269 112 275 106 277 93 c 1
 236 31 166 -10 121 -10 c 0
 90 -10 73 0 77 36 c 0
 79 55 89 86 99 118 c 2
 189 390 l 1
 119 390 l 2
 116 390 113 390 113 392 c 0
 113 394 118 406 119 409 c 0
 122 417 130 425 149 426 c 2
 202 429 l 1xb0
EndSplineSet
MultipleSubs2: "'smcp' Min+APoA-sculas a may+APoA-sculas peque+APEA-as lookup 10 subtable" t.sc
Substitution2: "'subs' Sub+AO0A-ndice lookup 7 subtable" t.inferior
Substitution2: "'sups' Supra+AO0A-ndice lookup 6 subtable" uni1D57
Substitution2: "Single Substitution lookup 4 subtable" uni1D57
Substitution2: "Single Substitution lookup 3 subtable" t.inferior
EndChar

StartChar: u
Encoding: 117 117 86
Width: 521
GlyphClass: 2
Flags: MW
HStem: -10 60<145.5 237> 379 60<189 275> 419 20G<236 275 482 517>
VStem: 120 79 361 78
AnchorPoint: "Anchor-5" 190 0 basechar 0
AnchorPoint: "Anchor-4" 416 7 basechar 0
AnchorPoint: "Anchor-2" 192 -111 basechar 0
AnchorPoint: "Anchor-0" 431 646 basechar 0
LayerCount: 2
Fore
SplineSet
520 352 m 2xb0
 440 124 l 2
 431 98 424 76 423 67 c 0
 422 55 425 50 432 50 c 0
 442 50 473 70 502 100 c 1
 516 100 521 92 523 83 c 1
 471 24 422 -10 374 -10 c 0
 344 -10 339 4 341 23 c 0
 343 42 356 83 368 115 c 2
 383 154 l 1
 380 156 l 1
 298 52 241 -10 163 -10 c 0
 128 -10 99 13 105 70 c 0
 107 89 112 111 122 137 c 2
 184 305 l 2
 194 331 202 353 203 362 c 0
 204 374 201 379 194 379 c 0
 184 379 149 359 120 329 c 1xd8
 106 329 101 337 99 346 c 1
 151 405 212 439 260 439 c 0
 290 439 294 425 292 406 c 0
 290 387 272 346 261 314 c 2
 201 151 l 2
 191 124 188 103 186 87 c 0
 183 60 194 50 212 50 c 0
 262 50 318 121 405 247 c 1
 446 357 l 2
 460 395 463 439 501 439 c 0
 533 439 542 429 540 412 c 0
 539 400 526 370 520 352 c 2xb0
EndSplineSet
MultipleSubs2: "'smcp' Min+APoA-sculas a may+APoA-sculas peque+APEA-as lookup 10 subtable" u.sc
Substitution2: "'subs' Sub+AO0A-ndice lookup 7 subtable" u.inferior
Substitution2: "'sups' Supra+AO0A-ndice lookup 6 subtable" uni1D58
Substitution2: "Single Substitution lookup 4 subtable" uni1D58
Substitution2: "Single Substitution lookup 3 subtable" u.inferior
EndChar

StartChar: v
Encoding: 118 118 87
Width: 472
GlyphClass: 2
Flags: MW
HStem: -12 21G<212 238> 357 82<193.5 274.5> 419 20G<239.5 274.5 500.5 534.5>
VStem: 82 437 421 98 447 72
LayerCount: 2
Fore
SplineSet
277 76 m 1xb0
 279 74 l 1xb0
 295 85 341 132 358 149 c 0
 406 200 459 278 469 322 c 0xa4
 473 338 473 359 462 382 c 0
 459 386 459 396 461 402 c 0
 467 426 486 439 515 439 c 0
 554 439 563 420 557 392 c 0
 549 356 531 320 508 285 c 0xa8
 466 219 406 158 379 128 c 0
 360 107 315 62 279 25 c 0
 259 4 254 -12 222 -12 c 0
 202 -12 202 8 204 52 c 2
 214 296 l 2
 216 340 213 357 203 357 c 0
 184 357 157 336 123 309 c 1xd0
 112 310 106 317 106 327 c 1
 153 380 223 439 256 439 c 0
 293 439 297 402 291 309 c 2
 277 76 l 1xb0
EndSplineSet
MultipleSubs2: "'smcp' Min+APoA-sculas a may+APoA-sculas peque+APEA-as lookup 10 subtable" v.sc
Substitution2: "'subs' Sub+AO0A-ndice lookup 7 subtable" v.inferior
Substitution2: "'sups' Supra+AO0A-ndice lookup 6 subtable" uni1D5B
Substitution2: "Single Substitution lookup 4 subtable" uni1D5B
Substitution2: "Single Substitution lookup 3 subtable" v.inferior
EndChar

StartChar: w
Encoding: 119 119 88
Width: 688
GlyphClass: 2
Flags: MW
HStem: -12 21G<236.5 245 473.5 484> 357 82<178.5 250.5> 419 20G<215.5 250.5 692.5 726.5>
VStem: 82 653 637 98 663 72
AnchorPoint: "Anchor-3" 761 580 basechar 0
AnchorPoint: "Anchor-2" 321 -110 basechar 0
AnchorPoint: "Anchor-0" 393 646 basechar 0
LayerCount: 2
Fore
SplineSet
241 -12 m 0xb0
 232 -12 225 2 221 52 c 2
 205 296 l 2
 202 340 198 357 188 357 c 0
 169 357 144 336 113 309 c 1xd0
 102 310 95 317 94 327 c 1
 135 380 199 439 232 439 c 0
 269 439 276 402 281 309 c 2
 293 96 l 1
 296 95 l 1
 323 131 400 250 452 346 c 1
 469 354 486 358 502 358 c 1
 507 341 513 307 518 269 c 0
 525 215 531 148 535 96 c 1
 541 94 l 1
 556 108 575 128 592 149 c 0
 635 200 669 277 674 322 c 0xa4
 676 338 673 359 660 382 c 0
 657 386 656 396 657 402 c 0
 660 426 678 439 707 439 c 0
 746 439 757 420 754 392 c 0
 750 356 735 320 716 285 c 0xa8
 681 219 639 157 614 127 c 0
 598 106 561 61 528 25 c 0
 505 0 490 -12 478 -12 c 0
 469 -12 463 -2 461 46 c 0
 458 113 452 194 445 258 c 1
 439 257 l 1
 396 182 330 86 287 27 c 0
 268 2 249 -12 241 -12 c 0xb0
EndSplineSet
MultipleSubs2: "'smcp' Min+APoA-sculas a may+APoA-sculas peque+APEA-as lookup 10 subtable" w.sc
Substitution2: "'subs' Sub+AO0A-ndice lookup 7 subtable" w.inferior
Substitution2: "'sups' Supra+AO0A-ndice lookup 6 subtable" uni02B7
Substitution2: "Single Substitution lookup 4 subtable" uni02B7
Substitution2: "Single Substitution lookup 3 subtable" w.inferior
EndChar

StartChar: x
Encoding: 120 120 89
Width: 475
GlyphClass: 2
Flags: MW
HStem: -10 21G<57.5 86 319 353.5> -10 49<319 383.5> -10 64<57.5 115.5> -10 76<57.5 62 46 86> 356 83<514 521.5> 363 76<175.5 259.5> 376 63 419 20G<235.5 259.5 485 521.5>
VStem: 35 501
AnchorPoint: "Anchor-5" 62 8 basechar 0
AnchorPoint: "Anchor-2" 190 -110 basechar 0
AnchorPoint: "Anchor-0" 411 646 basechar 0
LayerCount: 2
Fore
SplineSet
225 309 m 2x8180
 221 327 215 343 212 351 c 0
 208 360 199 363 186 363 c 0
 165 363 130 347 117 341 c 1x8480
 110 349 108 361 108 372 c 1
 146 398 224 439 247 439 c 0
 272 439 280 419 292 367 c 2
 311 279 l 1
 368 351 l 2
 424 422 460 439 510 439 c 0
 533 439 558 424 555 399 c 0
 553 376 533 356 519 356 c 0x8880
 509 356 493 360 487 366 c 0
 479 373 466 376 458 376 c 0
 451 376 426 372 408 349 c 2
 320 237 l 1
 357 76 l 2
 362 52 369 39 378 39 c 0
 389 39 403 47 432 80 c 1x4280
 443 78 451 70 454 61 c 1
 418 9 371 -10 336 -10 c 0
 302 -10 294 6 285 46 c 2
 260 168 l 1
 180 68 l 2
 129 5 103 -10 69 -10 c 0
 46 -10 12 2 15 28 c 0
 17 50 35 66 57 66 c 0x1180
 67 66 77 64 86 60 c 0
 94 56 104 54 112 54 c 0
 119 54 130 58 142 73 c 2x2180
 251 211 l 1
 225 309 l 2x8180
EndSplineSet
MultipleSubs2: "'smcp' Min+APoA-sculas a may+APoA-sculas peque+APEA-as lookup 10 subtable" x.sc
Substitution2: "'subs' Sub+AO0A-ndice lookup 7 subtable" uni2093
Substitution2: "'sups' Supra+AO0A-ndice lookup 6 subtable" uni02E3
Substitution2: "Single Substitution lookup 4 subtable" uni02E3
Substitution2: "Single Substitution lookup 3 subtable" uni2093
EndChar

StartChar: y
Encoding: 121 121 90
Width: 503
GlyphClass: 2
Flags: MW
HStem: -234 21G<66.5 101.5> -234 61<66.5 143> -234 93<66.5 73 58.5 101.5> 363 76<186.5 270.5> 419 20G<246.5 270.5 517.5 551.5>
VStem: 265 53 451 98 477 72
AnchorPoint: "Anchor-2" 346 -107 basechar 0
AnchorPoint: "Anchor-0" 424 644 basechar 0
LayerCount: 2
Fore
SplineSet
342 0 m 2x8e
 289 -70 l 2
 215 -169 128 -234 75 -234 c 0
 58 -234 15 -225 18 -192 c 0
 21 -161 48 -141 69 -141 c 0x2e
 77 -141 97 -149 103 -155 c 0
 108 -160 126 -173 136 -173 c 0
 150 -173 197 -129 245 -62 c 0
 260 -36 255 207 235 309 c 0
 232 327 227 343 224 351 c 0
 220 360 210 363 197 363 c 0
 176 363 142 347 129 341 c 1x56
 122 349 119 361 119 372 c 1
 157 398 235 439 258 439 c 0
 283 439 295 418 303 365 c 0
 320 241 316 147 310 31 c 1
 317 28 l 1
 346 65 407 149 407 149 c 2
 447 203 495 278 500 322 c 0x8d
 502 338 498 359 485 382 c 0
 482 386 481 396 482 402 c 0
 485 426 503 439 532 439 c 0
 571 439 582 420 579 392 c 0
 575 356 560 320 541 285 c 0
 506 219 364 32 342 0 c 2x8e
EndSplineSet
Substitution2: "'salt' Alternativas estil+AO0A-sticas lookup 20 subtable" y.alt
MultipleSubs2: "'smcp' Min+APoA-sculas a may+APoA-sculas peque+APEA-as lookup 10 subtable" y.sc
Substitution2: "'subs' Sub+AO0A-ndice lookup 7 subtable" y.inferior
Substitution2: "'sups' Supra+AO0A-ndice lookup 6 subtable" uni02B8
Substitution2: "Single Substitution lookup 4 subtable" uni02B8
Substitution2: "Single Substitution lookup 3 subtable" y.inferior
EndChar

StartChar: z
Encoding: 122 122 91
Width: 436
GlyphClass: 2
Flags: MW
HStem: -10 77<272 307.5> 41 61<125 210> 307 8 354 58<325.5 413> 363 76<205 236 204.5 250.5> 409 20G<489 489>
VStem: 54 413
AnchorPoint: "Anchor-5" 186 4 basechar 0
AnchorPoint: "Anchor-2" 153 -111 basechar 0
AnchorPoint: "Anchor-0" 405 646 basechar 0
LayerCount: 2
Fore
SplineSet
462 444 m 1xb2
 489 429 l 1
 477 413 455 392 427 362 c 0
 364 292 242 180 164 102 c 1x66
 256 102 246 67 297 67 c 0
 325 67 355 72 399 133 c 1
 411 133 418 130 423 123 c 1
 365 15 329 -10 286 -10 c 0xaa
 258 -10 226 0 203 15 c 0
 173 35 147 41 130 41 c 0x6a
 120 41 93 25 67 -12 c 1
 59 -11 53 -9 45 -6 c 0
 39 -5 34 0 32 7 c 1
 37 21 81 68 103 91 c 2
 372 356 l 1
 362 354 354 354 340 354 c 0
 311 354 273 363 228 363 c 0
 182 363 165 353 139 307 c 1
 128 307 118 308 112 315 c 1
 135 374 187 439 222 439 c 0xaa
 250 439 280 434 327 426 c 0
 373 416 387 412 405 412 c 0
 421 412 436 418 462 444 c 1xb2
EndSplineSet
MultipleSubs2: "'smcp' Min+APoA-sculas a may+APoA-sculas peque+APEA-as lookup 10 subtable" z.sc
Substitution2: "'subs' Sub+AO0A-ndice lookup 7 subtable" z.inferior
Substitution2: "'sups' Supra+AO0A-ndice lookup 6 subtable" uni1DBB
Substitution2: "Single Substitution lookup 4 subtable" uni1DBB
Substitution2: "Single Substitution lookup 3 subtable" z.inferior
EndChar

StartChar: braceleft
Encoding: 123 123 92
Width: 273
GlyphClass: 2
Flags: MW
HStem: -217 14<157 161> 697 14<414 419>
VStem: 89 73 132 72
LayerCount: 2
Fore
SplineSet
313 567 m 2xd0
 262 386 l 2
 236 295 210 268 155 247 c 1
 189 230 199 205 195 165 c 0
 193 146 188 123 180 95 c 2xd0
 134 -69 l 2
 129 -89 125 -107 123 -122 c 0
 121 -138 122 -152 124 -162 c 0
 134 -196 152 -200 161 -203 c 1
 157 -217 l 1
 103 -216 67 -204 56 -181 c 0
 49 -167 47 -148 50 -123 c 0
 52 -103 57 -81 64 -54 c 2xe0
 114 121 l 2
 119 138 122 153 124 168 c 0
 128 206 119 234 82 244 c 1
 83 249 l 1
 144 265 170 320 184 370 c 2
 238 559 l 2
 253 613 273 652 298 675 c 0
 323 698 366 710 419 711 c 1
 414 697 l 1
 392 691 372 678 354 656 c 0
 338 638 325 608 313 567 c 2xd0
EndSplineSet
MultipleSubs2: "'c2sc' May+APoA-sculas a min+APoA-sculas lookup 12 subtable" braceleft.sc
Substitution2: "'case' Formas sensible a may+APoA-sculas lookup 8 subtable" braceleft.sc
EndChar

StartChar: bar
Encoding: 124 124 93
Width: 205
GlyphClass: 2
Flags: MW
HStem: -233 21G<-7 37 -7 -7> 632 20G<243 287 287 287>
VStem: 40 200
LayerCount: 2
Fore
SplineSet
37 -233 m 1
 -7 -233 l 1
 243 652 l 1
 287 652 l 1
 37 -233 l 1
EndSplineSet
EndChar

StartChar: braceright
Encoding: 125 125 94
Width: 273
GlyphClass: 2
Flags: MW
HStem: -217 14<-58 -53> 677 20G<199 199> 697 14<199 204>
VStem: 157 72 199 72
LayerCount: 2
Fore
SplineSet
48 -73 m 2xd0
 98 108 l 2
 124 199 151 227 206 248 c 1
 171 264 162 289 166 329 c 0
 168 349 173 372 181 399 c 2xd0
 226 563 l 2
 232 584 236 602 238 617 c 0
 240 633 239 646 236 656 c 0xa8
 227 690 209 694 199 697 c 1xc8
 204 711 l 1
 257 710 294 698 305 675 c 0
 311 661 313 642 310 617 c 0
 308 597 304 575 296 548 c 2xa8
 246 374 l 2
 241 356 238 340 237 326 c 0
 233 288 242 260 278 250 c 1
 278 245 l 1
 217 229 190 174 176 125 c 2
 123 -65 l 2
 107 -119 87 -158 63 -181 c 0
 37 -204 -6 -216 -58 -217 c 1
 -53 -203 l 1
 -31 -197 -11 -184 7 -162 c 0
 22 -144 36 -114 48 -73 c 2xd0
EndSplineSet
MultipleSubs2: "'c2sc' May+APoA-sculas a min+APoA-sculas lookup 12 subtable" braceright.sc
Substitution2: "'case' Formas sensible a may+APoA-sculas lookup 8 subtable" braceright.sc
EndChar

StartChar: asciitilde
Encoding: 126 126 95
Width: 449
GlyphClass: 2
Flags: MW
HStem: 213 59<326.5 341> 278 59<190 224>
VStem: 63 413
LayerCount: 2
Fore
SplineSet
56 209 m 1
 87 274 160 337 220 337 c 0
 266 337 304 272 349 272 c 0
 377 272 431 289 467 339 c 1
 482 333 l 1
 421 226 353 213 329 213 c 0
 276 213 250 278 198 278 c 0
 163 278 104 250 68 206 c 1
 56 209 l 1
EndSplineSet
EndChar

StartChar: exclamdown
Encoding: 161 161 97
Width: 227
GlyphClass: 2
Flags: MW
HStem: -231 21G<27.5 50.5> 340 107<188 244.5>
VStem: 30 119 132 108
LayerCount: 2
Fore
SplineSet
39 -231 m 0xe0
 16 -231 -4 -214 0 -178 c 0
 1 -171 2 -165 4 -158 c 0
 23 -93 50 -51 84 35 c 0
 127 143 146 203 151 216 c 0
 155 228 161 236 171 236 c 0
 181 236 182 231 181 226 c 2
 181 224 l 2
 178 203 157 113 143 35 c 0
 138 8 136 -14 134 -32 c 2
 130 -77 l 2
 127 -102 123 -125 115 -158 c 0
 99 -212 62 -231 39 -231 c 0xe0
269 394 m 0xd0
 261 364 230 340 201 340 c 0
 175 340 158 359 161 384 c 0
 161 387 162 390 163 394 c 0
 171 423 202 447 231 447 c 0
 258 447 274 428 271 402 c 0
 271 399 270 396 269 394 c 0xd0
EndSplineSet
MultipleSubs2: "'c2sc' May+APoA-sculas a min+APoA-sculas lookup 12 subtable" exclamdown.sc
Substitution2: "'case' Formas sensible a may+APoA-sculas lookup 8 subtable" exclamdown.sc
EndChar

StartChar: cent
Encoding: 162 162 98
Width: 438
GlyphClass: 2
Flags: MW
HStem: -12 21G<174 208 174 174> 61 60<174.5 248 195 248>
VStem: 93 82 364 69
LayerCount: 2
Fore
SplineSet
352 584 m 1
 386 584 l 1
 364 509 l 1
 452 503 450 451 446 414 c 0
 443 389 417 369 390 369 c 0
 373 369 364 385 366 401 c 0
 367 407 370 418 373 422 c 0
 377 427 379 435 380 441 c 0
 383 466 368 475 354 478 c 1
 248 121 l 1
 295 126 334 157 373 197 c 1
 382 197 391 190 393 180 c 1
 347 124 290 78 231 65 c 1
 208 -12 l 1
 174 -12 l 1
 195 61 l 1
 195 61 l 1
 154 61 122 80 104 109 c 0
 84 142 83 187 86 220 c 0
 95 310 136 387 191 440 c 0
 232 479 289 504 329 509 c 1
 352 584 l 1
214 122 m 1
 320 477 l 1
 250 462 184 377 170 242 c 0
 164 182 172 162 185 143 c 0
 193 131 203 125 214 122 c 1
EndSplineSet
EndChar

StartChar: sterling
Encoding: 163 163 99
Width: 438
GlyphClass: 2
Flags: MW
HStem: -12 50<280 296> 46 39<93.5 173.5> 292 40<138 191 125 204 276 394> 533 42<398 487>
VStem: 19 493
LayerCount: 2
Fore
SplineSet
144 85 m 0
 203 85 224 71 242 57 c 0
 255 46 267 38 293 38 c 0
 321 38 370 52 404 85 c 1
 418 72 l 1
 386 23 331 -12 261 -12 c 0
 224 -12 199 4 176 20 c 0
 155 34 136 46 110 46 c 0
 77 46 63 30 60 20 c 0
 52 -6 26 -17 9 -17 c 0
 -4 -17 -14 -5 -10 7 c 0
 -4 29 24 48 53 61 c 0
 61 66 66 70 75 77 c 0
 135 125 164 202 184 266 c 2
 191 292 l 1
 125 292 l 1
 138 332 l 1
 204 332 l 1
 205 340 l 1
 229 420 268 472 335 523 c 0
 379 557 426 575 476 575 c 0
 498 575 548 564 538 531 c 0
 531 507 510 493 487 493 c 0
 474 493 467 501 460 511 c 0
 450 522 441 533 420 533 c 0
 376 533 317 470 292 388 c 2
 276 332 l 1
 406 332 l 1
 394 292 l 1
 263 292 l 1
 262 287 l 1
 228 170 185 116 140 88 c 0
 138 87 136 86 134 84 c 1
 138 85 141 85 144 85 c 0
EndSplineSet
EndChar

StartChar: currency
Encoding: 164 164 100
Width: 438
GlyphClass: 2
Flags: MW
HStem: 124 42<203 242.5> 432 42<300.5 337.5>
VStem: 90 61 389 61
LayerCount: 2
Fore
SplineSet
222 124 m 0
 182 124 148 136 123 160 c 1
 66 106 l 1
 36 146 l 1
 101 189 l 1
 89 213 84 239 87 268 c 0
 88 277 90 288 93 299 c 0
 105 341 130 378 164 409 c 1
 124 450 l 1
 172 489 l 1
 203 439 l 1
 242 462 281 474 320 474 c 0
 360 474 394 461 419 437 c 1
 480 492 l 1
 508 451 l 1
 440 407 l 1
 452 385 456 360 453 332 c 0
 452 321 450 310 447 299 c 0
 436 259 414 223 381 191 c 1
 420 147 l 1
 373 109 l 1
 341 161 l 1
 301 136 263 124 222 124 c 0
154 300 m 0
 151 290 149 281 148 271 c 0
 142 212 172 166 234 166 c 0
 303 166 367 228 387 299 c 0
 389 308 391 317 392 326 c 0
 398 387 365 432 310 432 c 0
 241 432 174 371 154 300 c 0
EndSplineSet
EndChar

StartChar: yen
Encoding: 165 165 101
Width: 438
GlyphClass: 2
Flags: MW
HStem: -1 29<63 104 318 318> 127 39<68 188 56 199 280 412> 229 40<99 219 87 225 324 443> 547 28<135 136 135 136 136 143> 548 27
VStem: 73 491
LayerCount: 2
Fore
SplineSet
424 166 m 1xf4
 412 127 l 1
 269 127 l 1
 252 72 l 2
 243 41 255 28 294 28 c 2
 321 28 l 2
 325 28 328 25 326 20 c 2
 321 1 l 1
 318 -1 l 1
 318 -1 232 1 193 1 c 0
 157 1 63 -1 63 -1 c 1
 62 1 l 1
 67 20 l 2
 69 25 73 28 78 28 c 2
 104 28 l 2
 145 28 163 44 171 72 c 2
 188 127 l 1
 56 127 l 1
 68 166 l 1
 199 166 l 1
 219 229 l 1
 87 229 l 1
 99 269 l 1
 225 269 l 1
 182 501 l 2
 177 530 170 547 143 547 c 2
 136 547 l 1
 135 547 l 2
 132 548 127 550 129 555 c 2
 134 573 l 1
 136 575 l 1
 147 573 214 572 227 572 c 0
 233 572 299 573 314 575 c 1
 315 573 l 1
 310 556 l 2
 309 552 305 547 300 547 c 2
 287 547 l 2
 269 547 262 542 259 534 c 0
 257 527 258 519 259 509 c 0
 260 507 260 505 261 503 c 2xf4
 298 290 l 1
 456 503 l 2
 465 517 473 528 475 535 c 0
 478 544 472 548 454 548 c 2
 439 548 l 2
 434 548 434 552 435 555 c 2xec
 441 573 l 1
 442 575 l 1
 450 574 507 572 520 572 c 0
 529 572 573 573 592 575 c 1
 594 573 l 1xf4
 589 556 l 2
 588 552 586 548 577 548 c 2
 570 548 l 2
 541 548 517 530 496 501 c 2xec
 324 269 l 1
 455 269 l 1
 443 229 l 1
 300 229 l 1
 280 166 l 1
 424 166 l 1xf4
EndSplineSet
Substitution2: "'pnum' Cifras proporcionales lookup 17 subtable" Yen.fitted
EndChar

StartChar: brokenbar
Encoding: 166 166 102
Width: 205
GlyphClass: 2
Flags: MW
HStem: -201 875<-1 295 -1 295>
VStem: 45 204
LayerCount: 2
Fore
SplineSet
150 161 m 1
 48 -201 l 1
 -1 -201 l 1
 101 161 l 1
 150 161 l 1
295 674 m 1
 193 312 l 1
 144 312 l 1
 246 674 l 1
 295 674 l 1
EndSplineSet
EndChar

StartChar: section
Encoding: 167 167 103
Width: 473
GlyphClass: 2
Flags: MW
HStem: -172 31<149.5 198 149.5 211> 627 31<376 424.5>
VStem: 82 77 103 64 188 74 314 75 409 65 417 77
LayerCount: 2
Fore
SplineSet
234 416 m 1xda
 216 444 212 471 215 497 c 0
 224 582 293 658 411 658 c 0
 498 658 532 609 528 570 c 0
 526 550 517 519 481 519 c 0
 455 519 449 541 450 560 c 0xd9
 452 598 446 627 403 627 c 0
 349 627 298 592 292 533 c 0
 288 496 305 456 350 427 c 0
 406 391 486 352 476 258 c 0xda
 472 217 450 138 345 71 c 1
 360 47 366 24 363 -1 c 0
 352 -102 263 -172 159 -172 c 0
 72 -172 44 -122 48 -84 c 0
 50 -64 62 -33 98 -33 c 0
 124 -33 127 -55 126 -74 c 0xe6
 124 -112 128 -141 171 -141 c 0
 225 -141 279 -96 285 -36 c 0
 289 0 272 30 227 59 c 0
 171 95 91 134 101 228 c 0xd6
 105 268 128 349 234 416 c 1xda
328 92 m 1xd2
 367 118 399 147 405 203 c 0
 412 273 357 308 306 345 c 0
 283 362 264 378 250 394 c 1
 212 368 177 342 171 283 c 0
 164 213 219 178 270 141 c 0
 295 124 314 108 328 92 c 1xd2
EndSplineSet
EndChar

StartChar: dieresis
Encoding: 168 168 104
Width: 375
GlyphClass: 2
Flags: MW
HStem: 528 91<338 386>
VStem: 155 92 316 92
LayerCount: 2
Fore
SplineSet
375 619 m 0
 397 619 411 602 409 581 c 0
 406 550 374 528 349 528 c 0
 327 528 313 544 315 565 c 0
 318 597 350 619 375 619 c 0
214 618 m 0
 236 618 250 602 248 581 c 0
 245 549 212 527 188 527 c 0
 166 527 152 543 154 565 c 0
 157 596 189 618 214 618 c 0
EndSplineSet
EndChar

StartChar: copyright
Encoding: 169 169 105
Width: 633
GlyphClass: 2
Flags: MW
HStem: 23 32<221 360 221 365> 153 27<278 333.5> 362 80 435 21<315.5 370 288 370.5> 557 31<273 412.5>
VStem: 34 31<306 306> 168 56 568 31<306 306>
LayerCount: 2
Fore
SplineSet
287 23 m 0xdf
 130 23 18 151 34 306 c 0
 50 462 191 588 347 588 c 0
 503 588 615 462 599 306 c 0
 583 150 443 23 287 23 c 0xdf
343 557 m 0
 203 557 80 445 65 306 c 0
 50 168 151 55 291 55 c 0
 429 55 553 167 568 306 c 0
 583 445 482 557 343 557 c 0
428 217 m 1
 405 186 361 153 306 153 c 0
 210 153 160 227 168 307 c 0
 176 380 241 456 335 456 c 0xdf
 405 456 402 442 436 442 c 1
 440 364 l 1xef
 413 360 l 1
 410 404 407 435 334 435 c 0
 297 435 235 410 224 305 c 0
 217 238 244 180 312 180 c 0
 363 180 395 215 408 231 c 1
 428 217 l 1
EndSplineSet
EndChar

StartChar: ordfeminine
Encoding: 170 170 106
Width: 296
GlyphClass: 2
Flags: MW
HStem: 359 34<173.5 179.5> 359 37<270.5 318> 409 20G<354 358> 419 10 618 19<260.5 295.5>
VStem: 118 50 270 49
LayerCount: 2
Fore
SplineSet
338 633 m 0xae
 344 632 350 632 357 632 c 2
 382 632 l 1
 319 439 l 2
 316 427 310 411 309 405 c 0
 308 398 313 396 315 396 c 0x6e
 321 396 335 406 354 429 c 1
 362 429 365 424 367 419 c 1x9e
 347 384 319 359 281 359 c 0
 260 359 257 375 258 387 c 0
 259 394 263 407 268 421 c 2x6e
 280 447 l 1
 278 448 l 1
 235 393 196 359 163 359 c 0
 111 359 108 407 112 442 c 0
 122 539 224 637 290 637 c 0
 315 637 321 635 338 633 c 0xae
293 501 m 1
 313 541 326 606 326 606 c 1
 315 613 302 618 289 618 c 0
 232 618 170 518 163 452 c 0
 159 417 163 393 184 393 c 0
 204 393 257 445 293 501 c 1
EndSplineSet
EndChar

StartChar: guillemotleft
Encoding: 171 171 107
Width: 464
GlyphClass: 2
Flags: MW
HStem: 23 384<214 336 336 378>
VStem: 90 412
LayerCount: 2
Fore
SplineSet
173 215 m 1
 202 174 223 126 250 47 c 1
 214 23 l 1
 175 99 150 142 104 191 c 2
 104 191 94 202 89 207 c 1
 94 223 l 1
 103 228 120 239 120 239 c 2
 196 288 249 331 336 407 c 1
 357 383 l 1
 280 304 228 256 173 215 c 1
336 215 m 1
 365 174 386 126 413 47 c 1
 378 23 l 1
 339 99 314 142 268 191 c 2
 268 191 258 202 253 207 c 1
 258 223 l 1
 267 228 284 239 284 239 c 2
 360 288 413 331 500 407 c 1
 520 383 l 1
 443 304 391 256 336 215 c 1
EndSplineSet
MultipleSubs2: "'c2sc' May+APoA-sculas a min+APoA-sculas lookup 12 subtable" guillemotleft.sc
Substitution2: "'case' Formas sensible a may+APoA-sculas lookup 8 subtable" guillemotleft.sc
EndChar

StartChar: logicalnot
Encoding: 172 172 108
Width: 560
GlyphClass: 2
Flags: MW
HStem: 357 44<109 555 96 621>
VStem: 87 520
LayerCount: 2
Fore
SplineSet
493 133 m 1
 555 357 l 1
 96 357 l 1
 109 401 l 1
 621 401 l 1
 546 133 l 1
 493 133 l 1
EndSplineSet
EndChar

StartChar: uni00AD
Encoding: 173 173 109
Width: 350
GlyphClass: 2
Flags: MW
HStem: 236 54<82.5 341 112 313>
VStem: 77 272
LayerCount: 2
Fore
SplineSet
313 236 m 2
 86 236 l 2
 79 236 75 242 76 250 c 2
 76 250 77 252 77 253 c 0
 82 269 101 290 112 290 c 2
 341 290 l 2
 349 290 352 285 351 278 c 2
 350 272 l 2
 347 261 326 236 313 236 c 2
EndSplineSet
EndChar

StartChar: registered
Encoding: 174 174 110
Width: 633
GlyphClass: 2
Flags: MW
HStem: 23 32<221 360 221 365> 166 17<395.5 435> 169 15 287 21<288 288.5> 426 21 430 17<323.5 346> 557 31<273 412.5>
VStem: 34 31<306 306> 237 51 367 50 568 31<306 306>
LayerCount: 2
Fore
SplineSet
287 23 m 0xb7e0
 130 23 18 151 34 306 c 0
 50 462 191 588 347 588 c 0
 503 588 615 462 599 306 c 0
 583 150 443 23 287 23 c 0xb7e0
343 557 m 0
 203 557 80 445 65 306 c 0
 50 168 151 55 291 55 c 0
 429 55 553 167 568 306 c 0
 583 445 482 557 343 557 c 0
424 372 m 0
 419 320 359 296 359 296 c 1
 398 214 l 2
 409 192 420 183 435 183 c 1
 434 170 l 1
 424 167 415 166 410 166 c 0
 381 166 361 178 352 204 c 2xd7e0
 313 283 l 2
 309 286 291 287 286 287 c 1
 276 192 l 2
 275 187 275 184 282 184 c 2
 294 184 l 2
 302 184 306 183 305 178 c 2
 303 167 l 1
 303 167 262 169 248 169 c 2
 192 167 l 1
 194 179 l 2
 194 183 197 184 204 184 c 2
 216 184 l 2
 222 184 224 185 225 192 c 2
 249 415 l 2
 250 421 249 426 246 426 c 2xbbe0
 230 425 l 2
 223 426 220 428 220 431 c 2
 221 442 l 1
 242 445 264 447 337 447 c 0
 413 447 427 402 424 372 c 0
374 372 m 0
 378 406 363 430 329 430 c 0
 318 430 306 428 301 427 c 1
 288 308 l 1
 319 308 367 310 374 372 c 0
EndSplineSet
EndChar

StartChar: macron
Encoding: 175 175 111
Width: 397
GlyphClass: 2
Flags: MW
HStem: 529 44<158.5 428 184 407>
VStem: 154 284
LayerCount: 2
Fore
SplineSet
407 529 m 2
 162 529 l 2
 155 529 152 534 153 540 c 0
 153 541 153 542 154 544 c 0
 157 556 172 573 184 573 c 2
 428 573 l 2
 437 573 440 567 439 562 c 2
 439 559 l 2
 436 547 419 529 407 529 c 2
EndSplineSet
EndChar

StartChar: degree
Encoding: 176 176 112
Width: 267
GlyphClass: 2
Flags: MW
HStem: 493 28<199.5 238.5 199.5 238.5> 665 27<238.5 278.5>
VStem: 137 33 306 33
LayerCount: 2
Fore
SplineSet
139 593 m 0
 154 648 211 692 266 692 c 0
 315 692 346 657 341 610 c 0
 340 604 340 599 338 593 c 0
 322 538 266 493 211 493 c 0
 161 493 130 528 135 575 c 0
 136 581 137 587 139 593 c 0
305 592 m 0
 305 596 307 601 307 605 c 0
 310 634 298 665 259 665 c 0
 216 665 182 627 172 592 c 0
 170 587 169 583 168 578 c 0
 165 548 181 521 218 521 c 0
 259 521 294 557 305 592 c 0
EndSplineSet
EndChar

StartChar: plusminus
Encoding: 177 177 113
Width: 527
GlyphClass: 2
Flags: MW
HStem: 18 49<57 438 43 452> 292 49<134 294 120 307 357 516 134 343>
VStem: 69 452
LayerCount: 2
Fore
SplineSet
357 341 m 1
 529 341 l 1
 516 292 l 1
 343 292 l 1
 294 119 l 1
 244 119 l 1
 294 292 l 1
 120 292 l 1
 134 341 l 1
 307 341 l 1
 356 515 l 1
 405 515 l 1
 357 341 l 1
452 67 m 1
 438 18 l 1
 43 18 l 1
 57 67 l 1
 452 67 l 1
EndSplineSet
EndChar

StartChar: uni00B2
Encoding: 178 178 114
Width: 307
GlyphClass: 2
Flags: MW
HStem: 364 32<170 251 251 266.5 170 305> 443 20G<328 328> 664 24<272.5 302>
VStem: 165 55 322 59
LayerCount: 2
Fore
SplineSet
194 587 m 0
 182 587 173 596 174 607 c 0
 174 608 174 610 175 611 c 0
 183 637 226 688 305 688 c 0
 350 688 396 672 391 623 c 0
 390 617 390 612 387 605 c 0
 374 559 331 526 263 486 c 0
 212 456 179 427 170 396 c 1
 251 396 l 2
 282 396 310 435 328 463 c 1
 351 458 l 1
 334 428 317 393 305 364 c 1
 99 364 l 1
 113 412 169 454 227 491 c 0
 284 527 312 550 328 604 c 0
 330 609 331 614 332 619 c 0
 336 654 310 664 294 664 c 0
 251 664 234 648 231 635 c 0
 229 630 229 626 230 623 c 0
 230 619 229 615 228 611 c 0
 223 595 203 587 194 587 c 0
EndSplineSet
EndChar

StartChar: uni00B3
Encoding: 179 179 115
Width: 307
GlyphClass: 2
Flags: MW
HStem: 358 25<182.5 207.5 182.5 220.5> 529 22<225 252> 529 32 664 24<282 300.5>
VStem: 307 61 311 57
LayerCount: 2
Fore
SplineSet
321 624 m 0xd8
 321 628 323 631 323 635 c 0
 325 657 309 664 292 664 c 0
 272 664 235 654 226 629 c 0
 222 617 214 600 192 600 c 0
 173 600 174 615 174 618 c 0
 179 635 224 688 311 688 c 0
 358 688 383 670 380 640 c 0
 380 636 379 633 378 629 c 0xd4
 369 600 341 577 307 561 c 1
 336 558 370 537 365 491 c 0xb8
 364 486 363 479 361 473 c 0
 341 404 260 358 181 358 c 0
 145 358 99 373 101 393 c 0
 102 406 123 415 133 415 c 0
 146 415 150 408 154 401 c 0
 159 391 167 383 198 383 c 0
 217 383 279 396 300 465 c 0
 302 471 302 476 302 480 c 0
 307 523 263 529 241 529 c 0
 234 529 227 528 219 527 c 1
 225 551 l 1
 271 557 309 583 321 624 c 0xd8
EndSplineSet
EndChar

StartChar: acute
Encoding: 180 180 116
Width: 341
GlyphClass: 2
Flags: MW
HStem: 542 163<186.5 337>
VStem: 187 178
LayerCount: 2
Fore
SplineSet
307 703 m 2
 310 704 318 705 323 705 c 0
 351 705 361 694 366 687 c 0
 368 685 369 683 371 682 c 2
 370 671 l 1
 225 562 l 2
 205 547 197 542 190 542 c 0
 183 542 179 547 180 553 c 0
 181 558 183 567 192 577 c 2
 307 703 l 2
EndSplineSet
EndChar

StartChar: mu
Encoding: 181 181 117
Width: 485
GlyphClass: 2
Flags: MW
HStem: -234 21G<4.5 23> -10 50<170 194> 419 20G<197 232 473 508>
VStem: 7 98 125 31 341 78
LayerCount: 2
Fore
SplineSet
162 357 m 2
 175 395 178 439 216 439 c 0
 248 439 258 429 256 412 c 0
 255 400 242 370 236 352 c 2
 168 147 l 2
 151 95 141 40 199 40 c 0
 246 40 310 121 397 247 c 1
 438 357 l 2
 452 395 454 439 492 439 c 0
 524 439 534 429 532 412 c 0
 531 400 518 370 512 352 c 2
 432 124 l 2
 423 98 416 76 415 67 c 0
 414 55 416 50 423 50 c 0
 433 50 465 70 494 100 c 1
 508 100 513 92 515 83 c 1
 463 24 414 -10 366 -10 c 0
 336 -10 331 4 333 23 c 0
 335 42 347 83 359 115 c 2
 374 154 l 1
 372 156 l 1
 290 52 233 -10 155 -10 c 0
 137 -10 123 0 116 13 c 1
 110 13 103 9 101 4 c 0
 92 -21 89 -46 86 -71 c 0
 84 -92 82 -112 80 -131 c 0
 71 -217 35 -234 11 -234 c 0
 -2 -234 -26 -216 -23 -183 c 0
 -19 -146 27 -74 50 -8 c 0
 60 25 69 76 88 134 c 2
 162 357 l 2
EndSplineSet
EndChar

StartChar: paragraph
Encoding: 182 182 118
Width: 602
GlyphClass: 2
Flags: MW
HStem: -234 27<319 341.5 319 485> -234 28<171 200 458 485 157 200> 616 25<545.5 562> 618 28
VStem: 100 587
LayerCount: 2
Fore
SplineSet
436 -144 m 2x58
 431 -159 430 -171 429 -179 c 0
 427 -202 436 -205 458 -206 c 2
 488 -206 l 2
 492 -206 492 -209 491 -213 c 2
 485 -234 l 1
 157 -234 l 1
 163 -213 l 2
 165 -208 167 -206 171 -206 c 2
 200 -206 l 2
 233 -205 242 -195 256 -143 c 2
 360 227 l 1
 344 220 312 215 280 215 c 0
 207 215 105 251 119 385 c 0
 121 402 123 420 128 439 c 0
 163 562 257 646 390 646 c 0x58
 465 646 525 641 552 641 c 0x68
 587 641 622 644 622 644 c 1
 733 646 l 1
 727 625 l 2
 726 621 723 618 719 618 c 2
 689 618 l 2
 654 618 646 602 633 556 c 2
 436 -144 l 2x58
327 -207 m 0xa8
 356 -207 365 -187 377 -145 c 2
 575 556 l 2
 578 570 580 581 581 589 c 0
 584 614 574 615 562 616 c 0
 529 616 519 584 511 553 c 2
 315 -143 l 2
 312 -153 310 -164 309 -174 c 0
 307 -192 311 -207 327 -207 c 0xa8
EndSplineSet
EndChar

StartChar: periodcentered
Encoding: 183 183 119
Width: 250
GlyphClass: 2
Flags: MW
HStem: 199 108<170 186>
VStem: 124 108<253 253>
LayerCount: 2
Fore
SplineSet
172 199 m 0
 144 199 121 225 124 253 c 0
 127 281 156 307 184 307 c 0
 212 307 235 281 232 253 c 0
 229 225 200 199 172 199 c 0
EndSplineSet
EndChar

StartChar: cedilla
Encoding: 184 184 120
Width: 541
GlyphClass: 2
Flags: MW
HStem: -181 25<220.5 249 220.5 263.5> -80 32<266 326>
VStem: 310 55
LayerCount: 2
Fore
SplineSet
276 -80 m 0
 256 -80 246 -82 229 -86 c 1
 225 -80 l 1
 293 7 l 1
 327 7 l 1
 284 -51 l 1
 292 -49 301 -48 310 -48 c 0
 342 -48 367 -63 364 -95 c 0
 359 -146 297 -181 230 -181 c 0
 199 -181 183 -175 161 -164 c 1
 177 -146 l 1
 202 -155 209 -156 232 -156 c 0
 266 -156 305 -138 308 -106 c 0
 310 -90 296 -80 276 -80 c 0
EndSplineSet
EndChar

StartChar: uni00B9
Encoding: 185 185 121
Width: 307
GlyphClass: 2
Flags: MW
HStem: 364 26<122 173 306 306> 668 20G<328 344 344 344>
VStem: 139 188
LayerCount: 2
Fore
SplineSet
258 621 m 0
 245 621 213 612 196 605 c 1
 195 632 l 1
 247 649 276 661 328 688 c 1
 344 688 l 1
 266 427 l 2
 259 405 266 390 280 390 c 2
 308 390 l 2
 311 390 313 389 312 385 c 2
 306 364 l 1
 306 364 254 365 220 365 c 0
 182 365 122 364 122 364 c 1
 128 385 l 2
 129 387 133 390 137 390 c 2
 173 390 l 2
 189 390 208 405 215 427 c 2
 260 579 l 2
 269 611 270 621 258 621 c 0
EndSplineSet
EndChar

StartChar: ordmasculine
Encoding: 186 186 122
Width: 349
GlyphClass: 2
Flags: MW
HStem: 358 28<206 250 206 264> 596 25<262 312>
VStem: 120 59 340 59
LayerCount: 2
Fore
SplineSet
122 484 m 0
 147 569 215 621 301 621 c 0
 399 621 416 557 396 490 c 0
 375 422 311 358 217 358 c 0
 143 358 99 412 122 484 c 0
287 596 m 0
 237 596 198 548 182 494 c 0
 167 445 176 386 236 386 c 0
 264 386 312 402 334 474 c 0
 357 554 337 596 287 596 c 0
EndSplineSet
EndChar

StartChar: guillemotright
Encoding: 187 187 123
Width: 464
GlyphClass: 2
Flags: MW
HStem: 23 384<63 185 185 227>
VStem: 61 412 292 16 456 16
LayerCount: 2
Fore
SplineSet
390 215 m 1xc0
 361 256 340 304 313 383 c 1
 349 407 l 1
 388 331 413 288 459 239 c 2
 459 239 469 228 474 223 c 1
 469 207 l 1
 460 202 443 191 443 191 c 2x90
 367 142 314 99 227 23 c 1
 206 47 l 1
 283 126 335 174 390 215 c 1xc0
227 215 m 1
 198 256 177 304 150 383 c 1
 185 407 l 1
 224 331 249 288 295 239 c 2
 295 239 305 228 310 223 c 1
 305 207 l 1
 296 202 279 191 279 191 c 2xa0
 203 142 150 99 63 23 c 1
 43 47 l 1
 120 126 172 174 227 215 c 1
EndSplineSet
MultipleSubs2: "'c2sc' May+APoA-sculas a min+APoA-sculas lookup 12 subtable" guillemotright.sc
Substitution2: "'case' Formas sensible a may+APoA-sculas lookup 8 subtable" guillemotright.sc
EndChar

StartChar: onequarter
Encoding: 188 188 124
Width: 660
GlyphClass: 2
Flags: MW
HStem: -81 29 18 34<373 509 404 498 561 600> 315 26<140 191 324 324>
VStem: 522 52
LayerCount: 2
Fore
SplineSet
542 -6 m 2
 530 -41 540 -50 578 -52 c 1
 579 -60 575 -74 568 -81 c 1
 538 -80 521 -80 491 -80 c 0
 456 -80 442 -80 412 -81 c 1
 410 -75 414 -60 422 -52 c 1
 462 -50 477 -47 490 -6 c 2
 498 18 l 1
 380 18 l 2
 366 18 362 24 363 30 c 0
 364 41 370 49 374 52 c 0
 444 107 499 160 545 210 c 0
 555 221 565 235 590 241 c 0
 591 241 601 242 604 242 c 0
 610 242 623 241 620 232 c 2
 561 52 l 1
 617 52 l 1
 600 18 l 1
 550 18 l 1
 542 -6 l 2
655 541 m 1
 695 533 l 1
 106 -42 l 1
 65 -34 l 1
 655 541 l 1
276 572 m 0
 263 572 231 563 214 556 c 1
 213 583 l 1
 265 600 294 612 346 639 c 1
 362 639 l 1
 283 378 l 2
 276 356 284 341 298 341 c 2
 326 341 l 2
 329 341 331 340 330 336 c 2
 324 315 l 1
 324 315 272 316 238 316 c 0
 200 316 140 315 140 315 c 1
 146 336 l 2
 147 338 151 341 155 341 c 2
 191 341 l 2
 207 341 225 356 232 378 c 2
 277 530 l 2
 286 562 288 572 276 572 c 0
556 195 m 1
 513 148 465 101 404 52 c 1
 509 52 l 1
 556 195 l 1
EndSplineSet
EndChar

StartChar: onehalf
Encoding: 189 189 125
Width: 660
GlyphClass: 2
Flags: MW
HStem: -79 32<428 509 509 524.5 428 562> 221 24<529.5 559> 315 26<142 192 326 326>
VStem: 443 55 600 59
LayerCount: 2
Fore
SplineSet
452 144 m 0
 440 144 430 153 431 164 c 0
 431 165 431 167 432 168 c 0
 440 194 483 245 562 245 c 0
 607 245 653 229 648 180 c 0
 647 174 648 169 645 162 c 0
 632 116 588 83 520 43 c 0
 469 13 437 -16 428 -47 c 1
 509 -47 l 2
 540 -47 568 -8 586 20 c 1
 608 15 l 1
 591 -15 574 -50 562 -79 c 1
 356 -79 l 1
 370 -31 427 11 485 48 c 0
 542 84 569 107 585 161 c 0
 587 166 588 171 589 176 c 0
 593 211 567 221 551 221 c 0
 508 221 492 205 489 192 c 0
 487 187 486 183 487 180 c 0
 487 176 486 172 485 168 c 0
 480 152 461 144 452 144 c 0
634 541 m 1
 675 533 l 1
 86 -42 l 1
 45 -34 l 1
 634 541 l 1
278 572 m 0
 265 572 233 563 216 556 c 1
 215 583 l 1
 267 600 296 612 348 639 c 1
 364 639 l 1
 285 378 l 2
 278 356 285 341 299 341 c 2
 327 341 l 2
 330 341 333 340 332 336 c 2
 326 315 l 1
 326 315 274 316 240 316 c 0
 202 316 142 315 142 315 c 1
 148 336 l 2
 149 338 152 341 156 341 c 2
 192 341 l 2
 208 341 227 356 234 378 c 2
 279 530 l 2
 288 562 290 572 278 572 c 0
EndSplineSet
EndChar

StartChar: threequarters
Encoding: 190 190 126
Width: 660
GlyphClass: 2
Flags: MW
HStem: -79 29 20 34<347 483 378 472 535 574> 307 25<201.5 226.5 201.5 238.5> 478 22<243 270> 478 32 613 24<300 318.5>
VStem: 305 61 309 57 496 52
LayerCount: 2
Fore
SplineSet
516 -4 m 2xf680
 504 -39 514 -48 552 -50 c 1
 553 -58 549 -72 542 -79 c 1
 512 -78 495 -78 465 -78 c 0
 430 -78 416 -78 386 -79 c 1
 384 -73 388 -58 396 -50 c 1
 436 -48 451 -45 464 -4 c 2
 472 20 l 1
 354 20 l 2
 340 20 336 26 337 32 c 0
 338 43 344 51 348 54 c 0
 418 109 473 162 519 212 c 0
 529 223 539 237 564 243 c 0
 565 243 575 244 578 244 c 0
 584 244 597 243 594 234 c 2
 535 54 l 1
 591 54 l 1
 574 20 l 1
 524 20 l 1
 516 -4 l 2xf680
339 573 m 0
 339 577 341 580 341 584 c 0
 343 606 327 613 310 613 c 0
 290 613 253 603 244 578 c 0
 240 566 232 549 210 549 c 0
 191 549 192 564 192 567 c 0
 197 584 243 637 330 637 c 0
 377 637 402 619 399 589 c 0
 399 585 397 582 396 578 c 0xf580
 387 549 359 526 325 510 c 1
 354 507 388 486 383 440 c 0xee80
 382 435 381 428 379 422 c 0
 359 353 278 307 199 307 c 0
 163 307 118 322 120 342 c 0
 121 355 141 364 151 364 c 0
 164 364 168 357 172 350 c 0
 177 340 186 332 217 332 c 0
 236 332 297 345 318 414 c 0
 320 420 321 425 321 429 c 0
 326 472 281 478 259 478 c 0
 252 478 246 477 238 476 c 1
 243 500 l 1
 289 506 327 532 339 573 c 0
655 541 m 1
 695 533 l 1
 106 -42 l 1
 65 -34 l 1
 655 541 l 1
530 197 m 1
 487 150 439 103 378 54 c 1
 483 54 l 1
 530 197 l 1
EndSplineSet
EndChar

StartChar: questiondown
Encoding: 191 191 127
Width: 405
GlyphClass: 2
Flags: MW
HStem: -223 30<121 154.5> 344 106<297 353>
VStem: 21 76 241 109 255 23 285 76
LayerCount: 2
Fore
SplineSet
259 -136 m 0xa4
 264 -121 262 -115 260 -110 c 0
 258 -104 257 -99 260 -86 c 0
 266 -63 291 -51 310 -51 c 0
 324 -51 343 -57 340 -83 c 0
 340 -86 338 -90 338 -94 c 0
 327 -132 300 -160 263 -184 c 0xa4
 226 -209 181 -223 128 -223 c 0
 38 -223 -10 -176 -2 -103 c 0
 -1 -93 3 -83 5 -72 c 0
 27 7 98 52 155 88 c 0
 183 105 208 121 222 138 c 0
 243 163 254 187 261 211 c 2
 274 255 l 2
 276 262 281 265 289 265 c 0
 296 265 300 262 297 255 c 2
 284 209 l 2xa8
 272 166 255 107 173 48 c 0
 123 11 93 -21 80 -68 c 0
 78 -77 76 -85 75 -94 c 0
 69 -148 96 -193 146 -193 c 0
 203 -193 251 -166 259 -136 c 0xa4
379 397 m 0xf0
 371 368 339 344 310 344 c 0
 284 344 267 363 270 388 c 0
 270 391 272 394 272 397 c 0
 281 426 311 450 340 450 c 0
 366 450 384 431 381 407 c 0
 381 403 379 400 379 397 c 0xf0
EndSplineSet
MultipleSubs2: "'c2sc' May+APoA-sculas a min+APoA-sculas lookup 12 subtable" questiondown.sc
Substitution2: "'case' Formas sensible a may+APoA-sculas lookup 8 subtable" questiondown.sc
EndChar

StartChar: Agrave
Encoding: 192 192 128
Width: 667
GlyphClass: 2
Flags: MW
HStem: -2 29<-39 -25 619 619> 241 42<252.5 461 294 461 294 464> 638 20G<495 509>
VStem: 3 663
LayerCount: 2
Fore
SplineSet
126 79 m 2
 120 71 118 63 117 56 c 0
 115 41 125 31 150 29 c 2
 177 27 l 2
 181 27 184 24 182 19 c 2
 178 0 l 1
 175 -2 l 1
 140 -1 89 0 50 0 c 0
 13 0 -3 -1 -39 -2 c 1
 -40 0 l 1
 -35 19 l 2
 -33 24 -30 27 -25 27 c 0
 17 30 46 40 90 102 c 2
 459 622 l 2
 478 649 488 658 502 658 c 0
 516 658 518 647 519 628 c 2
 554 86 l 2
 556 47 570 32 608 28 c 2
 618 27 l 2
 623 27 627 24 625 19 c 2
 621 0 l 1
 619 -2 l 1
 584 -1 545 0 506 0 c 0
 469 0 415 -1 379 -2 c 1
 378 0 l 1
 382 19 l 2
 384 24 387 27 391 27 c 2
 419 29 l 2
 452 32 470 41 472 63 c 0
 472 66 473 69 472 72 c 2
 464 241 l 1
 264 241 l 2
 241 241 234 237 226 224 c 2
 126 79 l 2
294 283 m 2
 461 283 l 1
 448 550 l 1
 446 550 l 1
 274 296 l 2
 273 294 271 292 271 290 c 0
 270 285 278 283 294 283 c 2
631 720 m 0
 630 714 625 701 610 701 c 0
 600 701 586 706 571 713 c 2
 437 776 l 1
 528 821 l 1
 621 737 l 2
 627 731 632 725 631 720 c 0
EndSplineSet
MultipleSubs2: "'c2sc' May+APoA-sculas a min+APoA-sculas lookup 12 subtable" agrave.sc
Position2: "'cpsp' Espaciado de may+APoA-sculas lookup 3 subtable" dx=2 dy=0 dh=5 dv=1
EndChar

StartChar: Aacute
Encoding: 193 193 129
Width: 667
GlyphClass: 2
Flags: MW
HStem: -2 29<-39 -25 619 619> 241 42<252.5 461 294 461 294 464> 638 20G<495 509>
VStem: 3 663
LayerCount: 2
Fore
SplineSet
126 79 m 2
 120 71 118 63 117 56 c 0
 115 41 125 31 150 29 c 2
 177 27 l 2
 181 27 184 24 182 19 c 2
 178 0 l 1
 175 -2 l 1
 140 -1 89 0 50 0 c 0
 13 0 -3 -1 -39 -2 c 1
 -40 0 l 1
 -35 19 l 2
 -33 24 -30 27 -25 27 c 0
 17 30 46 40 90 102 c 2
 459 622 l 2
 478 649 488 658 502 658 c 0
 516 658 518 647 519 628 c 2
 554 86 l 2
 556 47 570 32 608 28 c 2
 618 27 l 2
 623 27 627 24 625 19 c 2
 621 0 l 1
 619 -2 l 1
 584 -1 545 0 506 0 c 0
 469 0 415 -1 379 -2 c 1
 378 0 l 1
 382 19 l 2
 384 24 387 27 391 27 c 2
 419 29 l 2
 452 32 470 41 472 63 c 0
 472 66 473 69 472 72 c 2
 464 241 l 1
 264 241 l 2
 241 241 234 237 226 224 c 2
 126 79 l 2
294 283 m 2
 461 283 l 1
 448 550 l 1
 446 550 l 1
 274 296 l 2
 273 294 271 292 271 290 c 0
 270 285 278 283 294 283 c 2
427 701 m 0
 419 701 415 704 416 712 c 0
 417 721 424 728 439 737 c 2
 589 821 l 1
 650 776 l 1
 474 713 l 2
 452 706 436 701 427 701 c 0
EndSplineSet
MultipleSubs2: "'c2sc' May+APoA-sculas a min+APoA-sculas lookup 12 subtable" aacute.sc
Position2: "'cpsp' Espaciado de may+APoA-sculas lookup 3 subtable" dx=2 dy=0 dh=5 dv=1
EndChar

StartChar: Acircumflex
Encoding: 194 194 130
Width: 667
GlyphClass: 2
Flags: MW
HStem: -2 29<-39 -25 619 619> 241 42<253.5 461 294 461 294 465> 638 20G<495 509>
VStem: 3 663
LayerCount: 2
Fore
SplineSet
127 79 m 2
 121 71 118 63 117 56 c 0
 115 41 125 31 150 29 c 2
 177 27 l 2
 181 27 184 24 182 19 c 2
 178 0 l 1
 175 -2 l 1
 140 -1 89 0 50 0 c 0
 13 0 -3 -1 -39 -2 c 1
 -40 0 l 1
 -35 19 l 2
 -33 24 -30 27 -25 27 c 0
 17 30 46 40 90 102 c 2
 460 622 l 2
 479 649 488 658 502 658 c 0
 516 658 518 647 519 628 c 2
 554 86 l 2
 556 47 570 32 608 28 c 2
 618 27 l 2
 623 27 627 24 625 19 c 2
 621 0 l 1
 619 -2 l 1
 584 -1 545 0 506 0 c 0
 469 0 415 -1 379 -2 c 1
 378 0 l 1
 382 19 l 2
 384 24 387 27 391 27 c 2
 419 29 l 2
 452 32 470 41 472 63 c 0
 472 66 473 69 472 72 c 2
 465 241 l 1
 265 241 l 2
 242 241 234 237 226 224 c 2
 127 79 l 2
294 283 m 2
 461 283 l 1
 448 550 l 1
 446 550 l 1
 274 296 l 2
 273 294 272 292 272 290 c 0
 271 285 278 283 294 283 c 2
579 816 m 1
 596 780 620 749 648 722 c 1
 625 701 l 1
 592 719 563 738 539 763 c 1
 493 736 456 718 412 701 c 1
 405 722 l 1
 451 750 494 782 536 816 c 1
 579 816 l 1
EndSplineSet
MultipleSubs2: "'c2sc' May+APoA-sculas a min+APoA-sculas lookup 12 subtable" acircumflex.sc
Position2: "'cpsp' Espaciado de may+APoA-sculas lookup 3 subtable" dx=2 dy=0 dh=5 dv=1
EndChar

StartChar: Atilde
Encoding: 195 195 131
Width: 667
GlyphClass: 2
Flags: MW
HStem: -2 29<-38 -24 620 620> 241 42<253.5 462 295 462 295 465> 638 20G<496 510> 702 44<573.5 579> 750 46<452.5 461.5>
VStem: 3 663
LayerCount: 2
Fore
SplineSet
127 79 m 2
 121 71 119 63 118 56 c 0
 116 41 126 31 151 29 c 2
 178 27 l 2
 182 27 185 24 183 19 c 2
 179 0 l 1
 176 -2 l 1
 141 -1 90 0 51 0 c 0
 14 0 -2 -1 -38 -2 c 1
 -39 0 l 1
 -34 19 l 2
 -32 24 -29 27 -24 27 c 0
 18 30 47 40 91 102 c 2
 461 622 l 2
 480 649 489 658 503 658 c 0
 517 658 519 647 520 628 c 2
 555 86 l 2
 557 47 571 32 609 28 c 2
 619 27 l 2
 624 27 628 24 626 19 c 2
 622 0 l 1
 620 -2 l 1
 585 -1 546 0 507 0 c 0
 470 0 416 -1 380 -2 c 1
 379 0 l 1
 383 19 l 2
 385 24 388 27 392 27 c 2
 420 29 l 2
 453 32 471 41 473 63 c 0
 473 66 474 69 473 72 c 2
 465 241 l 1
 265 241 l 2
 242 241 235 237 227 224 c 2
 127 79 l 2
295 283 m 2
 462 283 l 1
 449 550 l 1
 447 550 l 1
 275 296 l 2
 274 294 273 292 273 290 c 0
 272 285 279 283 295 283 c 2
583 746 m 0
 605 746 622 756 648 798 c 1
 670 792 l 1
 640 732 602 702 556 702 c 0
 534 702 517 714 500 728 c 0
 485 739 470 750 453 750 c 0
 427 750 409 735 389 702 c 1
 366 707 l 1
 398 766 431 796 474 796 c 0
 504 796 521 782 537 768 c 0
 550 756 564 746 583 746 c 0
EndSplineSet
MultipleSubs2: "'c2sc' May+APoA-sculas a min+APoA-sculas lookup 12 subtable" atilde.sc
Position2: "'cpsp' Espaciado de may+APoA-sculas lookup 3 subtable" dx=2 dy=0 dh=5 dv=1
EndChar

StartChar: Adieresis
Encoding: 196 196 132
Width: 667
GlyphClass: 2
Flags: MW
HStem: -2 29<-38 -24 620 620> 241 42<254.5 462 295 462 295 466> 638 20G<497 511> 702 90<396 446> 702 91<586 635>
VStem: 3 663
LayerCount: 2
Fore
SplineSet
128 79 m 2xec
 122 71 119 63 118 56 c 0
 116 41 126 31 151 29 c 2
 178 27 l 2
 182 27 185 24 183 19 c 2
 179 0 l 1
 176 -2 l 1
 141 -1 90 0 51 0 c 0
 14 0 -2 -1 -38 -2 c 1
 -39 0 l 1
 -34 19 l 2
 -32 24 -29 27 -24 27 c 0
 18 30 47 40 91 102 c 2
 461 622 l 2
 480 649 490 658 504 658 c 0
 518 658 519 647 520 628 c 2
 555 86 l 2
 557 47 571 32 609 28 c 2
 619 27 l 2
 624 27 628 24 626 19 c 2
 622 0 l 1
 620 -2 l 1
 585 -1 546 0 507 0 c 0
 470 0 416 -1 380 -2 c 1
 379 0 l 1
 383 19 l 2
 385 24 388 27 392 27 c 2
 420 29 l 2
 453 32 471 41 473 63 c 0
 473 66 474 69 473 72 c 2
 466 241 l 1
 266 241 l 2
 243 241 235 237 227 224 c 2
 128 79 l 2xec
295 283 m 2
 462 283 l 1
 449 550 l 1
 447 550 l 1
 276 296 l 2
 275 294 273 292 273 290 c 0
 272 285 279 283 295 283 c 2
565 748 m 0
 573 772 599 793 624 793 c 0
 646 793 659 777 657 757 c 0
 657 754 656 750 655 748 c 0
 648 723 622 702 597 702 c 0
 575 702 561 718 563 740 c 0
 563 742 564 745 565 748 c 0
375 747 m 0xf4
 383 772 410 792 435 792 c 0
 457 792 470 777 468 756 c 0
 468 753 466 750 466 747 c 0
 458 722 432 702 407 702 c 0
 385 702 371 718 373 739 c 0
 373 741 375 744 375 747 c 0xf4
EndSplineSet
Substitution2: "'ss01' Estilo 1 lookup 40 subtable" Adieresis.alt
MultipleSubs2: "'c2sc' May+APoA-sculas a min+APoA-sculas lookup 12 subtable" adieresis.sc
Position2: "'cpsp' Espaciado de may+APoA-sculas lookup 3 subtable" dx=2 dy=0 dh=5 dv=1
EndChar

StartChar: Aring
Encoding: 197 197 133
Width: 667
GlyphClass: 2
Flags: MW
HStem: -2 29<-38 -24 620 620> 241 42<253.5 462 295 462 295 465> 636 25 640 21 773 27<515 544>
VStem: 3 663 529 37
LayerCount: 2
Fore
SplineSet
425 717 m 0xec
 439 763 492 800 538 800 c 0
 584 800 614 764 599 717 c 0
 588 682 555 652 519 640 c 1
 520 636 519 632 520 628 c 2
 555 86 l 2
 557 47 571 32 609 28 c 2
 619 27 l 2
 624 27 628 24 626 19 c 2
 622 0 l 1
 620 -2 l 1
 585 -1 546 0 507 0 c 0
 470 0 416 -1 380 -2 c 1
 379 0 l 1
 383 19 l 2
 385 24 388 27 392 27 c 2
 420 29 l 2
 453 32 471 41 473 63 c 0
 473 66 474 69 473 72 c 2
 465 241 l 1
 265 241 l 2
 242 241 235 237 227 224 c 2
 127 79 l 2
 121 71 119 63 118 56 c 0
 116 41 126 31 151 29 c 2
 178 27 l 2
 182 27 185 24 183 19 c 2
 179 0 l 1
 176 -2 l 1
 141 -1 90 0 51 0 c 0
 14 0 -2 -1 -38 -2 c 1
 -39 0 l 1
 -34 19 l 2
 -32 24 -29 27 -24 27 c 0
 18 30 47 40 91 102 c 2
 460 622 l 2
 464 627 468 632 471 636 c 1
 434 643 413 677 425 717 c 0xec
295 283 m 2
 462 283 l 1
 449 550 l 1
 447 550 l 1
 275 296 l 2
 274 294 273 292 273 290 c 0
 272 285 279 283 295 283 c 2
529 773 m 0
 498 773 471 747 462 717 c 0
 453 689 465 661 496 661 c 0
 527 661 553 689 562 717 c 0
 571 748 559 773 529 773 c 0
EndSplineSet
MultipleSubs2: "'c2sc' May+APoA-sculas a min+APoA-sculas lookup 12 subtable" aring.sc
Position2: "'cpsp' Espaciado de may+APoA-sculas lookup 3 subtable" dx=2 dy=0 dh=5 dv=1
EndChar

StartChar: AE
Encoding: 198 198 134
Width: 829
GlyphClass: 2
Flags: MW
HStem: -2 30 0 27<-32 -14> 0 39<504 629 629 665.5 504 743> 266 39<317 458 287 469> 329 34<566 654 556 664> 605 40<662.5 674 674 770> 618 27<438 442>
VStem: 693 30 827 29
AnchorPoint: "Anchor-5" 516 4 basechar 0
AnchorPoint: "Anchor-2" 504 -107 basechar 0
AnchorPoint: "Anchor-0" 670 850 basechar 0
LayerCount: 2
Fore
SplineSet
418 0 m 2x3580
 384 0 294 -2 294 -2 c 1
 292 0 l 1x3580
 298 18 l 2
 300 23 303 27 308 27 c 2
 334 29 l 2
 374 32 392 46 400 74 c 2
 458 266 l 1
 287 266 l 1
 128 68 l 2
 99 32 101 31 135 29 c 2
 162 27 l 2
 166 27 166 23 166 21 c 2x5580
 160 0 l 1
 159 -2 l 1
 159 -2 94 0 56 0 c 0
 23 0 -31 -2 -31 -2 c 1
 -32 0 l 1x3580
 -26 19 l 2
 -24 24 -20 26 -14 27 c 2
 8 29 l 2
 45 32 54 40 90 85 c 2
 486 577 l 2
 505 601 489 615 470 616 c 2
 441 618 l 2
 435 618 435 621 436 625 c 2x9380
 442 645 l 1
 444 646 l 1
 612 645 l 1
 899 645 l 1
 888 591 879 532 874 491 c 1
 844 486 l 1
 843 555 843 605 770 605 c 2
 674 605 l 2
 651 605 632 584 626 561 c 2
 566 363 l 1
 664 363 l 2
 698 363 711 379 726 407 c 2
 741 437 l 2
 743 441 747 445 751 445 c 2
 772 445 l 2
 774 445 775 443 775 441 c 0
 764 416 748 379 738 346 c 0
 728 312 720 267 716 250 c 1
 714 247 l 1
 692 247 l 2
 686 247 686 250 686 254 c 2
 690 285 l 2
 692 313 687 329 654 329 c 2
 556 329 l 1x3d80
 480 74 l 2
 472 47 483 39 504 39 c 2
 629 39 l 2
 702 39 749 100 790 172 c 1
 818 167 l 1
 792 115 763 56 743 0 c 1
 418 0 l 2x3580
317 305 m 1
 469 305 l 1
 551 575 l 2
 554 587 556 596 552 598 c 1
 317 305 l 1
EndSplineSet
MultipleSubs2: "'c2sc' May+APoA-sculas a min+APoA-sculas lookup 12 subtable" ae.sc
Position2: "'cpsp' Espaciado de may+APoA-sculas lookup 3 subtable" dx=2 dy=0 dh=5 dv=1
EndChar

StartChar: Ccedilla
Encoding: 199 199 135
Width: 616
GlyphClass: 2
Flags: MW
HStem: -200 29<247 275 247 284.5> -96 32<289.5 349.5> -10 41<310 310> 621 37<454 558.5>
VStem: 89 86 360 63 632 29
LayerCount: 2
Fore
SplineSet
299 -96 m 0
 280 -96 269 -97 251 -102 c 1
 248 -96 l 1
 310 -10 l 1
 138 -9 76 108 90 241 c 0
 93 266 97 290 105 315 c 0
 164 512 355 658 514 658 c 0
 632 658 656 616 710 613 c 1
 698 559 691 510 685 458 c 1
 656 454 l 1
 657 540 625 621 492 621 c 0
 416 621 255 537 194 334 c 0
 186 306 180 277 177 250 c 0
 165 133 204 31 324 31 c 0
 413 31 489 62 580 140 c 1
 591 140 595 134 597 125 c 1
 517 46 429 1 345 -8 c 1
 305 -67 l 1
 314 -65 323 -64 332 -64 c 0
 367 -64 390 -83 387 -113 c 0
 381 -167 315 -200 254 -200 c 0
 222 -200 208 -194 186 -183 c 1
 189 -171 194 -164 203 -157 c 1
 227 -167 237 -171 257 -171 c 0
 293 -171 320 -151 323 -120 c 0
 325 -105 317 -96 299 -96 c 0
EndSplineSet
MultipleSubs2: "'c2sc' May+APoA-sculas a min+APoA-sculas lookup 12 subtable" ccedilla.sc
Position2: "'cpsp' Espaciado de may+APoA-sculas lookup 3 subtable" dx=2 dy=0 dh=5 dv=1
EndChar

StartChar: Egrave
Encoding: 200 200 136
Width: 526
GlyphClass: 2
Flags: MW
HStem: 0 27<-32 -16> 0 39<178 298> 323 38<240 350 228 362> 412 20G<466 466> 416 20G<442 463 463 463> 605 40<336.5 348 348 448> 618 27<157.5 162> 629 20G<574 575.5>
VStem: 400 29 517 36
LayerCount: 2
Fore
SplineSet
578 646 m 0x69c0
 577 638 563 542 555 501 c 1
 526 496 l 1
 525 565 520 605 448 605 c 2
 348 605 l 2
 325 605 310 595 302 571 c 2
 240 361 l 1
 362 361 l 2
 395 361 410 375 422 403 c 2
 432 428 l 2
 433 432 438 436 442 436 c 2x6cc0
 463 436 l 1
 466 432 l 1
 451 392 440 362 435 342 c 0
 429 322 421 295 413 255 c 1
 408 252 l 1
 387 252 l 2
 382 252 381 257 382 260 c 2
 387 285 l 2
 387 288 389 291 389 293 c 0
 391 316 380 323 350 323 c 2
 228 323 l 1
 153 72 l 2
 152 68 151 65 151 62 c 0
 149 43 160 39 178 39 c 2
 308 39 l 2
 381 39 436 98 477 170 c 1
 505 165 l 1
 478 113 446 50 420 -2 c 1
 420 -2 344 0 298 0 c 2
 92 0 l 2
 55 0 15 -1 -30 -2 c 1
 -32 0 l 1x74c0
 -26 20 l 2
 -25 23 -22 27 -16 27 c 2
 13 29 l 2
 51 32 67 44 76 72 c 2
 225 571 l 2
 227 576 229 581 229 585 c 0
 231 606 219 614 189 616 c 2
 161 618 l 2
 154 618 155 622 156 625 c 2xaac0
 162 645 l 1
 164 647 l 1
 209 646 248 645 285 645 c 2
 528 645 l 2x6cc0
 551 645 557 646 574 649 c 0
 577 649 578 648 578 646 c 0x69c0
509 717 m 0
 508 711 503 698 488 698 c 0
 478 698 465 703 450 710 c 2
 315 773 l 1
 407 818 l 1
 500 734 l 2
 506 728 510 722 509 717 c 0
EndSplineSet
MultipleSubs2: "'c2sc' May+APoA-sculas a min+APoA-sculas lookup 12 subtable" egrave.sc
Position2: "'cpsp' Espaciado de may+APoA-sculas lookup 3 subtable" dx=2 dy=0 dh=5 dv=1
EndChar

StartChar: Eacute
Encoding: 201 201 137
Width: 526
GlyphClass: 2
Flags: MW
HStem: 0 27<-32 -16> 0 39<178 298> 323 38<240 350 228 362> 412 20G<466 466> 416 20G<442 463 463 463> 605 40<336.5 348 348 448> 618 27<157.5 162> 629 20G<574 575.5>
VStem: 400 29 517 36
AnchorPoint: "Anchor-0" 313 662 basechar 0
LayerCount: 2
Fore
SplineSet
578 646 m 0x69c0
 577 638 563 542 555 501 c 1
 526 496 l 1
 525 565 520 605 448 605 c 2
 348 605 l 2
 325 605 310 595 302 571 c 2
 240 361 l 1
 362 361 l 2
 395 361 411 375 423 403 c 2
 432 428 l 2
 433 432 438 436 442 436 c 2x6cc0
 463 436 l 1
 466 432 l 1
 451 392 440 362 435 342 c 0
 429 322 421 295 413 255 c 1
 408 252 l 1
 387 252 l 2
 382 252 382 257 383 260 c 2
 387 285 l 2
 387 288 389 291 389 293 c 0
 391 316 380 323 350 323 c 2
 228 323 l 1
 153 72 l 2
 152 68 151 65 151 62 c 0
 149 43 160 39 178 39 c 2
 308 39 l 2
 381 39 436 98 477 170 c 1
 506 165 l 1
 479 113 446 50 420 -2 c 1
 420 -2 344 0 298 0 c 2
 92 0 l 2
 55 0 15 -1 -30 -2 c 1
 -32 0 l 1x74c0
 -26 20 l 2
 -25 23 -22 27 -16 27 c 2
 13 29 l 2
 51 32 67 44 76 72 c 2
 225 571 l 2
 227 576 229 581 229 585 c 0
 231 606 219 614 189 616 c 2
 161 618 l 2
 154 618 155 622 156 625 c 2xaac0
 162 645 l 1
 164 647 l 1
 209 646 248 645 285 645 c 2
 528 645 l 2x6cc0
 551 645 557 646 574 649 c 0
 577 649 578 648 578 646 c 0x69c0
305 696 m 0
 297 696 294 699 295 707 c 0
 296 716 303 723 318 732 c 2
 468 816 l 1
 528 771 l 1
 353 708 l 2
 331 701 314 696 305 696 c 0
EndSplineSet
MultipleSubs2: "'c2sc' May+APoA-sculas a min+APoA-sculas lookup 12 subtable" eacute.sc
Position2: "'cpsp' Espaciado de may+APoA-sculas lookup 3 subtable" dx=2 dy=0 dh=5 dv=1
EndChar

StartChar: Ecircumflex
Encoding: 202 202 138
Width: 526
GlyphClass: 2
Flags: MW
HStem: 0 27<-32 -16> 0 39<179 298> 323 38<240 350 228 362> 412 20G<466 466> 416 20G<442 463 463 463> 605 40<336.5 348 348 448> 618 27<157.5 162> 629 20G<575 576.5>
VStem: 400 29 517 36
LayerCount: 2
Fore
SplineSet
578 646 m 0x69c0
 577 638 563 542 555 501 c 1
 527 496 l 1
 526 565 520 605 448 605 c 2
 348 605 l 2
 325 605 310 595 302 571 c 2
 240 361 l 1
 362 361 l 2
 395 361 411 375 423 403 c 2
 432 428 l 2
 433 432 438 436 442 436 c 2x6cc0
 463 436 l 1
 466 432 l 1
 451 392 440 362 435 342 c 0
 429 322 421 295 413 255 c 1
 408 252 l 1
 387 252 l 2
 382 252 382 257 383 260 c 2
 387 285 l 2
 387 288 389 291 389 293 c 0
 391 316 380 323 350 323 c 2
 228 323 l 1
 153 72 l 2
 152 68 151 65 151 62 c 0
 149 43 161 39 179 39 c 2
 309 39 l 2
 382 39 436 98 477 170 c 1
 506 165 l 1
 479 113 446 50 420 -2 c 1
 420 -2 344 0 298 0 c 2
 92 0 l 2
 55 0 15 -1 -30 -2 c 1
 -32 0 l 1x74c0
 -25 20 l 2
 -24 23 -22 27 -16 27 c 2
 14 29 l 2
 52 32 67 44 76 72 c 2
 226 571 l 2
 228 576 229 581 229 585 c 0
 231 606 219 614 189 616 c 2
 161 618 l 2
 154 618 155 622 156 625 c 2xaac0
 162 645 l 1
 164 647 l 1
 209 646 248 645 285 645 c 2
 528 645 l 2x6cc0
 551 645 558 646 575 649 c 0
 578 649 578 648 578 646 c 0x69c0
487 811 m 1
 504 775 528 744 556 717 c 1
 533 696 l 1
 500 714 471 733 447 758 c 1
 401 731 364 713 320 696 c 1
 313 717 l 1
 359 745 402 777 444 811 c 1
 487 811 l 1
EndSplineSet
MultipleSubs2: "'c2sc' May+APoA-sculas a min+APoA-sculas lookup 12 subtable" ecircumflex.sc
Position2: "'cpsp' Espaciado de may+APoA-sculas lookup 3 subtable" dx=2 dy=0 dh=5 dv=1
EndChar

StartChar: Edieresis
Encoding: 203 203 139
Width: 526
GlyphClass: 2
Flags: MW
HStem: 0 27<-30 -14> 0 39<180 300> 323 38<242 352 230 364> 412 20G<467 467> 416 20G<444 465 465 465> 605 40<337.5 349 349 449> 618 27<159.5 163> 629 20G<576 577.5> 697 90<332 381> 697 91<522 571>
VStem: 400 29 517 36
LayerCount: 2
Fore
SplineSet
580 646 m 0x6970
 579 638 564 542 556 501 c 1
 528 496 l 1
 527 565 521 605 449 605 c 2
 349 605 l 2
 326 605 312 595 304 571 c 2
 242 361 l 1
 364 361 l 2
 397 361 412 375 424 403 c 2
 434 428 l 2
 435 432 440 436 444 436 c 2x6c70
 465 436 l 1
 467 432 l 1
 452 392 442 362 437 342 c 0
 431 322 422 295 414 255 c 1
 409 252 l 1
 388 252 l 2
 383 252 383 257 384 260 c 2
 389 285 l 2
 389 288 390 291 390 293 c 0
 392 316 382 323 352 323 c 2
 230 323 l 1
 154 72 l 2
 153 68 152 65 152 62 c 0
 150 43 162 39 180 39 c 2
 310 39 l 2
 383 39 438 98 479 170 c 1
 507 165 l 1
 480 113 447 50 421 -2 c 1
 421 -2 346 0 300 0 c 2
 94 0 l 2
 57 0 16 -1 -29 -2 c 1
 -30 0 l 1x7470
 -24 20 l 2
 -23 23 -20 27 -14 27 c 2
 15 29 l 2
 53 32 68 44 77 72 c 2
 227 571 l 2
 229 576 230 581 230 585 c 0
 232 606 220 614 190 616 c 2
 163 618 l 2
 156 618 156 622 157 625 c 2xaa70
 163 645 l 1
 166 647 l 1
 211 646 249 645 286 645 c 2
 529 645 l 2x6c70
 552 645 559 646 576 649 c 0
 579 649 580 648 580 646 c 0x6970
501 743 m 0
 509 767 535 788 560 788 c 0
 582 788 595 772 593 752 c 0
 593 749 592 745 591 743 c 0
 584 718 558 697 533 697 c 0
 511 697 497 713 499 735 c 0
 499 737 500 740 501 743 c 0
311 742 m 0x6cb0
 319 767 345 787 370 787 c 0
 392 787 406 772 404 751 c 0
 404 748 402 745 402 742 c 0
 394 717 368 697 343 697 c 0
 321 697 307 713 309 734 c 0
 309 736 311 739 311 742 c 0x6cb0
EndSplineSet
MultipleSubs2: "'c2sc' May+APoA-sculas a min+APoA-sculas lookup 12 subtable" edieresis.sc
Position2: "'cpsp' Espaciado de may+APoA-sculas lookup 3 subtable" dx=2 dy=0 dh=5 dv=1
EndChar

StartChar: Igrave
Encoding: 204 204 140
Width: 280
GlyphClass: 2
Flags: MW
HStem: -2 30 616 30
VStem: 19 368
LayerCount: 2
Fore
SplineSet
230 569 m 2
 239 599 230 612 191 615 c 2
 157 618 l 1
 155 623 160 642 163 646 c 1
 207 645 252 645 290 645 c 0
 329 645 365 645 410 646 c 1
 413 637 409 622 405 618 c 2
 374 615 l 2
 333 611 316 597 307 569 c 2
 158 76 l 2
 149 46 158 33 197 30 c 2
 231 27 l 1
 233 22 228 2 225 -2 c 1
 181 -1 136 0 98 0 c 0
 59 0 23 -1 -22 -2 c 1
 -25 7 -21 23 -17 27 c 2
 14 30 l 2
 55 34 72 48 81 76 c 2
 230 569 l 2
363 715 m 0
 362 709 357 696 342 696 c 0
 332 696 319 701 304 708 c 2
 169 771 l 1
 261 816 l 1
 354 732 l 2
 360 726 364 720 363 715 c 0
EndSplineSet
MultipleSubs2: "'c2sc' May+APoA-sculas a min+APoA-sculas lookup 12 subtable" igrave.sc
Position2: "'cpsp' Espaciado de may+APoA-sculas lookup 3 subtable" dx=2 dy=0 dh=5 dv=1
EndChar

StartChar: Iacute
Encoding: 205 205 141
Width: 280
GlyphClass: 2
Flags: MW
HStem: -2 30 616 30
VStem: 19 405
LayerCount: 2
Fore
SplineSet
230 569 m 2
 239 599 230 612 191 615 c 2
 157 618 l 1
 155 623 160 642 163 646 c 1
 207 645 252 645 290 645 c 0
 329 645 365 645 410 646 c 1
 413 637 409 622 405 618 c 2
 374 615 l 2
 333 611 316 597 307 569 c 2
 158 76 l 2
 149 46 158 33 197 30 c 2
 231 27 l 1
 233 22 228 2 225 -2 c 1
 181 -1 136 0 98 0 c 0
 59 0 23 -1 -22 -2 c 1
 -25 7 -21 23 -17 27 c 2
 14 30 l 2
 55 34 72 48 81 76 c 2
 230 569 l 2
239 696 m 0
 231 696 228 699 229 707 c 0
 230 716 237 723 252 732 c 2
 402 816 l 1
 462 771 l 1
 287 708 l 2
 265 701 248 696 239 696 c 0
EndSplineSet
MultipleSubs2: "'c2sc' May+APoA-sculas a min+APoA-sculas lookup 12 subtable" iacute.sc
Position2: "'cpsp' Espaciado de may+APoA-sculas lookup 3 subtable" dx=2 dy=0 dh=5 dv=1
EndChar

StartChar: Icircumflex
Encoding: 206 206 142
Width: 280
GlyphClass: 2
Flags: MW
HStem: -2 30 616 30
VStem: 19 379
LayerCount: 2
Fore
SplineSet
230 569 m 2
 239 599 230 612 191 615 c 2
 157 618 l 1
 155 623 160 642 163 646 c 1
 207 645 252 645 290 645 c 0
 329 645 365 645 410 646 c 1
 413 637 409 622 405 618 c 2
 374 615 l 2
 333 611 316 597 307 569 c 2
 158 76 l 2
 149 46 159 33 198 30 c 2
 231 27 l 1
 233 22 228 2 225 -2 c 1
 181 -1 136 0 98 0 c 0
 59 0 23 -1 -22 -2 c 1
 -25 7 -21 23 -17 27 c 2
 15 30 l 2
 56 34 72 48 81 76 c 2
 230 569 l 2
362 811 m 1
 379 775 403 744 431 717 c 1
 408 696 l 1
 375 714 346 733 322 758 c 1
 276 731 239 713 195 696 c 1
 188 717 l 1
 234 745 277 777 319 811 c 1
 362 811 l 1
EndSplineSet
MultipleSubs2: "'c2sc' May+APoA-sculas a min+APoA-sculas lookup 12 subtable" icircumflex.sc
Position2: "'cpsp' Espaciado de may+APoA-sculas lookup 3 subtable" dx=2 dy=0 dh=5 dv=1
EndChar

StartChar: Idieresis
Encoding: 207 207 143
Width: 280
GlyphClass: 2
Flags: MW
HStem: -2 30 616 30 697 90<205 254> 697 91<395 444>
VStem: 19 409
LayerCount: 2
Fore
SplineSet
231 569 m 2xd8
 240 599 231 612 192 615 c 2
 159 618 l 1
 157 623 162 642 165 646 c 1
 209 645 253 645 291 645 c 0
 330 645 367 645 412 646 c 1
 415 637 411 622 407 618 c 2
 375 615 l 2
 334 611 317 597 308 569 c 2
 160 76 l 2
 151 46 160 33 199 30 c 2
 233 27 l 1
 235 22 229 2 226 -2 c 1
 182 -1 138 0 100 0 c 0
 61 0 24 -1 -21 -2 c 1
 -24 7 -19 23 -15 27 c 2
 16 30 l 2
 57 34 74 48 83 76 c 2
 231 569 l 2xd8
374 743 m 0
 382 767 408 788 433 788 c 0
 455 788 468 772 466 752 c 0
 466 749 465 745 464 743 c 0
 457 718 431 697 406 697 c 0
 384 697 370 713 372 735 c 0
 372 737 373 740 374 743 c 0
184 742 m 0xe8
 192 767 218 787 243 787 c 0
 265 787 279 772 277 751 c 0
 277 748 275 745 275 742 c 0
 267 717 241 697 216 697 c 0
 194 697 180 713 182 734 c 0
 182 736 184 739 184 742 c 0xe8
EndSplineSet
MultipleSubs2: "'c2sc' May+APoA-sculas a min+APoA-sculas lookup 12 subtable" idieresis.sc
Position2: "'cpsp' Espaciado de may+APoA-sculas lookup 3 subtable" dx=2 dy=0 dh=5 dv=1
EndChar

StartChar: Eth
Encoding: 208 208 144
Width: 667
GlyphClass: 2
Flags: MW
HStem: -2 29<-16 -3> -2 34<229.5 326.5 219 347> 287 39<75 154 63 165 243 334> 613 34<425.5 493.5> 618 29<173.5 178>
VStem: 215 76 603 91
LayerCount: 2
Fore
SplineSet
-13 18 m 2x76
 -11 23 -7 27 -3 27 c 2
 26 29 l 2
 60 31 81 42 90 74 c 2
 154 287 l 1
 63 287 l 1
 75 326 l 1
 165 326 l 1
 239 572 l 2
 241 579 242 585 243 590 c 0
 245 610 234 614 202 616 c 2
 176 618 l 2
 171 618 168 621 170 626 c 2xae
 175 645 l 1
 178 647 l 1
 223 646 262 645 299 645 c 0
 338 645 395 647 456 647 c 0
 617 647 716 530 700 375 c 0
 698 354 692 331 685 308 c 0
 612 62 415 -2 279 -2 c 0
 180 -2 143 0 106 0 c 0
 67 0 29 -1 -16 -2 c 1
 -18 0 l 1
 -13 18 l 2x76
167 73 m 2
 165 68 164 64 164 60 c 0
 162 39 179 32 259 32 c 0
 394 32 530 82 590 284 c 0
 599 314 605 344 608 374 c 0
 621 499 577 613 410 613 c 0
 363 613 328 609 317 574 c 2
 243 326 l 1
 346 326 l 1
 334 287 l 1
 231 287 l 1
 167 73 l 2
EndSplineSet
MultipleSubs2: "'c2sc' May+APoA-sculas a min+APoA-sculas lookup 12 subtable" eth.sc
Position2: "'cpsp' Espaciado de may+APoA-sculas lookup 3 subtable" dx=2 dy=0 dh=5 dv=1
EndChar

StartChar: Ntilde
Encoding: 209 209 145
Width: 666
GlyphClass: 2
Flags: MW
HStem: -10 21G<507 521.5> -2 29<-27 -10> -2 30 618 29 697 44<562.5 568> 745 46<441.5 450.5>
VStem: 12 776
LayerCount: 2
Fore
SplineSet
704 557 m 2x52
 544 21 l 2
 538 2 528 -10 515 -10 c 0
 499 -10 488 -1 483 14 c 2x9a
 281 455 l 2
 270 477 263 488 257 488 c 0
 250 488 244 473 233 439 c 2
 128 88 l 2
 126 83 126 78 125 73 c 0
 123 50 133 31 163 29 c 2
 188 27 l 2
 193 27 195 25 193 19 c 2
 189 0 l 1
 187 -2 l 1
 142 -1 107 0 83 0 c 0
 59 0 18 -1 -27 -2 c 1
 -29 0 l 1
 -25 18 l 2x52
 -23 23 -19 26 -10 27 c 2
 15 29 l 2
 55 32 76 61 85 88 c 2x32
 224 550 l 1
 226 576 209 615 178 618 c 0
 171 619 164 621 165 626 c 2
 169 645 l 1
 172 647 l 1
 304 647 l 1
 500 203 l 2
 517 166 524 148 532 148 c 0
 538 148 542 159 548 178 c 2
 661 557 l 2
 663 562 664 567 665 572 c 0
 667 594 659 614 627 616 c 2
 603 618 l 2
 598 618 591 622 592 626 c 2
 597 645 l 1
 599 647 l 1
 644 646 685 645 709 645 c 0
 732 645 768 646 813 647 c 1
 815 645 l 1
 811 626 l 2
 810 621 804 618 801 618 c 2
 774 616 l 2
 736 613 713 587 704 557 c 2x52
572 741 m 0
 594 741 611 751 637 793 c 1
 660 787 l 1
 630 727 591 697 545 697 c 0x5a
 523 697 506 709 489 723 c 0
 474 734 459 745 442 745 c 0
 416 745 398 730 378 697 c 1
 356 702 l 1
 388 761 420 791 463 791 c 0x56
 493 791 510 777 526 763 c 0
 539 751 553 741 572 741 c 0
EndSplineSet
MultipleSubs2: "'c2sc' May+APoA-sculas a min+APoA-sculas lookup 12 subtable" ntilde.sc
Position2: "'cpsp' Espaciado de may+APoA-sculas lookup 3 subtable" dx=2 dy=0 dh=5 dv=1
EndChar

StartChar: Ograve
Encoding: 210 210 146
Width: 668
GlyphClass: 2
Flags: MW
HStem: -10 34<268.5 372 268.5 380> 624 34<415.5 513>
VStem: 87 91 617 89
AnchorPoint: "Anchor-5" 308 0 basechar 0
AnchorPoint: "Anchor-2" 256 -113 basechar 0
AnchorPoint: "Anchor-1" 641 606 basechar 0
LayerCount: 2
Fore
SplineSet
691 329 m 0
 631 129 472 -10 288 -10 c 0
 145 -10 53 82 69 234 c 0
 72 258 77 283 85 310 c 0
 144 506 311 658 482 658 c 0
 628 658 722 559 706 403 c 0
 704 380 699 355 691 329 c 0
459 624 m 0
 372 624 241 537 179 327 c 0
 170 297 164 270 161 244 c 0
 146 103 220 24 317 24 c 0
 427 24 543 131 597 310 c 0
 608 347 615 380 618 410 c 0
 633 552 567 624 459 624 c 0
537 715 m 0
 536 709 531 696 516 696 c 0
 506 696 492 701 477 708 c 2
 343 771 l 1
 434 816 l 1
 528 732 l 2
 534 726 538 720 537 715 c 0
EndSplineSet
MultipleSubs2: "'c2sc' May+APoA-sculas a min+APoA-sculas lookup 12 subtable" ograve.sc
Position2: "'cpsp' Espaciado de may+APoA-sculas lookup 3 subtable" dx=2 dy=0 dh=5 dv=1
EndChar

StartChar: Oacute
Encoding: 211 211 147
Width: 668
GlyphClass: 2
Flags: MW
HStem: -10 34<268.5 372 268.5 380> 624 34<415.5 513>
VStem: 87 91 617 89
AnchorPoint: "Anchor-5" 308 0 basechar 0
AnchorPoint: "Anchor-2" 256 -113 basechar 0
AnchorPoint: "Anchor-1" 641 606 basechar 0
LayerCount: 2
Fore
SplineSet
691 329 m 0
 631 129 472 -10 288 -10 c 0
 145 -10 53 82 69 234 c 0
 72 258 77 283 85 310 c 0
 144 506 311 658 482 658 c 0
 628 658 722 559 706 403 c 0
 704 380 699 355 691 329 c 0
459 624 m 0
 372 624 241 537 179 327 c 0
 170 297 164 270 161 244 c 0
 146 103 220 24 317 24 c 0
 427 24 543 131 597 310 c 0
 608 347 615 380 618 410 c 0
 633 552 567 624 459 624 c 0
412 696 m 0
 404 696 400 699 401 707 c 0
 402 716 410 723 425 732 c 2
 574 816 l 1
 635 771 l 1
 459 708 l 2
 437 701 421 696 412 696 c 0
EndSplineSet
MultipleSubs2: "'c2sc' May+APoA-sculas a min+APoA-sculas lookup 12 subtable" oacute.sc
Position2: "'cpsp' Espaciado de may+APoA-sculas lookup 3 subtable" dx=2 dy=0 dh=5 dv=1
EndChar

StartChar: Ocircumflex
Encoding: 212 212 148
Width: 668
GlyphClass: 2
Flags: MW
HStem: -10 34<268.5 372 268.5 380> 624 34<415.5 513>
VStem: 87 91 617 89
AnchorPoint: "Anchor-5" 308 0 basechar 0
AnchorPoint: "Anchor-2" 256 -113 basechar 0
AnchorPoint: "Anchor-1" 642 606 basechar 0
LayerCount: 2
Fore
SplineSet
691 329 m 0
 631 129 472 -10 288 -10 c 0
 145 -10 54 82 70 234 c 0
 73 258 77 283 85 310 c 0
 144 506 311 658 482 658 c 0
 628 658 722 559 706 403 c 0
 704 380 699 355 691 329 c 0
459 624 m 0
 372 624 241 537 179 327 c 0
 170 297 165 270 162 244 c 0
 147 103 220 24 317 24 c 0
 427 24 543 131 597 310 c 0
 608 347 615 380 618 410 c 0
 633 552 567 624 459 624 c 0
544 811 m 1
 561 775 585 744 613 717 c 1
 590 696 l 1
 557 714 529 733 505 758 c 1
 459 731 421 713 377 696 c 1
 370 717 l 1
 416 745 459 777 501 811 c 1
 544 811 l 1
EndSplineSet
MultipleSubs2: "'c2sc' May+APoA-sculas a min+APoA-sculas lookup 12 subtable" ocircumflex.sc
Position2: "'cpsp' Espaciado de may+APoA-sculas lookup 3 subtable" dx=2 dy=0 dh=5 dv=1
EndChar

StartChar: Otilde
Encoding: 213 213 149
Width: 668
GlyphClass: 2
Flags: MW
HStem: -10 34<269.5 373 269.5 381> 624 34<416.5 514> 697 44<559.5 565> 745 46<438.5 447.5>
VStem: 87 91 617 89
AnchorPoint: "Anchor-5" 309 0 basechar 0
AnchorPoint: "Anchor-2" 257 -113 basechar 0
AnchorPoint: "Anchor-1" 643 606 basechar 0
LayerCount: 2
Fore
SplineSet
692 329 m 0
 632 129 473 -10 289 -10 c 0
 146 -10 54 82 70 234 c 0
 73 258 78 283 86 310 c 0
 145 506 312 658 483 658 c 0
 629 658 723 559 707 403 c 0
 705 380 700 355 692 329 c 0
460 624 m 0
 373 624 242 537 180 327 c 0
 171 297 165 270 162 244 c 0
 147 103 221 24 318 24 c 0
 428 24 544 131 598 310 c 0
 609 347 616 380 619 410 c 0
 634 552 568 624 460 624 c 0
569 741 m 0
 591 741 608 751 634 793 c 1
 657 787 l 1
 627 727 588 697 542 697 c 0
 520 697 503 709 486 723 c 0
 471 734 456 745 439 745 c 0
 413 745 395 730 375 697 c 1
 353 702 l 1
 385 761 417 791 460 791 c 0
 490 791 507 777 523 763 c 0
 536 751 550 741 569 741 c 0
EndSplineSet
MultipleSubs2: "'c2sc' May+APoA-sculas a min+APoA-sculas lookup 12 subtable" otilde.sc
Position2: "'cpsp' Espaciado de may+APoA-sculas lookup 3 subtable" dx=2 dy=0 dh=5 dv=1
EndChar

StartChar: Odieresis
Encoding: 214 214 150
Width: 668
GlyphClass: 2
Flags: MW
HStem: -10 34<270.5 374 270.5 381> 624 34<417.5 515> 697 90<392 442> 697 91<582 631>
VStem: 87 91 617 89
AnchorPoint: "Anchor-5" 309 0 basechar 0
AnchorPoint: "Anchor-2" 257 -113 basechar 0
LayerCount: 2
Fore
SplineSet
693 329 m 0xdc
 633 129 473 -10 289 -10 c 0
 146 -10 55 82 71 234 c 0
 74 258 79 283 87 310 c 0
 146 506 312 658 483 658 c 0
 629 658 723 559 707 403 c 0
 705 380 701 355 693 329 c 0xdc
461 624 m 0
 374 624 242 537 180 327 c 0
 171 297 166 270 163 244 c 0
 148 103 222 24 319 24 c 0
 429 24 545 131 599 310 c 0
 610 347 616 380 619 410 c 0
 634 552 569 624 461 624 c 0
561 743 m 0
 569 767 595 788 620 788 c 0
 642 788 655 772 653 752 c 0
 653 749 652 745 651 743 c 0
 644 718 618 697 593 697 c 0
 571 697 557 713 559 735 c 0
 559 737 560 740 561 743 c 0
371 742 m 0xec
 379 767 406 787 431 787 c 0
 453 787 466 772 464 751 c 0
 464 748 462 745 462 742 c 0
 454 717 428 697 403 697 c 0
 381 697 367 713 369 734 c 0
 369 736 371 739 371 742 c 0xec
EndSplineSet
Substitution2: "'ss01' Estilo 1 lookup 40 subtable" Odieresis.alt
MultipleSubs2: "'c2sc' May+APoA-sculas a min+APoA-sculas lookup 12 subtable" odieresis.sc
Position2: "'cpsp' Espaciado de may+APoA-sculas lookup 3 subtable" dx=2 dy=0 dh=5 dv=1
EndChar

StartChar: multiply
Encoding: 215 215 151
Width: 527
GlyphClass: 2
Flags: MW
HStem: 73 315<137 226 226 381>
VStem: 125 358
LayerCount: 2
Fore
SplineSet
339 230 m 1
 426 108 l 1
 381 73 l 1
 294 195 l 1
 137 73 l 1
 112 108 l 1
 269 230 l 1
 181 353 l 1
 226 388 l 1
 314 265 l 1
 472 388 l 1
 496 353 l 1
 339 230 l 1
EndSplineSet
EndChar

StartChar: Oslash
Encoding: 216 216 152
Width: 668
GlyphClass: 2
Flags: MW
HStem: -10 34<300.5 382 300.5 389> 624 34<425.5 504.5> 625 20G<787 787>
VStem: 87 91 617 89
AnchorPoint: "Anchor-5" 317 0 basechar 0
AnchorPoint: "Anchor-2" 265 -113 basechar 0
LayerCount: 2
Fore
SplineSet
764 670 m 1xd8
 787 645 l 1
 690 553 l 1xb8
 712 513 721 462 715 403 c 0
 713 380 709 355 701 329 c 0
 641 129 481 -10 297 -10 c 0
 235 -10 184 7 145 39 c 1
 59 -43 l 1
 35 -18 l 1
 122 63 l 1
 88 105 72 163 79 234 c 0
 82 258 87 283 95 310 c 0
 154 506 320 658 491 658 c 0
 568 658 631 631 671 582 c 1
 764 670 l 1xd8
469 624 m 0xd8
 382 624 250 537 188 327 c 0
 179 297 174 270 171 244 c 0
 166 196 171 155 184 122 c 1
 617 530 l 1
 594 593 540 624 469 624 c 0xd8
626 493 m 1
 201 91 l 1
 229 47 274 24 327 24 c 0
 437 24 553 131 607 310 c 0
 618 347 624 380 627 410 c 0
 630 441 630 469 626 493 c 1
EndSplineSet
MultipleSubs2: "'c2sc' May+APoA-sculas a min+APoA-sculas lookup 12 subtable" oslash.sc
Position2: "'cpsp' Espaciado de may+APoA-sculas lookup 3 subtable" dx=2 dy=0 dh=5 dv=1
EndChar

StartChar: Ugrave
Encoding: 217 217 153
Width: 634
GlyphClass: 2
Flags: MW
HStem: -10 41<272 361.5> 618 29<149 154>
VStem: 124 79
LayerCount: 2
Fore
SplineSet
263 -10 m 0
 188 -10 84 22 99 166 c 0
 101 187 105 210 113 236 c 2
 215 572 l 2
 217 577 217 581 217 585 c 0
 219 606 206 614 175 616 c 2
 151 618 l 2
 147 618 143 621 145 626 c 2
 150 645 l 1
 154 647 l 1
 199 646 236 645 274 645 c 0
 312 645 353 646 398 647 c 1
 399 645 l 1
 393 626 l 2
 391 621 389 618 384 618 c 2
 358 616 l 2
 318 613 301 600 292 572 c 2
 201 269 l 2
 192 237 182 203 179 171 c 0
 176 139 178 108 196 81 c 0
 216 52 249 31 295 31 c 0
 458 31 512 165 546 277 c 2
 634 570 l 2
 636 575 637 580 637 584 c 0
 639 605 627 614 595 616 c 2
 570 618 l 2
 567 618 562 621 564 626 c 2
 570 645 l 1
 573 647 l 1
 618 646 655 645 677 645 c 0
 699 645 739 646 784 647 c 1
 785 645 l 1
 779 626 l 2
 777 621 775 618 770 618 c 2
 744 616 l 2
 703 613 686 598 678 570 c 2
 595 295 l 2
 542 117 460 -10 263 -10 c 0
620 715 m 0
 619 709 614 696 599 696 c 0
 589 696 575 701 560 708 c 2
 426 771 l 1
 517 816 l 1
 611 732 l 2
 617 726 621 720 620 715 c 0
EndSplineSet
MultipleSubs2: "'c2sc' May+APoA-sculas a min+APoA-sculas lookup 12 subtable" ugrave.sc
Position2: "'cpsp' Espaciado de may+APoA-sculas lookup 3 subtable" dx=2 dy=0 dh=5 dv=1
EndChar

StartChar: Uacute
Encoding: 218 218 154
Width: 634
GlyphClass: 2
Flags: MW
HStem: -10 41<272 361.5> 618 29<149 154>
VStem: 124 79
LayerCount: 2
Fore
SplineSet
263 -10 m 0
 188 -10 84 22 99 166 c 0
 101 187 105 210 113 236 c 2
 215 572 l 2
 217 577 217 581 217 585 c 0
 219 606 206 614 175 616 c 2
 151 618 l 2
 147 618 143 621 145 626 c 2
 150 645 l 1
 154 647 l 1
 199 646 236 645 274 645 c 0
 312 645 353 646 398 647 c 1
 399 645 l 1
 393 626 l 2
 391 621 389 618 384 618 c 2
 358 616 l 2
 318 613 301 600 292 572 c 2
 201 269 l 2
 192 237 182 203 179 171 c 0
 176 139 178 108 196 81 c 0
 216 52 249 31 295 31 c 0
 458 31 512 165 546 277 c 2
 634 570 l 2
 636 575 637 580 637 584 c 0
 639 605 627 614 595 616 c 2
 570 618 l 2
 567 618 562 621 564 626 c 2
 570 645 l 1
 573 647 l 1
 618 646 655 645 677 645 c 0
 699 645 739 646 784 647 c 1
 785 645 l 1
 779 626 l 2
 777 621 775 618 770 618 c 2
 744 616 l 2
 703 613 686 598 678 570 c 2
 595 295 l 2
 542 117 460 -10 263 -10 c 0
416 696 m 0
 408 696 404 699 405 707 c 0
 406 716 414 723 429 732 c 2
 578 816 l 1
 639 771 l 1
 463 708 l 2
 441 701 425 696 416 696 c 0
EndSplineSet
MultipleSubs2: "'c2sc' May+APoA-sculas a min+APoA-sculas lookup 12 subtable" uacute.sc
Position2: "'cpsp' Espaciado de may+APoA-sculas lookup 3 subtable" dx=2 dy=0 dh=5 dv=1
EndChar

StartChar: Ucircumflex
Encoding: 219 219 155
Width: 634
GlyphClass: 2
Flags: MW
HStem: -10 41<272 361.5> 618 29<149 154>
VStem: 124 79
LayerCount: 2
Fore
SplineSet
263 -10 m 0
 188 -10 84 22 99 166 c 0
 101 187 106 210 114 236 c 2
 215 572 l 2
 217 577 217 581 217 585 c 0
 219 606 207 614 176 616 c 2
 151 618 l 2
 147 618 144 621 146 626 c 2
 151 645 l 1
 154 647 l 1
 199 646 237 645 275 645 c 0
 313 645 353 646 398 647 c 1
 400 645 l 1
 394 626 l 2
 392 621 389 618 384 618 c 2
 359 616 l 2
 319 613 301 600 292 572 c 2
 201 269 l 2
 192 237 182 203 179 171 c 0
 176 139 178 108 196 81 c 0
 216 52 249 31 295 31 c 0
 458 31 512 165 546 277 c 2
 634 570 l 2
 636 575 637 580 637 584 c 0
 639 605 628 614 596 616 c 2
 570 618 l 2
 567 618 563 621 565 626 c 2
 571 645 l 1
 573 647 l 1
 618 646 656 645 678 645 c 0
 700 645 739 646 784 647 c 1
 786 645 l 1
 780 626 l 2
 778 621 775 618 770 618 c 2
 745 616 l 2
 704 613 686 598 678 570 c 2
 595 295 l 2
 542 117 460 -10 263 -10 c 0
568 811 m 1
 585 775 609 744 637 717 c 1
 614 696 l 1
 581 714 553 733 529 758 c 1
 483 731 445 713 401 696 c 1
 394 717 l 1
 440 745 483 777 525 811 c 1
 568 811 l 1
EndSplineSet
MultipleSubs2: "'c2sc' May+APoA-sculas a min+APoA-sculas lookup 12 subtable" ucircumflex.sc
Position2: "'cpsp' Espaciado de may+APoA-sculas lookup 3 subtable" dx=2 dy=0 dh=5 dv=1
EndChar

StartChar: Udieresis
Encoding: 220 220 156
Width: 634
GlyphClass: 2
Flags: MW
HStem: -10 41<273 362.5> 618 29<150 155> 697 90<405 455> 697 91<595 644>
VStem: 124 79
LayerCount: 2
Fore
SplineSet
264 -10 m 0xd8
 189 -10 86 22 101 166 c 0
 103 187 107 210 115 236 c 2
 216 572 l 2
 218 577 219 581 219 585 c 0
 221 606 208 614 177 616 c 2
 152 618 l 2
 148 618 145 621 147 626 c 2
 152 645 l 1
 155 647 l 1
 200 646 238 645 276 645 c 0
 314 645 354 646 399 647 c 1
 401 645 l 1
 395 626 l 2
 393 621 390 618 385 618 c 2
 360 616 l 2
 320 613 302 600 293 572 c 2
 202 269 l 2
 193 237 183 203 180 171 c 0
 177 139 180 108 198 81 c 0
 218 52 250 31 296 31 c 0
 459 31 513 165 547 277 c 2
 635 570 l 2
 637 575 638 580 638 584 c 0
 640 605 629 614 597 616 c 2
 571 618 l 2
 568 618 564 621 566 626 c 2
 572 645 l 1
 574 647 l 1
 619 646 657 645 679 645 c 0
 701 645 740 646 785 647 c 1
 787 645 l 1
 781 626 l 2
 779 621 776 618 771 618 c 2
 746 616 l 2
 705 613 687 598 679 570 c 2
 596 295 l 2
 543 117 461 -10 264 -10 c 0xd8
574 743 m 0
 582 767 608 788 633 788 c 0
 655 788 668 772 666 752 c 0
 666 749 665 745 664 743 c 0
 657 718 631 697 606 697 c 0
 584 697 570 713 572 735 c 0
 572 737 573 740 574 743 c 0
384 742 m 0xe8
 392 767 419 787 444 787 c 0
 466 787 479 772 477 751 c 0
 477 748 475 745 475 742 c 0
 467 717 441 697 416 697 c 0
 394 697 380 713 382 734 c 0
 382 736 384 739 384 742 c 0xe8
EndSplineSet
Substitution2: "'ss01' Estilo 1 lookup 40 subtable" Udieresis.alt
MultipleSubs2: "'c2sc' May+APoA-sculas a min+APoA-sculas lookup 12 subtable" udieresis.sc
Position2: "'cpsp' Espaciado de may+APoA-sculas lookup 3 subtable" dx=2 dy=0 dh=5 dv=1
EndChar

StartChar: Yacute
Encoding: 221 221 157
Width: 552
GlyphClass: 2
Flags: MW
HStem: -2 30 616 30 617 30
VStem: 123 540
LayerCount: 2
Fore
SplineSet
301 76 m 2xd0
 292 46 301 33 340 30 c 2
 374 27 l 1
 376 22 371 2 368 -2 c 1
 324 -1 279 0 241 0 c 0
 202 0 166 -1 121 -2 c 1
 118 7 122 23 126 27 c 2
 157 30 l 2
 198 34 216 48 224 76 c 2
 278 259 l 2
 281 269 283 279 284 284 c 0
 284 288 284 296 283 302 c 2
 217 547 l 2
 203 600 197 612 163 616 c 2
 148 618 l 1xb0
 146 623 145 641 149 646 c 1
 177 645 216 645 253 645 c 0
 291 645 321 645 360 646 c 1
 362 642 359 623 355 618 c 1
 322 615 l 2
 289 612 291 603 297 577 c 1
 297 576 l 1
 356 335 l 1
 360 335 l 1
 544 576 l 2
 567 605 567 613 543 615 c 2
 511 618 l 2
 509 622 513 642 516 646 c 1
 554 645 585 645 607 645 c 0
 629 645 658 645 687 646 c 1xd0
 690 642 684 623 680 618 c 1
 654 616 l 2
 619 613 604 595 580 565 c 2xb0
 378 310 l 2
 370 299 364 285 359 268 c 2
 301 76 l 2xd0
436 696 m 0
 428 696 425 699 426 707 c 0
 427 716 434 723 449 732 c 2
 599 816 l 1
 659 771 l 1
 484 708 l 2
 462 701 445 696 436 696 c 0
EndSplineSet
MultipleSubs2: "'c2sc' May+APoA-sculas a min+APoA-sculas lookup 12 subtable" yacute.sc
Position2: "'cpsp' Espaciado de may+APoA-sculas lookup 3 subtable" dx=2 dy=0 dh=5 dv=1
EndChar

StartChar: Thorn
Encoding: 222 222 158
Width: 501
GlyphClass: 2
Flags: MW
HStem: -2 29<-24 -10> 152 31<242 295 242 341.5> 490 31<371 398.5> 618 28<165 170>
VStem: 456 84
LayerCount: 2
Fore
SplineSet
233 575 m 2
 242 605 229 613 192 616 c 2
 167 618 l 2
 163 618 160 621 162 626 c 2
 168 645 l 1
 170 646 l 1
 170 646 253 645 291 645 c 0
 324 645 415 646 415 646 c 1
 416 645 l 1
 411 626 l 2
 409 621 405 618 401 618 c 2
 374 616 l 2
 335 613 319 603 310 575 c 2
 294 519 l 1
 328 521 362 521 380 521 c 0
 558 521 559 414 538 343 c 0
 515 268 427 152 256 152 c 0
 223 152 198 154 186 159 c 1
 160 72 l 2
 151 41 162 32 198 29 c 2
 224 27 l 2
 227 27 231 24 229 19 c 2
 223 0 l 1
 221 -2 l 1
 221 -2 138 0 100 0 c 0
 66 0 -24 -2 -24 -2 c 1
 -26 0 l 1
 -20 19 l 2
 -18 24 -14 27 -10 27 c 2
 16 29 l 2
 56 32 73 44 82 72 c 2
 233 575 l 2
282 479 m 1
 194 188 l 1
 202 185 224 183 260 183 c 0
 330 183 414 214 453 343 c 0
 490 463 427 490 370 490 c 0
 352 490 304 485 282 479 c 1
EndSplineSet
MultipleSubs2: "'c2sc' May+APoA-sculas a min+APoA-sculas lookup 12 subtable" thorn.sc
Position2: "'cpsp' Espaciado de may+APoA-sculas lookup 3 subtable" dx=2 dy=0 dh=5 dv=1
EndChar

StartChar: germandbls
Encoding: 223 223 159
Width: 543
GlyphClass: 2
Flags: MW
HStem: -238 33<-30.5 -28> -10 33<316 350 316 375.5> 390 39<145.5 189.5 162 189> 409 20G 666 32<442.5 497>
VStem: 256 47 451 92 491 80
LayerCount: 2
Fore
SplineSet
272 374 m 2xee
 195 137 144 -79 61 -182 c 0
 28 -222 -9 -238 -47 -238 c 0
 -116 -238 -128 -209 -126 -190 c 0
 -124 -175 -113 -158 -88 -158 c 0
 -68 -158 -55 -169 -48 -182 c 0
 -41 -195 -37 -205 -24 -205 c 0
 -6 -205 16 -186 31 -161 c 0
 66 -101 107 56 131 141 c 0
 150 208 171 287 200 379 c 0
 201 390 199 390 189 390 c 2
 148 390 l 2
 143 390 140 392 141 397 c 0
 142 405 150 429 174 429 c 0
 205 429 221 450 232 477 c 0
 293 639 390 698 495 698 c 0
 586 698 616 650 611 606 c 0xed
 602 524 513 459 434 411 c 1
 434 409 l 1
 486 364 552 307 542 216 c 0
 532 121 436 -10 315 -10 c 0
 249 -10 234 21 238 56 c 0
 244 110 267 122 286 122 c 0
 302 122 313 114 312 102 c 0
 308 67 286 62 284 45 c 0
 282 23 306 23 326 23 c 0
 374 23 439 121 448 202 c 0
 456 276 420 343 368 396 c 1xde
 373 409 l 1
 401 426 520 506 531 606 c 0
 535 643 518 666 476 666 c 0xed
 372 666 329 550 294 442 c 2
 272 374 l 2xee
EndSplineSet
Substitution2: "'ss03' Estilo 3 lookup 42 subtable" germandbls.ss03
AlternateSubs2: "'salt' Alternativas estil+AO0A-sticas lookup 21 subtable" germandbls.ss03 germandbls.alt
MultipleSubs2: "'smcp' Min+APoA-sculas a may+APoA-sculas peque+APEA-as lookup 10 subtable" germandbls.sc
EndChar

StartChar: agrave
Encoding: 224 224 160
Width: 486
GlyphClass: 2
Flags: MW
HStem: -10 55<155 165.5> 408 31<295 351.5> 411 20G<470 490 490 490>
VStem: 78 80 323 78
LayerCount: 2
Fore
SplineSet
421 433 m 0xd8
 436 429 452 430 470 431 c 2
 490 431 l 1xb8
 389 120 l 2
 383 101 374 73 373 64 c 0
 372 52 380 50 383 50 c 0
 393 50 414 66 445 103 c 1
 458 103 462 96 466 87 c 1
 434 30 390 -10 328 -10 c 0
 294 -10 290 16 292 35 c 0
 293 47 299 67 308 90 c 2
 325 132 l 1
 323 134 l 1
 254 45 192 -10 139 -10 c 0
 55 -10 50 69 56 125 c 0
 73 282 234 439 341 439 c 0
 381 439 394 436 421 433 c 0xd8
348 219 m 1
 380 283 401 389 401 389 c 1
 383 401 362 408 341 408 c 0
 249 408 149 247 138 141 c 0
 132 85 138 45 172 45 c 0
 204 45 290 129 348 219 c 1
409 671 m 2
 439 545 l 2
 441 535 441 528 439 521 c 0
 437 516 428 510 420 510 c 0
 414 510 408 515 397 530 c 2
 317 639 l 1
 322 650 l 1
 332 656 361 673 395 673 c 0
 400 673 405 672 409 671 c 2
EndSplineSet
MultipleSubs2: "'smcp' Min+APoA-sculas a may+APoA-sculas peque+APEA-as lookup 10 subtable" agrave.sc
EndChar

StartChar: aacute
Encoding: 225 225 161
Width: 486
GlyphClass: 2
Flags: MW
HStem: -10 55<155 165.5> 408 31<295 351.5> 411 20G<471 491 491 491>
VStem: 78 80 323 78
LayerCount: 2
Fore
SplineSet
421 433 m 0xd8
 436 429 453 430 471 431 c 2
 491 431 l 1xb8
 389 120 l 2
 383 101 374 73 373 64 c 0
 372 52 381 50 384 50 c 0
 394 50 414 66 445 103 c 1
 458 103 463 96 467 87 c 1
 435 30 390 -10 328 -10 c 0
 294 -10 290 16 292 35 c 0
 293 47 299 67 308 90 c 2
 325 132 l 1
 324 134 l 1
 255 45 192 -10 139 -10 c 0
 55 -10 51 69 57 125 c 0
 74 282 235 439 342 439 c 0
 382 439 394 436 421 433 c 0xd8
348 219 m 1
 380 283 401 389 401 389 c 1
 383 401 362 408 341 408 c 0
 249 408 149 247 138 141 c 0
 132 85 138 45 172 45 c 0
 204 45 290 129 348 219 c 1
403 666 m 2
 406 667 414 668 419 668 c 0
 425 668 449 667 466 645 c 1
 466 634 l 1
 317 525 l 2
 297 510 289 506 282 506 c 0
 275 506 269 512 271 519 c 0
 274 530 280 534 291 547 c 2
 403 666 l 2
EndSplineSet
MultipleSubs2: "'smcp' Min+APoA-sculas a may+APoA-sculas peque+APEA-as lookup 10 subtable" aacute.sc
EndChar

StartChar: acircumflex
Encoding: 226 226 162
Width: 486
GlyphClass: 2
Flags: MW
HStem: -10 55<156 166.5> 408 31<296 352.5> 411 20G<472 492 492 492> 600 53 633 20G<367 417 417 417>
VStem: 78 80 323 78
LayerCount: 2
Fore
SplineSet
422 433 m 0xce
 437 429 454 430 472 431 c 2
 492 431 l 1xae
 390 120 l 2
 384 101 375 73 374 64 c 0
 373 52 381 50 384 50 c 0
 394 50 415 66 446 103 c 1
 459 103 463 96 467 87 c 1
 435 30 391 -10 329 -10 c 0
 295 -10 291 16 293 35 c 0
 294 47 300 67 309 90 c 2
 326 132 l 1
 324 134 l 1
 255 45 193 -10 140 -10 c 0
 56 -10 51 69 57 125 c 0
 74 282 235 439 342 439 c 0
 382 439 395 436 422 433 c 0xce
349 219 m 1
 381 283 402 389 402 389 c 1
 384 401 363 408 342 408 c 0
 250 408 150 247 139 141 c 0
 133 85 139 45 173 45 c 0
 205 45 291 129 349 219 c 1
417 653 m 1
 431 606 454 564 478 524 c 1
 453 510 l 1
 423 539 397 564 374 600 c 1
 325 562 286 537 240 510 c 1
 224 524 l 1xd6
 272 564 323 607 367 653 c 1
 417 653 l 1
EndSplineSet
MultipleSubs2: "'smcp' Min+APoA-sculas a may+APoA-sculas peque+APEA-as lookup 10 subtable" acircumflex.sc
EndChar

StartChar: atilde
Encoding: 227 227 163
Width: 486
GlyphClass: 2
Flags: MW
HStem: -10 55<158 168.5> 408 31<298 354.5> 411 20G<473 493 493 493> 521 44<413.5 420> 569 46<293.5 302.5>
VStem: 78 80 323 78
AnchorPoint: "Anchor-0" 423 785 basechar 0
LayerCount: 2
Fore
SplineSet
424 433 m 0xce
 439 429 455 430 473 431 c 2
 493 431 l 1xae
 392 120 l 2
 386 101 377 73 376 64 c 0
 375 52 383 50 386 50 c 0
 396 50 417 66 448 103 c 1
 461 103 465 96 469 87 c 1
 437 30 393 -10 331 -10 c 0
 297 -10 293 16 295 35 c 0
 296 47 302 67 311 90 c 2
 328 132 l 1
 326 134 l 1
 257 45 195 -10 142 -10 c 0
 58 -10 53 69 59 125 c 0
 76 282 237 439 344 439 c 0
 384 439 397 436 424 433 c 0xce
351 219 m 1
 383 283 404 389 404 389 c 1
 386 401 365 408 344 408 c 0
 252 408 152 247 141 141 c 0
 135 85 141 45 175 45 c 0
 207 45 293 129 351 219 c 1
423 565 m 0xd6
 445 565 463 575 489 617 c 1
 511 611 l 1
 481 551 443 521 397 521 c 0xd6
 375 521 358 533 341 547 c 0
 326 558 311 569 294 569 c 0
 268 569 250 554 230 521 c 1
 207 526 l 1
 239 585 272 615 315 615 c 0xce
 345 615 362 601 378 587 c 0
 391 575 404 565 423 565 c 0xd6
EndSplineSet
MultipleSubs2: "'smcp' Min+APoA-sculas a may+APoA-sculas peque+APEA-as lookup 10 subtable" atilde.sc
EndChar

StartChar: adieresis
Encoding: 228 228 164
Width: 486
GlyphClass: 2
Flags: MW
HStem: -10 55<158 168.5> 408 31<298 354.5> 411 20G<473 493 493 493> 527 92<295.5 310.5 455.5 470.5>
VStem: 78 80 229 92 323 78 389 92
LayerCount: 2
Fore
SplineSet
424 433 m 0xda
 439 429 455 430 473 431 c 2
 493 431 l 1xba
 392 120 l 2
 386 101 377 73 376 64 c 0
 375 52 383 50 386 50 c 0
 396 50 417 66 448 103 c 1
 461 103 465 96 469 87 c 1
 437 30 393 -10 331 -10 c 0
 297 -10 293 16 295 35 c 0
 296 47 301 67 310 90 c 2
 328 132 l 1
 326 134 l 1
 257 45 195 -10 142 -10 c 0
 58 -10 53 69 59 125 c 0
 76 282 237 439 344 439 c 0
 384 439 397 436 424 433 c 0xda
351 219 m 1
 383 283 404 389 404 389 c 1
 386 401 365 408 344 408 c 0
 252 408 152 247 141 141 c 0
 135 85 141 45 175 45 c 0
 207 45 293 129 351 219 c 1
257 573 m 0xdd
 260 598 283 619 308 619 c 0
 333 619 352 598 349 573 c 0
 346 548 323 527 298 527 c 0
 273 527 254 548 257 573 c 0xdd
417 573 m 0
 420 598 443 619 468 619 c 0
 493 619 512 598 509 573 c 0
 506 548 483 527 458 527 c 0
 433 527 414 548 417 573 c 0
EndSplineSet
MultipleSubs2: "'smcp' Min+APoA-sculas a may+APoA-sculas peque+APEA-as lookup 10 subtable" adieresis.sc
EndChar

StartChar: aring
Encoding: 229 229 165
Width: 486
GlyphClass: 2
Flags: MW
HStem: -10 55<155 165.5> 408 31<295 351.5> 411 20G<470 490 490 490> 510 27<336.5 367.5 336.5 368> 649 27<372 401>
VStem: 78 80 323 78
AnchorPoint: "Anchor-0" 452 864 basechar 0
LayerCount: 2
Fore
SplineSet
421 433 m 0xde
 436 429 452 430 470 431 c 2
 490 431 l 1xbe
 389 120 l 2
 383 101 374 73 373 64 c 0
 372 52 380 50 383 50 c 0
 393 50 414 66 445 103 c 1
 458 103 462 96 466 87 c 1
 434 30 390 -10 328 -10 c 0
 294 -10 290 16 292 35 c 0
 293 47 298 67 307 90 c 2
 325 132 l 1
 323 134 l 1
 254 45 192 -10 139 -10 c 0
 55 -10 50 69 56 125 c 0
 73 282 234 439 341 439 c 0
 381 439 394 436 421 433 c 0xde
348 219 m 1
 380 283 401 389 401 389 c 1
 383 401 362 408 341 408 c 0
 249 408 149 247 138 141 c 0
 132 85 138 45 172 45 c 0
 204 45 290 129 348 219 c 1
282 593 m 0
 296 639 349 676 395 676 c 0
 441 676 471 640 456 593 c 0
 442 548 392 510 344 510 c 0
 298 510 268 547 282 593 c 0
386 649 m 0
 355 649 328 623 319 593 c 0
 310 565 321 537 352 537 c 0
 383 537 410 565 419 593 c 0
 428 624 416 649 386 649 c 0
EndSplineSet
MultipleSubs2: "'smcp' Min+APoA-sculas a may+APoA-sculas peque+APEA-as lookup 10 subtable" aring.sc
EndChar

StartChar: ae
Encoding: 230 230 166
Width: 687
GlyphClass: 2
Flags: MW
HStem: -10 42<162.5 200.5> -10 49<468 500> 215 35 218 35 405 34<587.5 624.5> 409 30<305.5 332>
VStem: 60 74 126 79 651 78
AnchorPoint: "Anchor-4" 585 30 basechar 0
AnchorPoint: "Anchor-2" 293 -109 basechar 0
AnchorPoint: "Anchor-0" 525 645 basechar 0
LayerCount: 2
Fore
SplineSet
381 334 m 0xa680
 388 399 342 409 322 409 c 0
 289 409 224 397 219 349 c 0
 218 343 220 340 220 336 c 0x9580
 217 311 192 292 166 292 c 0
 142 292 135 307 137 322 c 0
 144 386 246 439 336 439 c 0
 360 439 435 436 450 369 c 1
 498 414 559 439 616 439 c 0
 719 439 747 386 743 350 c 0
 732 244 570 226 421 218 c 1
 415 199 412 180 410 163 c 0
 402 87 437 39 499 39 c 0
 553 39 590 59 633 94 c 1x5980
 646 84 l 1
 599 30 533 -10 467 -10 c 0
 376 -10 349 34 337 59 c 1
 294 18 228 -10 173 -10 c 0
 81 -10 40 26 46 81 c 0
 60 216 242 242 360 250 c 1
 372 288 379 312 381 334 c 0xa680
348 215 m 1
 293 211 132 191 121 89 c 0
 118 56 136 32 189 32 c 0
 226 32 267 51 300 101 c 0
 312 119 331 165 348 215 c 1
435 253 m 1x9a80
 546 259 657 269 665 347 c 0
 668 376 646 405 603 405 c 0
 535 405 471 338 435 253 c 1x9a80
EndSplineSet
MultipleSubs2: "'smcp' Min+APoA-sculas a may+APoA-sculas peque+APEA-as lookup 10 subtable" ae.sc
EndChar

StartChar: ccedilla
Encoding: 231 231 167
Width: 389
GlyphClass: 2
Flags: MW
HStem: -196 29<138 166 138 175.5> -92 32<180.5 240.5> -10 59<174.5 258.5 195 258.5> 408 31<324 349>
VStem: 83 82 239 63 354 69
LayerCount: 2
Fore
SplineSet
190 -92 m 0
 171 -92 160 -93 142 -98 c 1
 139 -92 l 1
 197 -10 l 1
 195 -10 l 2
 154 -10 122 9 104 38 c 0
 84 71 83 116 86 149 c 0
 95 239 136 316 191 369 c 0
 238 413 304 439 344 439 c 0
 453 439 450 382 446 343 c 0
 443 318 417 298 390 298 c 0
 373 298 364 314 366 330 c 0
 367 336 370 347 373 351 c 0
 377 356 379 364 380 370 c 0
 383 403 356 408 342 408 c 0
 265 408 186 320 170 171 c 0
 164 111 172 91 185 72 c 0
 197 53 215 49 232 49 c 0
 285 49 328 82 372 126 c 1
 381 126 391 119 393 109 c 1
 348 54 294 10 236 -5 c 1
 196 -63 l 1
 205 -61 214 -60 223 -60 c 0
 258 -60 281 -79 278 -109 c 0
 272 -163 206 -196 145 -196 c 0
 113 -196 98 -190 76 -179 c 1
 79 -167 85 -160 94 -153 c 1
 118 -163 128 -167 148 -167 c 0
 184 -167 211 -147 214 -116 c 0
 216 -101 208 -92 190 -92 c 0
EndSplineSet
MultipleSubs2: "'smcp' Min+APoA-sculas a may+APoA-sculas peque+APEA-as lookup 10 subtable" ccedilla.sc
EndChar

StartChar: egrave
Encoding: 232 232 168
Width: 401
GlyphClass: 2
Flags: MW
HStem: -10 60<189.5 203.5> 408 31<293 332>
VStem: 83 83 355 69
LayerCount: 2
Fore
SplineSet
153 199 m 1
 151 191 149 170 148 165 c 0
 138 74 167 50 212 50 c 0
 260 50 284 59 347 117 c 1
 359 117 365 112 369 101 c 1
 302 25 237 -10 170 -10 c 0
 87 -10 54 57 63 142 c 0
 76 269 166 439 340 439 c 0
 412 439 431 390 428 365 c 1
 427 363 l 1
 423 325 415 249 153 199 c 1
359 370 m 0
 362 399 350 408 314 408 c 0
 272 408 214 379 164 237 c 1
 241 247 350 280 359 370 c 0
372 671 m 2
 402 545 l 2
 404 535 404 528 402 521 c 0
 400 516 391 510 383 510 c 0
 377 510 371 515 360 530 c 2
 280 639 l 1
 285 650 l 1
 295 656 324 673 358 673 c 0
 363 673 368 672 372 671 c 2
EndSplineSet
MultipleSubs2: "'smcp' Min+APoA-sculas a may+APoA-sculas peque+APEA-as lookup 10 subtable" egrave.sc
EndChar

StartChar: eacute
Encoding: 233 233 169
Width: 401
GlyphClass: 2
Flags: MW
HStem: -10 60<190.5 203.5> 408 31<293 332>
VStem: 83 83 355 69
LayerCount: 2
Fore
SplineSet
153 199 m 1
 151 191 150 170 149 165 c 0
 139 74 168 50 213 50 c 0
 261 50 285 59 348 117 c 1
 360 117 365 112 369 101 c 1
 302 25 237 -10 170 -10 c 0
 87 -10 54 57 63 142 c 0
 76 269 167 439 341 439 c 0
 413 439 431 390 428 365 c 2
 428 363 l 1
 424 325 415 249 153 199 c 1
359 370 m 0
 362 399 350 408 314 408 c 0
 272 408 214 379 164 237 c 1
 241 247 350 280 359 370 c 0
408 666 m 2
 411 667 419 668 424 668 c 0
 430 668 454 667 471 645 c 1
 471 634 l 1
 322 525 l 2
 302 510 294 506 287 506 c 0
 280 506 274 512 276 519 c 0
 279 530 285 534 296 547 c 2
 408 666 l 2
EndSplineSet
MultipleSubs2: "'smcp' Min+APoA-sculas a may+APoA-sculas peque+APEA-as lookup 10 subtable" eacute.sc
EndChar

StartChar: ecircumflex
Encoding: 234 234 170
Width: 401
GlyphClass: 2
Flags: MW
HStem: -10 60<190.5 204.5> 408 31<294 333> 600 53 633 20G<335 385 385 385>
VStem: 83 83 355 69
LayerCount: 2
Fore
SplineSet
154 199 m 1xdc
 152 191 151 170 150 165 c 0
 140 74 168 50 213 50 c 0
 261 50 286 59 349 117 c 1
 361 117 366 112 370 101 c 1
 303 25 238 -10 171 -10 c 0
 88 -10 55 57 64 142 c 0
 77 269 167 439 341 439 c 0
 413 439 432 390 429 365 c 1
 428 363 l 1
 424 325 416 249 154 199 c 1xdc
360 370 m 0
 363 399 351 408 315 408 c 0
 273 408 215 379 165 237 c 1
 242 247 351 280 360 370 c 0
385 653 m 1
 399 606 422 564 446 524 c 1
 421 510 l 1
 391 539 365 564 342 600 c 1
 293 562 254 537 208 510 c 1
 192 524 l 1xec
 240 564 291 607 335 653 c 1
 385 653 l 1
EndSplineSet
MultipleSubs2: "'smcp' Min+APoA-sculas a may+APoA-sculas peque+APEA-as lookup 10 subtable" ecircumflex.sc
EndChar

StartChar: edieresis
Encoding: 235 235 171
Width: 401
GlyphClass: 2
Flags: MW
HStem: -10 60<192.5 206.5> 408 31<296 335> 527 92<260.5 275.5 420.5 435.5>
VStem: 83 83 194 92 354 92 355 69
LayerCount: 2
Fore
SplineSet
156 199 m 1xf2
 154 191 152 170 151 165 c 0
 141 74 170 50 215 50 c 0
 263 50 287 59 350 117 c 1
 362 117 368 112 372 101 c 1
 305 25 240 -10 173 -10 c 0
 90 -10 57 57 66 142 c 0
 79 269 169 439 343 439 c 0
 415 439 433 390 430 365 c 2
 430 363 l 1
 426 325 418 249 156 199 c 1xf2
362 370 m 0
 365 399 353 408 317 408 c 0
 275 408 217 379 167 237 c 1
 244 247 353 280 362 370 c 0
222 573 m 0xfc
 225 598 248 619 273 619 c 0
 298 619 317 598 314 573 c 0
 311 548 288 527 263 527 c 0
 238 527 219 548 222 573 c 0xfc
382 573 m 0
 385 598 408 619 433 619 c 0
 458 619 477 598 474 573 c 0
 471 548 448 527 423 527 c 0
 398 527 379 548 382 573 c 0
EndSplineSet
MultipleSubs2: "'smcp' Min+APoA-sculas a may+APoA-sculas peque+APEA-as lookup 10 subtable" edieresis.sc
EndChar

StartChar: igrave
Encoding: 236 236 172
Width: 276
GlyphClass: 2
Flags: MW
HStem: -10 21G<97 136> -10 60<97 174> 394 42 416 20G<240 262.5>
VStem: 117 149 180 86
LayerCount: 2
Fore
SplineSet
244 320 m 2x98
 178 124 l 2
 169 98 162 76 161 67 c 0
 160 55 162 50 169 50 c 0
 179 50 211 70 240 100 c 1x58
 254 100 259 92 261 83 c 1x98
 209 24 160 -10 112 -10 c 0
 82 -10 73 4 75 23 c 0
 77 42 91 83 101 115 c 2
 170 321 l 2
 180 349 183 363 184 372 c 0
 185 382 180 391 168 392 c 2xa4
 129 395 l 1xa8
 124 404 123 415 131 423 c 1
 179 429 224 436 256 436 c 0
 269 436 276 429 275 415 c 0
 273 398 257 359 244 320 c 2x98
249 671 m 2
 279 545 l 2
 281 535 281 528 279 521 c 0
 277 516 268 510 260 510 c 0
 254 510 248 515 237 530 c 2
 157 639 l 1
 162 650 l 1
 172 656 201 673 235 673 c 0
 240 673 245 672 249 671 c 2
EndSplineSet
MultipleSubs2: "'smcp' Min+APoA-sculas a may+APoA-sculas peque+APEA-as lookup 10 subtable" igrave.sc
EndChar

StartChar: iacute
Encoding: 237 237 173
Width: 276
GlyphClass: 2
Flags: MW
HStem: -10 21G<97 136> -10 60<97 174> 394 42 416 20G<240 262.5>
VStem: 117 149 180 86
LayerCount: 2
Fore
SplineSet
243 320 m 2x98
 178 124 l 2
 169 98 162 76 161 67 c 0
 160 55 162 50 169 50 c 0
 179 50 210 70 239 100 c 1x58
 253 100 258 92 260 83 c 1x98
 208 24 160 -10 112 -10 c 0
 82 -10 72 4 74 23 c 0
 76 42 91 83 101 115 c 2
 169 321 l 2
 179 349 183 363 184 372 c 0
 185 382 180 391 168 392 c 2xa4
 128 395 l 1xa8
 123 404 122 415 130 423 c 1
 178 429 224 436 256 436 c 0
 269 436 275 429 274 415 c 0
 272 398 256 359 243 320 c 2x98
341 680 m 2
 344 681 351 682 356 682 c 0
 362 682 387 681 404 659 c 1
 404 648 l 1
 254 539 l 2
 234 524 226 520 219 520 c 0
 212 520 207 526 209 533 c 0
 212 544 218 548 229 561 c 2
 341 680 l 2
EndSplineSet
MultipleSubs2: "'smcp' Min+APoA-sculas a may+APoA-sculas peque+APEA-as lookup 10 subtable" iacute.sc
EndChar

StartChar: icircumflex
Encoding: 238 238 174
Width: 276
GlyphClass: 2
Flags: MW
HStem: -10 21G<98 137> -10 60<98 175> 394 42 416 20G<241 263.5> 600 53 633 20G<266 316 316 316>
VStem: 117 149 180 86
LayerCount: 2
Fore
SplineSet
245 320 m 2x96
 179 124 l 2
 170 98 163 76 162 67 c 0
 161 55 163 50 170 50 c 0
 180 50 212 70 241 100 c 1x56
 255 100 260 92 262 83 c 1x96
 210 24 161 -10 113 -10 c 0
 83 -10 74 4 76 23 c 0
 78 42 92 83 102 115 c 2
 171 321 l 2
 181 349 184 363 185 372 c 0
 186 382 181 391 169 392 c 2xa5
 130 395 l 1xa6
 125 404 124 415 132 423 c 1
 180 429 225 436 257 436 c 0
 270 436 277 429 276 415 c 0
 274 398 258 359 245 320 c 2x96
316 653 m 1
 330 606 353 564 377 524 c 1
 352 510 l 1
 322 539 296 564 273 600 c 1
 224 562 185 537 139 510 c 1
 123 524 l 1x9a
 171 564 222 607 266 653 c 1
 316 653 l 1
EndSplineSet
MultipleSubs2: "'smcp' Min+APoA-sculas a may+APoA-sculas peque+APEA-as lookup 10 subtable" icircumflex.sc
EndChar

StartChar: idieresis
Encoding: 239 239 175
Width: 276
GlyphClass: 2
Flags: MW
HStem: -10 21G<100 139> -10 60<100 177> 394 42 416 20G<243 265.5> 527 92<181.5 196.5 341.5 356.5>
VStem: 115 92 117 149 180 86 275 92
LayerCount: 2
Fore
SplineSet
247 320 m 2x9a80
 181 124 l 2
 172 98 165 76 164 67 c 0
 163 55 165 50 172 50 c 0
 182 50 214 70 243 100 c 1x5a80
 257 100 262 92 264 83 c 1x9a80
 212 24 163 -10 115 -10 c 0
 85 -10 75 4 77 23 c 0
 79 42 94 83 104 115 c 2
 173 321 l 2
 183 349 186 363 187 372 c 0
 188 382 183 391 171 392 c 2xa980
 132 395 l 1xaa80
 127 404 125 415 133 423 c 1
 181 429 227 436 259 436 c 0
 272 436 279 429 278 415 c 0
 276 398 260 359 247 320 c 2x9a80
143 573 m 0x9c80
 146 598 169 619 194 619 c 0
 219 619 238 598 235 573 c 0
 232 548 209 527 184 527 c 0
 159 527 140 548 143 573 c 0x9c80
303 573 m 0
 306 598 329 619 354 619 c 0
 379 619 398 598 395 573 c 0
 392 548 369 527 344 527 c 0
 319 527 300 548 303 573 c 0
EndSplineSet
MultipleSubs2: "'smcp' Min+APoA-sculas a may+APoA-sculas peque+APEA-as lookup 10 subtable" idieresis.sc
EndChar

StartChar: eth
Encoding: 240 240 176
Width: 478
GlyphClass: 2
Flags: MW
HStem: -12 39<184.5 235.5 184.5 238.5> 407 35<311 360>
VStem: 75 80 424 83<343 343>
LayerCount: 2
Fore
SplineSet
67 208 m 0
 125 381 270 442 352 442 c 0
 378 442 404 438 425 428 c 1
 421 481 406 532 384 578 c 1
 251 505 l 1
 240 537 l 1
 368 607 l 1
 358 624 l 2
 343 646 327 665 310 682 c 1
 333 703 l 1
 362 684 390 661 415 633 c 1
 546 704 l 1
 556 672 l 1
 437 606 l 1
 450 589 l 1
 492 524 517 442 507 343 c 0
 504 310 496 274 483 237 c 0
 426 68 295 -12 182 -12 c 0
 81 -12 45 64 54 149 c 0
 56 168 61 188 67 208 c 0
212 27 m 0
 259 27 343 61 397 223 c 0
 410 263 420 304 424 343 c 0
 425 349 423 354 424 359 c 0
 411 388 381 407 339 407 c 0
 237 407 176 301 151 225 c 0
 142 201 137 178 135 157 c 0
 127 79 157 27 212 27 c 0
EndSplineSet
MultipleSubs2: "'smcp' Min+APoA-sculas a may+APoA-sculas peque+APEA-as lookup 10 subtable" eth.sc
EndChar

StartChar: ntilde
Encoding: 241 241 177
Width: 518
GlyphClass: 2
Flags: MW
HStem: -10 21G<83 118 330 369> -10 60<330 410> 379 60<360 451.5> 394 42 416 20G<232 254.5> 526 44<455.5 461> 574 46<334.5 343.5>
VStem: 104 151 405 79
LayerCount: 2
Fore
SplineSet
414 124 m 2x8d80
 405 98 398 76 397 67 c 0
 396 55 398 50 405 50 c 0
 415 50 446 70 475 100 c 1x4d80
 489 100 495 92 497 83 c 1
 445 24 393 -10 345 -10 c 0
 315 -10 305 4 307 23 c 0
 309 42 323 83 334 115 c 2
 389 275 l 2
 399 303 408 331 409 343 c 0
 412 374 399 379 378 379 c 0xa580
 342 379 281 320 209 238 c 1
 153 72 l 2
 140 34 137 -10 99 -10 c 0
 67 -10 57 1 59 17 c 0
 60 27 70 52 77 72 c 2
 160 321 l 2
 169 349 173 364 174 372 c 0
 175 382 170 391 158 392 c 2
 118 395 l 1x9580
 113 404 112 415 120 423 c 1
 168 430 216 436 248 436 c 0
 261 436 267 429 266 415 c 0x8d80
 264 400 251 357 234 320 c 1
 231 311 l 1
 231 310 l 1
 334 418 380 439 432 439 c 0
 471 439 496 419 490 359 c 0xa580
 488 341 481 318 469 283 c 2
 414 124 l 2x8d80
465 570 m 0
 487 570 504 580 530 622 c 1
 553 616 l 1
 523 556 484 526 438 526 c 0x8d80
 416 526 399 538 382 552 c 0
 367 563 352 574 335 574 c 0x8b80
 309 574 291 559 271 526 c 1x8d80
 249 531 l 1
 281 590 313 620 356 620 c 0x8b80
 386 620 403 606 419 592 c 0
 432 580 446 570 465 570 c 0
EndSplineSet
MultipleSubs2: "'smcp' Min+APoA-sculas a may+APoA-sculas peque+APEA-as lookup 10 subtable" ntilde.sc
EndChar

StartChar: ograve
Encoding: 242 242 178
Width: 447
GlyphClass: 2
Flags: MW
HStem: -10 37<186.5 198> 406 33<261 329>
VStem: 78 83 382 83
AnchorPoint: "Anchor-5" 195 -3 basechar 0
AnchorPoint: "Anchor-4" 341 44 basechar 0
AnchorPoint: "Anchor-2" 140 -107 basechar 0
AnchorPoint: "Anchor-1" 427 396 basechar 0
LayerCount: 2
Fore
SplineSet
60 162 m 0
 73 282 168 439 335 439 c 0
 458 439 467 349 459 277 c 0
 447 159 368 53 276 9 c 0
 245 -6 214 -10 182 -10 c 0
 55 -10 54 109 60 162 c 0
144 170 m 0
 133 65 172 27 201 27 c 0
 239 27 280 45 313 88 c 0
 356 144 372 230 376 270 c 0
 379 300 379 337 370 362 c 0
 358 390 344 406 314 406 c 0
 208 406 153 260 144 170 c 0
392 671 m 2
 422 545 l 2
 424 535 424 528 422 521 c 0
 420 516 411 510 403 510 c 0
 397 510 391 515 380 530 c 2
 300 639 l 1
 305 650 l 1
 315 656 344 673 378 673 c 0
 383 673 388 672 392 671 c 2
EndSplineSet
MultipleSubs2: "'smcp' Min+APoA-sculas a may+APoA-sculas peque+APEA-as lookup 10 subtable" ograve.sc
EndChar

StartChar: oacute
Encoding: 243 243 179
Width: 447
GlyphClass: 2
Flags: MW
HStem: -10 37<186.5 198> 406 33<261 329>
VStem: 78 83 382 83
AnchorPoint: "Anchor-5" 195 -3 basechar 0
AnchorPoint: "Anchor-4" 341 44 basechar 0
AnchorPoint: "Anchor-2" 140 -107 basechar 0
AnchorPoint: "Anchor-1" 427 396 basechar 0
LayerCount: 2
Fore
SplineSet
60 162 m 0
 73 282 169 439 336 439 c 0
 459 439 468 349 460 277 c 0
 448 159 368 53 276 9 c 0
 245 -6 214 -10 182 -10 c 0
 55 -10 54 109 60 162 c 0
144 170 m 0
 133 65 172 27 201 27 c 0
 239 27 281 45 314 88 c 0
 357 144 372 230 376 270 c 0
 379 300 379 337 370 362 c 0
 358 390 344 406 314 406 c 0
 208 406 153 260 144 170 c 0
377 666 m 2
 380 667 388 668 393 668 c 0
 399 668 423 667 440 645 c 1
 440 634 l 1
 291 525 l 2
 271 510 263 506 256 506 c 0
 249 506 243 512 245 519 c 0
 248 530 254 534 265 547 c 2
 377 666 l 2
EndSplineSet
MultipleSubs2: "'smcp' Min+APoA-sculas a may+APoA-sculas peque+APEA-as lookup 10 subtable" oacute.sc
EndChar

StartChar: ocircumflex
Encoding: 244 244 180
Width: 447
GlyphClass: 2
Flags: MW
HStem: -10 37<187.5 199> 406 33<262 330> 600 53 633 20G<347 397 397 397>
VStem: 78 83 382 83
AnchorPoint: "Anchor-5" 196 -3 basechar 0
AnchorPoint: "Anchor-4" 342 44 basechar 0
AnchorPoint: "Anchor-2" 141 -107 basechar 0
AnchorPoint: "Anchor-1" 428 396 basechar 0
LayerCount: 2
Fore
SplineSet
61 162 m 0xdc
 74 282 169 439 336 439 c 0
 459 439 468 349 460 277 c 0
 448 159 369 53 277 9 c 0
 246 -6 215 -10 183 -10 c 0
 56 -10 55 109 61 162 c 0xdc
145 170 m 0
 134 65 173 27 202 27 c 0
 240 27 281 45 314 88 c 0
 357 144 373 230 377 270 c 0
 380 300 380 337 371 362 c 0
 359 390 345 406 315 406 c 0
 209 406 154 260 145 170 c 0
397 653 m 1
 411 606 434 564 458 524 c 1
 433 510 l 1
 403 539 377 564 354 600 c 1
 305 562 266 537 220 510 c 1
 204 524 l 1xec
 252 564 304 607 347 653 c 1
 397 653 l 1
EndSplineSet
MultipleSubs2: "'smcp' Min+APoA-sculas a may+APoA-sculas peque+APEA-as lookup 10 subtable" ocircumflex.sc
EndChar

StartChar: otilde
Encoding: 245 245 181
Width: 447
GlyphClass: 2
Flags: MW
HStem: -10 37<189.5 201> 406 33<264 332> 526 44<389.5 395> 574 46<268.5 277.5>
VStem: 78 83 382 83
AnchorPoint: "Anchor-5" 198 -3 basechar 0
AnchorPoint: "Anchor-4" 343 44 basechar 0
AnchorPoint: "Anchor-2" 143 -107 basechar 0
AnchorPoint: "Anchor-1" 429 396 basechar 0
AnchorPoint: "Anchor-0" 400 785 basechar 0
LayerCount: 2
Fore
SplineSet
63 162 m 0
 76 282 171 439 338 439 c 0
 461 439 470 349 462 277 c 0
 450 159 371 53 279 9 c 0
 248 -6 217 -10 185 -10 c 0
 58 -10 57 109 63 162 c 0
147 170 m 0
 136 65 175 27 204 27 c 0
 242 27 283 45 316 88 c 0
 359 144 374 230 378 270 c 0
 381 300 382 337 373 362 c 0
 361 390 347 406 317 406 c 0
 211 406 156 260 147 170 c 0
399 570 m 0
 421 570 438 580 464 622 c 1
 487 616 l 1
 457 556 418 526 372 526 c 0
 350 526 333 538 316 552 c 0
 301 563 286 574 269 574 c 0
 243 574 225 559 205 526 c 1
 183 531 l 1
 215 590 247 620 290 620 c 0
 320 620 337 606 353 592 c 0
 366 580 380 570 399 570 c 0
EndSplineSet
MultipleSubs2: "'smcp' Min+APoA-sculas a may+APoA-sculas peque+APEA-as lookup 10 subtable" otilde.sc
EndChar

StartChar: odieresis
Encoding: 246 246 182
Width: 447
GlyphClass: 2
Flags: MW
HStem: -10 37<189.5 201> 406 33<264 332> 527 92<256.5 271.5 416.5 431.5>
VStem: 78 83 190 92 350 92 382 83
AnchorPoint: "Anchor-5" 198 -3 basechar 0
AnchorPoint: "Anchor-4" 344 44 basechar 0
AnchorPoint: "Anchor-2" 143 -107 basechar 0
LayerCount: 2
Fore
SplineSet
63 162 m 0xd2
 76 282 171 439 338 439 c 0
 461 439 470 349 462 277 c 0
 450 159 371 53 279 9 c 0
 248 -6 217 -10 185 -10 c 0
 58 -10 57 109 63 162 c 0xd2
147 170 m 0
 136 65 175 27 204 27 c 0
 242 27 283 45 316 88 c 0
 359 144 374 230 378 270 c 0
 381 300 382 337 373 362 c 0
 361 390 347 406 317 406 c 0
 211 406 156 260 147 170 c 0
218 573 m 0xfc
 221 598 244 619 269 619 c 0
 294 619 313 598 310 573 c 0
 307 548 284 527 259 527 c 0
 234 527 215 548 218 573 c 0xfc
378 573 m 0
 381 598 404 619 429 619 c 0
 454 619 473 598 470 573 c 0
 467 548 444 527 419 527 c 0
 394 527 375 548 378 573 c 0
EndSplineSet
MultipleSubs2: "'smcp' Min+APoA-sculas a may+APoA-sculas peque+APEA-as lookup 10 subtable" odieresis.sc
EndChar

StartChar: divide
Encoding: 247 247 183
Width: 527
GlyphClass: 2
Flags: MW
HStem: 34 98<235.5 291.5> 219 49<130 509 113 525> 359 99<341 397.5>
VStem: 116 407 230 101 302 101
LayerCount: 2
Fore
SplineSet
525 268 m 1x50
 509 219 l 1
 113 219 l 1
 130 268 l 1
 525 268 l 1x50
318 397 m 0x64
 321 428 353 458 386 458 c 0
 409 458 423 441 421 419 c 0
 418 386 382 359 353 359 c 0
 329 359 316 375 318 397 c 0x64
212 72 m 0xc8
 215 102 247 132 280 132 c 0
 303 132 317 116 315 94 c 0
 311 60 276 34 247 34 c 0
 224 34 210 50 212 72 c 0xc8
EndSplineSet
EndChar

StartChar: oslash
Encoding: 248 248 184
Width: 447
GlyphClass: 2
Flags: MW
HStem: -10 37<205.5 210> 406 33<273 341>
VStem: 78 83 382 83
AnchorPoint: "Anchor-5" 207 -3 basechar 0
AnchorPoint: "Anchor-4" 353 44 basechar 0
AnchorPoint: "Anchor-2" 152 -107 basechar 0
LayerCount: 2
Fore
SplineSet
498 477 m 1
 528 453 l 1
 461 380 l 1
 475 349 476 311 472 277 c 0
 460 159 380 53 288 9 c 0
 257 -6 226 -10 194 -10 c 0
 162 -10 139 -3 121 9 c 1
 68 -48 l 1
 38 -21 l 1
 93 38 l 1
 67 77 69 131 72 162 c 0
 85 282 181 439 348 439 c 0
 390 439 419 429 438 412 c 1
 498 477 l 1
385 355 m 2
 384 357 384 360 383 362 c 0
 371 390 356 406 326 406 c 0
 220 406 165 260 156 170 c 0
 153 145 154 124 156 107 c 1
 385 355 l 2
390 303 m 1
 169 61 l 1
 180 37 198 27 213 27 c 0
 251 27 293 45 326 88 c 0
 369 144 384 230 388 270 c 0
 389 280 390 291 390 303 c 1
EndSplineSet
MultipleSubs2: "'smcp' Min+APoA-sculas a may+APoA-sculas peque+APEA-as lookup 10 subtable" oslash.sc
EndChar

StartChar: ugrave
Encoding: 249 249 185
Width: 521
GlyphClass: 2
Flags: MW
HStem: -10 60<133.5 224> 379 60<177 262> 419 20G<223 262 469 504>
VStem: 120 79 361 78
LayerCount: 2
Fore
SplineSet
508 352 m 2xb0
 428 124 l 2
 419 98 412 76 411 67 c 0
 410 55 412 50 419 50 c 0
 429 50 461 70 490 100 c 1
 504 100 509 92 511 83 c 1
 459 24 410 -10 362 -10 c 0
 332 -10 327 4 329 23 c 0
 331 42 343 83 355 115 c 2
 370 154 l 1
 368 156 l 1
 286 52 229 -10 151 -10 c 0
 116 -10 87 13 93 70 c 0
 95 89 100 111 110 137 c 2
 171 305 l 2
 181 331 189 353 190 362 c 0
 191 374 189 379 182 379 c 0
 172 379 137 359 108 329 c 1xd8
 94 329 89 337 87 346 c 1
 139 405 199 439 247 439 c 0
 277 439 282 425 280 406 c 0
 278 387 260 346 249 314 c 2
 189 151 l 2
 179 124 175 103 173 87 c 0
 170 60 181 50 199 50 c 0
 249 50 306 121 393 247 c 1
 434 357 l 2
 448 395 450 439 488 439 c 0
 520 439 529 429 527 412 c 0
 526 400 514 370 508 352 c 2xb0
399 671 m 2
 429 545 l 2
 431 535 431 528 429 521 c 0
 427 516 418 510 410 510 c 0
 404 510 398 515 387 530 c 2
 307 639 l 1
 312 650 l 1
 322 656 351 673 385 673 c 0
 390 673 395 672 399 671 c 2
EndSplineSet
MultipleSubs2: "'smcp' Min+APoA-sculas a may+APoA-sculas peque+APEA-as lookup 10 subtable" ugrave.sc
EndChar

StartChar: uacute
Encoding: 250 250 186
Width: 521
GlyphClass: 2
Flags: MW
HStem: -10 60<133.5 225> 379 60<177 263> 419 20G<224 263 470 505>
VStem: 120 79 361 78
LayerCount: 2
Fore
SplineSet
508 352 m 2xb0
 428 124 l 2
 419 98 412 76 411 67 c 0
 410 55 413 50 420 50 c 0
 430 50 461 70 490 100 c 1
 504 100 509 92 511 83 c 1
 459 24 410 -10 362 -10 c 0
 332 -10 327 4 329 23 c 0
 331 42 344 83 356 115 c 2
 371 154 l 1
 368 156 l 1
 286 52 229 -10 151 -10 c 0
 116 -10 87 13 93 70 c 0
 95 89 100 111 110 137 c 2
 171 305 l 2
 181 331 189 353 190 362 c 0
 191 374 189 379 182 379 c 0
 172 379 137 359 108 329 c 1xd8
 94 329 89 337 87 346 c 1
 139 405 200 439 248 439 c 0
 278 439 282 425 280 406 c 0
 278 387 260 346 249 314 c 2
 189 151 l 2
 179 124 176 103 174 87 c 0
 171 60 182 50 200 50 c 0
 250 50 306 121 393 247 c 1
 434 357 l 2
 448 395 451 439 489 439 c 0
 521 439 530 429 528 412 c 0
 527 400 514 370 508 352 c 2xb0
460 666 m 2
 463 667 471 668 476 668 c 0
 482 668 506 667 523 645 c 1
 523 634 l 1
 374 525 l 2
 354 510 346 506 339 506 c 0
 332 506 326 512 328 519 c 0
 331 530 337 534 348 547 c 2
 460 666 l 2
EndSplineSet
MultipleSubs2: "'smcp' Min+APoA-sculas a may+APoA-sculas peque+APEA-as lookup 10 subtable" uacute.sc
EndChar

StartChar: ucircumflex
Encoding: 251 251 187
Width: 521
GlyphClass: 2
Flags: MW
HStem: -10 60<134.5 225> 379 60<178 263> 419 20G<224 263 470 505> 600 53 633 20G<395 445 445 445>
VStem: 120 79 361 78
LayerCount: 2
Fore
SplineSet
509 352 m 2xac
 429 124 l 2
 420 98 413 76 412 67 c 0
 411 55 413 50 420 50 c 0
 430 50 462 70 491 100 c 1
 505 100 510 92 512 83 c 1
 460 24 411 -10 363 -10 c 0
 333 -10 328 4 330 23 c 0
 332 42 344 83 356 115 c 2
 371 154 l 1
 369 156 l 1
 287 52 230 -10 152 -10 c 0
 117 -10 88 13 94 70 c 0
 96 89 101 111 111 137 c 2
 172 305 l 2
 182 331 190 353 191 362 c 0
 192 374 190 379 183 379 c 0
 173 379 138 359 109 329 c 1xce
 95 329 90 337 88 346 c 1
 140 405 200 439 248 439 c 0
 278 439 283 425 281 406 c 0
 279 387 261 346 250 314 c 2
 190 151 l 2
 180 124 176 103 174 87 c 0
 171 60 182 50 200 50 c 0
 250 50 307 121 394 247 c 1
 435 357 l 2
 449 395 451 439 489 439 c 0
 521 439 531 429 529 412 c 0
 528 400 515 370 509 352 c 2xac
445 653 m 1
 459 606 482 564 506 524 c 1
 481 510 l 1
 451 539 425 564 402 600 c 1
 353 562 314 537 268 510 c 1
 252 524 l 1xb4
 300 564 352 607 395 653 c 1
 445 653 l 1
EndSplineSet
MultipleSubs2: "'smcp' Min+APoA-sculas a may+APoA-sculas peque+APEA-as lookup 10 subtable" ucircumflex.sc
EndChar

StartChar: udieresis
Encoding: 252 252 188
Width: 521
GlyphClass: 2
Flags: MW
HStem: -10 60<136.5 227> 379 60<180 265> 419 20G<226 265 472 507> 527 92<304.5 319.5 464.5 479.5>
VStem: 120 79 238 92 361 78 398 92
LayerCount: 2
Fore
SplineSet
511 352 m 2xbd
 431 124 l 2
 422 98 415 76 414 67 c 0
 413 55 415 50 422 50 c 0
 432 50 464 70 493 100 c 1
 507 100 512 92 514 83 c 1
 462 24 413 -10 365 -10 c 0
 335 -10 329 4 331 23 c 0
 333 42 346 83 358 115 c 2
 373 154 l 1
 370 156 l 1
 288 52 232 -10 154 -10 c 0
 119 -10 89 13 95 70 c 0
 97 89 102 111 112 137 c 2
 174 305 l 2
 184 331 192 353 193 362 c 0
 194 374 192 379 185 379 c 0
 175 379 140 359 111 329 c 1xde
 97 329 91 337 89 346 c 1
 141 405 202 439 250 439 c 0
 280 439 285 425 283 406 c 0
 281 387 263 346 252 314 c 2
 192 151 l 2
 182 124 178 103 176 87 c 0
 173 60 184 50 202 50 c 0
 252 50 309 121 396 247 c 1
 437 357 l 2
 451 395 453 439 491 439 c 0
 523 439 532 429 530 412 c 0
 529 400 517 370 511 352 c 2xbd
266 573 m 0
 269 598 292 619 317 619 c 0
 342 619 361 598 358 573 c 0
 355 548 332 527 307 527 c 0
 282 527 263 548 266 573 c 0
426 573 m 0xbd
 429 598 452 619 477 619 c 0
 502 619 521 598 518 573 c 0
 515 548 492 527 467 527 c 0
 442 527 423 548 426 573 c 0xbd
EndSplineSet
MultipleSubs2: "'smcp' Min+APoA-sculas a may+APoA-sculas peque+APEA-as lookup 10 subtable" udieresis.sc
EndChar

StartChar: yacute
Encoding: 253 253 189
Width: 503
GlyphClass: 2
Flags: MW
HStem: -234 21G<54.5 89.5> -234 61<54.5 131> -234 93<54.5 61 46.5 89.5> 363 76<174.5 258.5> 419 20G<234.5 258.5 505.5 539.5>
VStem: 265 53 451 98 477 72
LayerCount: 2
Fore
SplineSet
330 0 m 2x8e
 277 -70 l 2
 203 -169 116 -234 63 -234 c 0
 46 -234 3 -225 6 -192 c 0
 9 -161 36 -141 57 -141 c 0x2e
 65 -141 85 -149 91 -155 c 0
 96 -160 114 -173 124 -173 c 0
 138 -173 185 -129 233 -62 c 0
 248 -36 243 207 223 309 c 0
 220 327 215 343 212 351 c 0
 208 360 198 363 185 363 c 0
 164 363 130 347 117 341 c 1x56
 110 349 107 361 107 372 c 1
 145 398 223 439 246 439 c 0
 271 439 283 418 291 365 c 0
 308 241 304 147 298 31 c 1
 305 28 l 1
 334 65 395 149 395 149 c 2
 435 203 483 278 488 322 c 0x8d
 490 338 486 359 473 382 c 0
 470 386 469 396 470 402 c 0
 473 426 491 439 520 439 c 0
 559 439 570 420 567 392 c 0
 563 356 548 320 529 285 c 0
 494 219 352 32 330 0 c 2x8e
475 667 m 2
 478 668 485 669 490 669 c 0
 496 669 521 668 538 646 c 1
 538 635 l 1
 388 526 l 2
 368 511 360 507 353 507 c 0
 346 507 341 513 343 520 c 0
 346 531 352 535 363 548 c 2
 475 667 l 2
EndSplineSet
MultipleSubs2: "'smcp' Min+APoA-sculas a may+APoA-sculas peque+APEA-as lookup 10 subtable" yacute.sc
EndChar

